<svg width="400" height="233" viewBox="0 0 400 233" fill="none" xmlns="http://www.w3.org/2000/svg">
<rect width="400" height="233" fill="#1F0C1D"/>
<circle cx="94" cy="100.914" r="7" fill="#F86EFF"/>
<circle cx="37" cy="132.914" r="7" fill="#F86EFF"/>
<circle cx="146" cy="132.914" r="7" fill="#F86EFF"/>
<circle cx="118" cy="191.914" r="7" fill="#F86EFF"/>
<circle cx="62" cy="191.914" r="7" fill="#F86EFF"/>
<path d="M37.5 132.914L94.5 100.914" stroke="#F86EFF"/>
<path d="M94 101.414L146 133.414" stroke="#F86EFF"/>
<path d="M118 192.914H61.5" stroke="#F86EFF"/>
<path d="M147.5 133.914L119 190.414" stroke="#F86EFF"/>
<path d="M36.5 134.414L59.5 189.914" stroke="#F86EFF"/>
<path d="M64.5 191.914L95 100.414" stroke="#F86EFF"/>
<path d="M97.5 102.914L117.5 190.414" stroke="#F86EFF"/>
<path d="M39 133.414L116 190.414" stroke="#F86EFF"/>
<path d="M35 132.414C36.1667 112.08 49.6 77.3135 94 100.914" stroke="#F86EFF"/>
<path d="M95.5 100.914C145.333 103.247 219.7 124.914 118.5 192.914" stroke="#F86EFF"/>
<path d="M145 134.414C139.667 142.08 110.4 152.814 36 134.414" stroke="#F86EFF"/>
<path d="M36 136.414C26.8333 179.58 30.8 251.214 120 192.414" stroke="#F86EFF"/>
<path d="M235 129.414C236.167 109.08 249.6 74.3135 294 97.9135" stroke="#F5D786" stroke-dasharray="3 10"/>
<path d="M295.5 97.9135C345.333 100.247 419.7 121.914 318.5 189.914" stroke="#F5D786" stroke-dasharray="3 10"/>
<path d="M345 131.414C339.667 139.08 310.4 149.814 236 131.414" stroke="#F5D786" stroke-dasharray="3 10"/>
<path d="M236 133.414C226.833 176.58 230.8 248.214 320 189.414" stroke="#F5D786" stroke-dasharray="3 10"/>
<circle cx="294" cy="97.9135" r="7" fill="#F86EFF"/>
<circle cx="237" cy="129.914" r="7" fill="#F86EFF"/>
<circle cx="346" cy="129.914" r="7" fill="#F86EFF"/>
<circle cx="318" cy="188.914" r="7" fill="#F86EFF"/>
<circle cx="262" cy="188.914" r="7" fill="#F86EFF"/>
<path d="M237.5 129.914L294.5 97.9135" stroke="#F86EFF"/>
<path d="M294 98.4135L346 130.414" stroke="#F86EFF" stroke-width="0.5"/>
<path d="M318 189.914H261.5" stroke="#F86EFF"/>
<path d="M347.5 130.914L319 187.414" stroke="#F86EFF" stroke-width="3"/>
<path d="M236.5 131.414L259.5 186.914" stroke="#F86EFF" stroke-width="0.2"/>
<path d="M264.5 188.914L295 97.4135" stroke="#F86EFF"/>
<path d="M293.5 96L317.5 189" stroke="#F86EFF" stroke-width="7"/>
<path d="M239 130.414L316 187.414" stroke="#F86EFF" stroke-width="5"/>
<path d="M41.0139 18.112C41.0139 18.752 40.8272 19.296 40.4539 19.744C40.0912 20.1813 39.6112 20.4533 39.0139 20.56V20.592C39.7605 20.6773 40.3312 20.9333 40.7259 21.36C41.1312 21.776 41.3339 22.336 41.3339 23.04C41.3339 23.9893 41.0245 24.72 40.4059 25.232C39.7872 25.744 38.8965 26 37.7339 26H33.9099V15.312H37.6059C38.7045 15.312 39.5472 15.552 40.1339 16.032C40.7205 16.512 41.0139 17.2053 41.0139 18.112ZM37.5099 16.448H35.2379V20.112H37.5099C38.1925 20.112 38.7152 19.9573 39.0779 19.648C39.4405 19.3387 39.6219 18.8853 39.6219 18.288C39.6219 17.6907 39.4405 17.2373 39.0779 16.928C38.7259 16.608 38.2032 16.448 37.5099 16.448ZM37.6859 21.216H35.2379V24.896H37.6859C38.4325 24.896 39.0032 24.7413 39.3979 24.432C39.7925 24.112 39.9899 23.6533 39.9899 23.056C39.9899 22.4587 39.7925 22.0053 39.3979 21.696C39.0032 21.376 38.4325 21.216 37.6859 21.216ZM43.533 26V18H44.573L44.749 20.048C44.8983 19.376 45.2077 18.8373 45.677 18.432C46.1463 18.016 46.685 17.808 47.293 17.808C47.3677 17.808 47.4423 17.8133 47.517 17.824C47.6023 17.8347 47.6823 17.8453 47.757 17.856L47.677 19.232C47.613 19.2213 47.5223 19.2107 47.405 19.2C47.2877 19.1893 47.165 19.184 47.037 19.184C46.3757 19.184 45.8423 19.4347 45.437 19.936C45.0423 20.4373 44.845 21.1093 44.845 21.952V26H43.533ZM51.661 25.168C52.2583 25.168 52.7383 24.976 53.101 24.592C53.4637 24.208 53.645 23.68 53.645 23.008V22.336C53.5063 22.3253 53.373 22.32 53.245 22.32C53.117 22.3093 52.9997 22.304 52.893 22.304C51.9757 22.304 51.293 22.4373 50.845 22.704C50.397 22.96 50.173 23.3493 50.173 23.872C50.173 24.2773 50.3063 24.5973 50.573 24.832C50.8397 25.056 51.2023 25.168 51.661 25.168ZM52.141 17.808C53.0263 17.808 53.7037 18.0213 54.173 18.448C54.6423 18.864 54.877 19.472 54.877 20.272V24.432C54.877 24.6667 54.925 24.8427 55.021 24.96C55.117 25.0773 55.2663 25.136 55.469 25.136C55.5543 25.136 55.645 25.12 55.741 25.088C55.837 25.056 55.9117 25.0133 55.965 24.96L56.045 25.936C55.949 26 55.8157 26.0533 55.645 26.096C55.485 26.1387 55.325 26.16 55.165 26.16C54.8663 26.16 54.605 26.1013 54.381 25.984C54.1677 25.856 54.0023 25.6747 53.885 25.44C53.8423 25.3547 53.7997 25.264 53.757 25.168C53.725 25.0613 53.6983 24.944 53.677 24.816C53.5277 25.232 53.2397 25.5627 52.813 25.808C52.3863 26.0533 51.901 26.176 51.357 26.176C50.6103 26.176 50.0077 25.9733 49.549 25.568C49.101 25.152 48.877 24.6027 48.877 23.92C48.877 23.088 49.2183 22.448 49.901 22C50.5943 21.552 51.5917 21.328 52.893 21.328C52.957 21.328 53.037 21.3333 53.133 21.344C53.2397 21.344 53.4103 21.3493 53.645 21.36V20.416C53.645 19.9253 53.5063 19.5467 53.229 19.28C52.9623 19.0133 52.573 18.88 52.061 18.88C51.5703 18.88 51.1917 19.0027 50.925 19.248C50.6583 19.4933 50.5143 19.8507 50.493 20.32L49.213 20.096C49.2983 19.392 49.6023 18.8373 50.125 18.432C50.6583 18.016 51.3303 17.808 52.141 17.808ZM58.5015 14.608C58.7682 14.608 58.9922 14.6987 59.1735 14.88C59.3548 15.0613 59.4455 15.2907 59.4455 15.568C59.4455 15.8453 59.3548 16.0747 59.1735 16.256C58.9922 16.4373 58.7682 16.528 58.5015 16.528C58.2348 16.528 58.0108 16.4373 57.8295 16.256C57.6482 16.0747 57.5575 15.8453 57.5575 15.568C57.5575 15.2907 57.6482 15.0613 57.8295 14.88C58.0108 14.6987 58.2348 14.608 58.5015 14.608ZM57.8455 26V18H59.1575V26H57.8455ZM61.9705 18H62.9465L63.1065 19.552C63.3305 18.9973 63.6772 18.5707 64.1465 18.272C64.6158 17.9627 65.1652 17.808 65.7945 17.808C66.5412 17.808 67.1385 18.0427 67.5865 18.512C68.0345 18.9707 68.2585 19.5947 68.2585 20.384V26H66.9465V20.656C66.9465 20.112 66.8078 19.696 66.5305 19.408C66.2638 19.1093 65.8798 18.96 65.3785 18.96C64.7172 18.96 64.1998 19.168 63.8265 19.584C63.4638 20 63.2825 20.592 63.2825 21.36V26H61.9705V18ZM77.5938 18.768C77.0284 18.768 76.5858 18.9227 76.2658 19.232C75.9458 19.5307 75.7858 19.952 75.7858 20.496C75.7858 21.04 75.9458 21.4667 76.2658 21.776C76.5858 22.0747 77.0284 22.224 77.5938 22.224C78.1698 22.224 78.6178 22.0747 78.9378 21.776C79.2578 21.4667 79.4178 21.04 79.4178 20.496C79.4178 19.952 79.2524 19.5307 78.9218 19.232C78.6018 18.9227 78.1591 18.768 77.5938 18.768ZM81.5938 26.656C81.5938 27.5093 81.2204 28.1707 80.4738 28.64C79.7271 29.12 78.7244 29.36 77.4658 29.36C76.3778 29.36 75.5031 29.152 74.8418 28.736C74.1804 28.3307 73.8498 27.7707 73.8498 27.056C73.8498 26.608 74.0151 26.2293 74.3458 25.92C74.6764 25.6107 75.1191 25.4133 75.6738 25.328C75.3964 25.232 75.1778 25.0827 75.0178 24.88C74.8684 24.6667 74.7938 24.4213 74.7938 24.144C74.7938 23.8347 74.8898 23.568 75.0818 23.344C75.2738 23.12 75.5458 22.9493 75.8978 22.832C75.4498 22.608 75.1084 22.2987 74.8738 21.904C74.6391 21.4987 74.5218 21.0293 74.5218 20.496C74.5218 19.6747 74.7991 19.024 75.3538 18.544C75.9084 18.0533 76.6551 17.808 77.5938 17.808C78.0524 17.808 78.4738 17.872 78.8578 18C79.2418 18.1173 79.5724 18.2933 79.8498 18.528C80.0204 18.4427 80.1538 18.3093 80.2498 18.128C80.3564 17.9467 80.4471 17.6373 80.5218 17.2L81.7378 17.632C81.6738 18.0053 81.5138 18.336 81.2578 18.624C81.0018 18.9013 80.6978 19.0773 80.3458 19.152C80.4631 19.344 80.5484 19.552 80.6018 19.776C80.6551 20 80.6818 20.24 80.6818 20.496C80.6818 21.328 80.3991 21.9893 79.8338 22.48C79.2791 22.96 78.5324 23.2 77.5938 23.2C77.4124 23.2 77.2311 23.1893 77.0498 23.168C76.8684 23.1467 76.6871 23.1147 76.5058 23.072C76.3031 23.1573 76.1484 23.2693 76.0418 23.408C75.9458 23.536 75.8978 23.6907 75.8978 23.872C75.8978 24.0747 75.9671 24.2293 76.1058 24.336C76.2444 24.4427 76.4471 24.496 76.7138 24.496H78.9378C79.7804 24.496 80.4311 24.688 80.8898 25.072C81.3591 25.4453 81.5938 25.9733 81.5938 26.656ZM75.1138 26.944C75.1138 27.392 75.3271 27.744 75.7538 28C76.1804 28.256 76.7404 28.384 77.4338 28.384C78.3298 28.384 79.0444 28.24 79.5778 27.952C80.1111 27.6747 80.3778 27.2853 80.3778 26.784C80.3778 26.432 80.2498 26.1653 79.9938 25.984C79.7378 25.792 79.3644 25.696 78.8738 25.696H76.6018C76.1538 25.696 75.7911 25.808 75.5138 26.032C75.2471 26.256 75.1138 26.56 75.1138 26.944ZM83.3143 26V18H84.3543L84.5303 20.048C84.6796 19.376 84.9889 18.8373 85.4583 18.432C85.9276 18.016 86.4663 17.808 87.0743 17.808C87.1489 17.808 87.2236 17.8133 87.2983 17.824C87.3836 17.8347 87.4636 17.8453 87.5383 17.856L87.4583 19.232C87.3943 19.2213 87.3036 19.2107 87.1863 19.2C87.0689 19.1893 86.9463 19.184 86.8183 19.184C86.1569 19.184 85.6236 19.4347 85.2183 19.936C84.8236 20.4373 84.6263 21.1093 84.6263 21.952V26H83.3143ZM92.166 17.808C93.2647 17.808 94.134 18.1813 94.774 18.928C95.4247 19.6747 95.75 20.6987 95.75 22C95.75 23.3013 95.4247 24.3253 94.774 25.072C94.134 25.8187 93.2647 26.192 92.166 26.192C91.0673 26.192 90.1927 25.8187 89.542 25.072C88.902 24.3253 88.582 23.3013 88.582 22C88.582 20.6987 88.902 19.6747 89.542 18.928C90.1927 18.1813 91.0673 17.808 92.166 17.808ZM92.166 25.168C92.902 25.168 93.462 24.9013 93.846 24.368C94.23 23.824 94.422 23.0347 94.422 22C94.422 20.9653 94.23 20.1813 93.846 19.648C93.462 19.104 92.902 18.832 92.166 18.832C91.43 18.832 90.87 19.104 90.486 19.648C90.102 20.1813 89.91 20.9653 89.91 22C89.91 23.0347 90.102 23.824 90.486 24.368C90.87 24.9013 91.43 25.168 92.166 25.168ZM100.002 24.432L101.666 18H102.85L104.514 24.432H104.546L106.21 18H107.474L105.202 26H103.922L102.258 19.696H102.226L100.562 26H99.2821L97.0101 18H98.3061L99.9701 24.432H100.002ZM111.682 26.192C110.829 26.192 110.114 25.9947 109.538 25.6C108.973 25.2053 108.632 24.6667 108.514 23.984L109.714 23.648C109.778 24.096 109.992 24.464 110.354 24.752C110.728 25.04 111.17 25.184 111.682 25.184C112.237 25.184 112.664 25.0773 112.962 24.864C113.272 24.64 113.426 24.3253 113.426 23.92C113.426 23.5787 113.304 23.3067 113.058 23.104C112.824 22.9013 112.301 22.7093 111.49 22.528C110.957 22.4107 110.562 22.304 110.306 22.208C110.061 22.112 109.848 22.0053 109.666 21.888C109.4 21.696 109.197 21.4613 109.058 21.184C108.93 20.9067 108.866 20.5813 108.866 20.208C108.866 19.4827 109.122 18.9013 109.634 18.464C110.157 18.0267 110.834 17.808 111.666 17.808C112.541 17.808 113.218 18 113.698 18.384C114.189 18.7573 114.477 19.3067 114.562 20.032L113.33 20.208C113.288 19.76 113.122 19.4187 112.834 19.184C112.557 18.9387 112.168 18.816 111.666 18.816C111.176 18.816 110.792 18.9333 110.514 19.168C110.237 19.392 110.098 19.7067 110.098 20.112C110.098 20.4427 110.216 20.7093 110.45 20.912C110.685 21.104 111.202 21.2853 112.002 21.456C112.546 21.5733 112.946 21.68 113.202 21.776C113.458 21.8613 113.677 21.968 113.858 22.096C114.125 22.288 114.322 22.528 114.45 22.816C114.589 23.0933 114.658 23.4293 114.658 23.824C114.658 24.5493 114.386 25.1253 113.842 25.552C113.298 25.9787 112.578 26.192 111.682 26.192ZM122.734 25.088C122.862 25.088 122.985 25.072 123.102 25.04C123.23 24.9973 123.347 24.9387 123.454 24.864L123.598 25.872C123.449 25.9573 123.262 26.0267 123.038 26.08C122.814 26.1333 122.595 26.16 122.382 26.16C121.827 26.16 121.406 26.0213 121.118 25.744C120.841 25.456 120.702 25.04 120.702 24.496V14.448H122.014V24.352C122.014 24.608 122.073 24.7947 122.19 24.912C122.307 25.0293 122.489 25.088 122.734 25.088ZM128.51 17.808C129.608 17.808 130.478 18.1813 131.118 18.928C131.768 19.6747 132.094 20.6987 132.094 22C132.094 23.3013 131.768 24.3253 131.118 25.072C130.478 25.8187 129.608 26.192 128.51 26.192C127.411 26.192 126.536 25.8187 125.886 25.072C125.246 24.3253 124.926 23.3013 124.926 22C124.926 20.6987 125.246 19.6747 125.886 18.928C126.536 18.1813 127.411 17.808 128.51 17.808ZM128.51 25.168C129.246 25.168 129.806 24.9013 130.19 24.368C130.574 23.824 130.766 23.0347 130.766 22C130.766 20.9653 130.574 20.1813 130.19 19.648C129.806 19.104 129.246 18.832 128.51 18.832C127.774 18.832 127.214 19.104 126.83 19.648C126.446 20.1813 126.254 20.9653 126.254 22C126.254 23.0347 126.446 23.824 126.83 24.368C127.214 24.9013 127.774 25.168 128.51 25.168ZM136.97 25.088C137.215 25.088 137.434 25.0613 137.626 25.008C137.818 24.944 138.037 24.832 138.282 24.672L138.522 25.712C138.287 25.8613 138.021 25.9787 137.722 26.064C137.434 26.1493 137.151 26.192 136.874 26.192C136.106 26.192 135.514 26.0053 135.098 25.632C134.693 25.248 134.49 24.6987 134.49 23.984V19.008H133.338V18H134.49V16.304L135.802 16.096V18H138.202V19.008H135.802V23.856C135.802 24.2613 135.898 24.5707 136.09 24.784C136.293 24.9867 136.586 25.088 136.97 25.088ZM142.823 26.192C141.97 26.192 141.255 25.9947 140.679 25.6C140.114 25.2053 139.772 24.6667 139.655 23.984L140.855 23.648C140.919 24.096 141.132 24.464 141.495 24.752C141.868 25.04 142.311 25.184 142.823 25.184C143.378 25.184 143.804 25.0773 144.103 24.864C144.412 24.64 144.567 24.3253 144.567 23.92C144.567 23.5787 144.444 23.3067 144.199 23.104C143.964 22.9013 143.442 22.7093 142.631 22.528C142.098 22.4107 141.703 22.304 141.447 22.208C141.202 22.112 140.988 22.0053 140.807 21.888C140.54 21.696 140.338 21.4613 140.199 21.184C140.071 20.9067 140.007 20.5813 140.007 20.208C140.007 19.4827 140.263 18.9013 140.775 18.464C141.298 18.0267 141.975 17.808 142.807 17.808C143.682 17.808 144.359 18 144.839 18.384C145.33 18.7573 145.618 19.3067 145.703 20.032L144.471 20.208C144.428 19.76 144.263 19.4187 143.975 19.184C143.698 18.9387 143.308 18.816 142.807 18.816C142.316 18.816 141.932 18.9333 141.655 19.168C141.378 19.392 141.239 19.7067 141.239 20.112C141.239 20.4427 141.356 20.7093 141.591 20.912C141.826 21.104 142.343 21.2853 143.143 21.456C143.687 21.5733 144.087 21.68 144.343 21.776C144.599 21.8613 144.818 21.968 144.999 22.096C145.266 22.288 145.463 22.528 145.591 22.816C145.73 23.0933 145.799 23.4293 145.799 23.824C145.799 24.5493 145.527 25.1253 144.983 25.552C144.439 25.9787 143.719 26.192 142.823 26.192ZM154.979 17.808C156.077 17.808 156.947 18.1813 157.587 18.928C158.237 19.6747 158.562 20.6987 158.562 22C158.562 23.3013 158.237 24.3253 157.587 25.072C156.947 25.8187 156.077 26.192 154.979 26.192C153.88 26.192 153.005 25.8187 152.355 25.072C151.715 24.3253 151.395 23.3013 151.395 22C151.395 20.6987 151.715 19.6747 152.355 18.928C153.005 18.1813 153.88 17.808 154.979 17.808ZM154.979 25.168C155.715 25.168 156.275 24.9013 156.659 24.368C157.043 23.824 157.235 23.0347 157.235 22C157.235 20.9653 157.043 20.1813 156.659 19.648C156.275 19.104 155.715 18.832 154.979 18.832C154.243 18.832 153.683 19.104 153.299 19.648C152.915 20.1813 152.723 20.9653 152.723 22C152.723 23.0347 152.915 23.824 153.299 24.368C153.683 24.9013 154.243 25.168 154.979 25.168ZM161.039 26V19.008H159.871V18H161.039V17.088C161.039 16.2453 161.289 15.5627 161.791 15.04C162.292 14.5173 162.943 14.256 163.743 14.256C163.999 14.256 164.244 14.288 164.479 14.352C164.724 14.4053 164.969 14.496 165.215 14.624L164.911 15.728C164.729 15.5893 164.553 15.4933 164.383 15.44C164.212 15.376 164.009 15.344 163.775 15.344C163.316 15.344 162.964 15.4987 162.719 15.808C162.473 16.1173 162.351 16.5547 162.351 17.12V18H164.399V19.008H162.351V26H161.039ZM31.8143 38H32.7903L32.9503 39.552C33.1743 38.9973 33.5209 38.5707 33.9903 38.272C34.4596 37.9627 35.0089 37.808 35.6383 37.808C36.3849 37.808 36.9823 38.0427 37.4303 38.512C37.8783 38.9707 38.1023 39.5947 38.1023 40.384V46H36.7903V40.656C36.7903 40.112 36.6516 39.696 36.3743 39.408C36.1076 39.1093 35.7236 38.96 35.2223 38.96C34.5609 38.96 34.0436 39.168 33.6703 39.584C33.3076 40 33.1263 40.592 33.1263 41.36V46H31.8143V38ZM43.8375 45.152C44.3388 45.152 44.7495 45.0293 45.0695 44.784C45.3895 44.5387 45.6082 44.176 45.7255 43.696L46.8615 44.016C46.6908 44.72 46.3442 45.2587 45.8215 45.632C45.2988 46.0053 44.6375 46.192 43.8375 46.192C42.7175 46.192 41.8428 45.8293 41.2135 45.104C40.5842 44.3787 40.2695 43.3547 40.2695 42.032C40.2695 40.7413 40.5895 39.7173 41.2295 38.96C41.8802 38.192 42.7495 37.808 43.8375 37.808C44.7868 37.808 45.5388 38.1173 46.0935 38.736C46.6588 39.344 46.9415 40.1547 46.9415 41.168C46.9415 41.3707 46.9255 41.568 46.8935 41.76C46.8615 41.952 46.8242 42.112 46.7815 42.24H41.5335C41.5655 43.168 41.7788 43.888 42.1735 44.4C42.5788 44.9013 43.1335 45.152 43.8375 45.152ZM43.8055 38.816C43.1762 38.816 42.6642 39.0293 42.2695 39.456C41.8855 39.8827 41.6508 40.4907 41.5655 41.28H45.6295C45.6402 41.2267 45.6455 41.1733 45.6455 41.12C45.6455 41.056 45.6455 40.9707 45.6455 40.864C45.6455 40.256 45.4748 39.7653 45.1335 39.392C44.8028 39.008 44.3602 38.816 43.8055 38.816ZM55.27 46H54.23L54.07 44.48C53.8887 45.0347 53.5793 45.4613 53.142 45.76C52.7047 46.048 52.1713 46.192 51.542 46.192C50.806 46.192 50.2087 45.9627 49.75 45.504C49.302 45.0453 49.078 44.4213 49.078 43.632V38H50.39V43.488C50.39 44 50.5233 44.4053 50.79 44.704C51.0567 44.992 51.43 45.136 51.91 45.136C52.5393 45.136 53.0353 44.9173 53.398 44.48C53.7607 44.0427 53.942 43.4293 53.942 42.64V38H55.27V46ZM58.0799 46V38H59.1199L59.2959 40.048C59.4452 39.376 59.7545 38.8373 60.2239 38.432C60.6932 38.016 61.2319 37.808 61.8399 37.808C61.9145 37.808 61.9892 37.8133 62.0639 37.824C62.1492 37.8347 62.2292 37.8453 62.3039 37.856L62.2239 39.232C62.1599 39.2213 62.0692 39.2107 61.9519 39.2C61.8345 39.1893 61.7119 39.184 61.5839 39.184C60.9225 39.184 60.3892 39.4347 59.9839 39.936C59.5892 40.4373 59.3919 41.1093 59.3919 41.952V46H58.0799ZM66.2079 45.168C66.8052 45.168 67.2852 44.976 67.6479 44.592C68.0105 44.208 68.1919 43.68 68.1919 43.008V42.336C68.0532 42.3253 67.9199 42.32 67.7919 42.32C67.6639 42.3093 67.5465 42.304 67.4399 42.304C66.5225 42.304 65.8399 42.4373 65.3919 42.704C64.9439 42.96 64.7199 43.3493 64.7199 43.872C64.7199 44.2773 64.8532 44.5973 65.1199 44.832C65.3865 45.056 65.7492 45.168 66.2079 45.168ZM66.6879 37.808C67.5732 37.808 68.2505 38.0213 68.7199 38.448C69.1892 38.864 69.4239 39.472 69.4239 40.272V44.432C69.4239 44.6667 69.4719 44.8427 69.5679 44.96C69.6639 45.0773 69.8132 45.136 70.0159 45.136C70.1012 45.136 70.1919 45.12 70.2879 45.088C70.3839 45.056 70.4585 45.0133 70.5119 44.96L70.5919 45.936C70.4959 46 70.3625 46.0533 70.1919 46.096C70.0319 46.1387 69.8719 46.16 69.7119 46.16C69.4132 46.16 69.1519 46.1013 68.9279 45.984C68.7145 45.856 68.5492 45.6747 68.4319 45.44C68.3892 45.3547 68.3465 45.264 68.3039 45.168C68.2719 45.0613 68.2452 44.944 68.2239 44.816C68.0745 45.232 67.7865 45.5627 67.3599 45.808C66.9332 46.0533 66.4479 46.176 65.9039 46.176C65.1572 46.176 64.5545 45.9733 64.0959 45.568C63.6479 45.152 63.4239 44.6027 63.4239 43.92C63.4239 43.088 63.7652 42.448 64.4479 42C65.1412 41.552 66.1385 41.328 67.4399 41.328C67.5039 41.328 67.5839 41.3333 67.6799 41.344C67.7865 41.344 67.9572 41.3493 68.1919 41.36V40.416C68.1919 39.9253 68.0532 39.5467 67.7759 39.28C67.5092 39.0133 67.1199 38.88 66.6079 38.88C66.1172 38.88 65.7385 39.0027 65.4719 39.248C65.2052 39.4933 65.0612 39.8507 65.0399 40.32L63.7599 40.096C63.8452 39.392 64.1492 38.8373 64.6719 38.432C65.2052 38.016 65.8772 37.808 66.6879 37.808ZM74.2964 45.088C74.4244 45.088 74.547 45.072 74.6644 45.04C74.7924 44.9973 74.9097 44.9387 75.0164 44.864L75.1604 45.872C75.011 45.9573 74.8244 46.0267 74.6004 46.08C74.3764 46.1333 74.1577 46.16 73.9444 46.16C73.3897 46.16 72.9684 46.0213 72.6804 45.744C72.403 45.456 72.2644 45.04 72.2644 44.496V34.448H73.5764V44.352C73.5764 44.608 73.635 44.7947 73.7524 44.912C73.8697 45.0293 74.051 45.088 74.2964 45.088ZM84.0563 46.192C82.9576 46.192 82.0883 45.8187 81.4483 45.072C80.8083 44.3253 80.4883 43.3013 80.4883 42C80.4883 40.7093 80.8083 39.6907 81.4483 38.944C82.0883 38.1867 82.9576 37.808 84.0563 37.808C84.8563 37.808 85.5229 38.032 86.0563 38.48C86.5896 38.928 86.8989 39.52 86.9843 40.256L85.7843 40.48C85.7416 40 85.5603 39.6107 85.2403 39.312C84.9309 39.0027 84.5363 38.848 84.0563 38.848C83.3523 38.848 82.8029 39.1253 82.4083 39.68C82.0136 40.2347 81.8163 41.008 81.8163 42C81.8163 42.992 82.0136 43.7653 82.4083 44.32C82.8029 44.8747 83.3523 45.152 84.0563 45.152C84.5469 45.152 84.9469 45.0027 85.2563 44.704C85.5656 44.3947 85.7416 43.9893 85.7843 43.488L86.9843 43.712C86.8669 44.4907 86.5523 45.0987 86.0403 45.536C85.5283 45.9733 84.8669 46.192 84.0563 46.192ZM92.0879 37.808C93.1865 37.808 94.0559 38.1813 94.6959 38.928C95.3465 39.6747 95.6719 40.6987 95.6719 42C95.6719 43.3013 95.3465 44.3253 94.6959 45.072C94.0559 45.8187 93.1865 46.192 92.0879 46.192C90.9892 46.192 90.1145 45.8187 89.4639 45.072C88.8239 44.3253 88.5039 43.3013 88.5039 42C88.5039 40.6987 88.8239 39.6747 89.4639 38.928C90.1145 38.1813 90.9892 37.808 92.0879 37.808ZM92.0879 45.168C92.8239 45.168 93.3839 44.9013 93.7679 44.368C94.1519 43.824 94.3439 43.0347 94.3439 42C94.3439 40.9653 94.1519 40.1813 93.7679 39.648C93.3839 39.104 92.8239 38.832 92.0879 38.832C91.3519 38.832 90.7919 39.104 90.4079 39.648C90.0239 40.1813 89.8319 40.9653 89.8319 42C89.8319 43.0347 90.0239 43.824 90.4079 44.368C90.7919 44.9013 91.3519 45.168 92.0879 45.168ZM97.908 38H98.884L99.044 39.552C99.268 38.9973 99.6147 38.5707 100.084 38.272C100.553 37.9627 101.103 37.808 101.732 37.808C102.479 37.808 103.076 38.0427 103.524 38.512C103.972 38.9707 104.196 39.5947 104.196 40.384V46H102.884V40.656C102.884 40.112 102.745 39.696 102.468 39.408C102.201 39.1093 101.817 38.96 101.316 38.96C100.655 38.96 100.137 39.168 99.764 39.584C99.4013 40 99.22 40.592 99.22 41.36V46H97.908V38ZM106.939 38H107.915L108.075 39.552C108.299 38.9973 108.646 38.5707 109.115 38.272C109.585 37.9627 110.134 37.808 110.763 37.808C111.51 37.808 112.107 38.0427 112.555 38.512C113.003 38.9707 113.227 39.5947 113.227 40.384V46H111.915V40.656C111.915 40.112 111.777 39.696 111.499 39.408C111.233 39.1093 110.849 38.96 110.347 38.96C109.686 38.96 109.169 39.168 108.795 39.584C108.433 40 108.251 40.592 108.251 41.36V46H106.939V38ZM118.963 45.152C119.464 45.152 119.875 45.0293 120.195 44.784C120.515 44.5387 120.733 44.176 120.851 43.696L121.987 44.016C121.816 44.72 121.469 45.2587 120.947 45.632C120.424 46.0053 119.763 46.192 118.963 46.192C117.843 46.192 116.968 45.8293 116.339 45.104C115.709 44.3787 115.395 43.3547 115.395 42.032C115.395 40.7413 115.715 39.7173 116.355 38.96C117.005 38.192 117.875 37.808 118.963 37.808C119.912 37.808 120.664 38.1173 121.219 38.736C121.784 39.344 122.067 40.1547 122.067 41.168C122.067 41.3707 122.051 41.568 122.019 41.76C121.987 41.952 121.949 42.112 121.907 42.24H116.659C116.691 43.168 116.904 43.888 117.299 44.4C117.704 44.9013 118.259 45.152 118.963 45.152ZM118.931 38.816C118.301 38.816 117.789 39.0293 117.395 39.456C117.011 39.8827 116.776 40.4907 116.691 41.28H120.755C120.765 41.2267 120.771 41.1733 120.771 41.12C120.771 41.056 120.771 40.9707 120.771 40.864C120.771 40.256 120.6 39.7653 120.259 39.392C119.928 39.008 119.485 38.816 118.931 38.816ZM127.353 46.192C126.254 46.192 125.385 45.8187 124.745 45.072C124.105 44.3253 123.785 43.3013 123.785 42C123.785 40.7093 124.105 39.6907 124.745 38.944C125.385 38.1867 126.254 37.808 127.353 37.808C128.153 37.808 128.82 38.032 129.353 38.48C129.886 38.928 130.196 39.52 130.281 40.256L129.081 40.48C129.038 40 128.857 39.6107 128.537 39.312C128.228 39.0027 127.833 38.848 127.353 38.848C126.649 38.848 126.1 39.1253 125.705 39.68C125.31 40.2347 125.113 41.008 125.113 42C125.113 42.992 125.31 43.7653 125.705 44.32C126.1 44.8747 126.649 45.152 127.353 45.152C127.844 45.152 128.244 45.0027 128.553 44.704C128.862 44.3947 129.038 43.9893 129.081 43.488L130.281 43.712C130.164 44.4907 129.849 45.0987 129.337 45.536C128.825 45.9733 128.164 46.192 127.353 46.192ZM135.017 45.088C135.262 45.088 135.481 45.0613 135.673 45.008C135.865 44.944 136.083 44.832 136.329 44.672L136.569 45.712C136.334 45.8613 136.067 45.9787 135.769 46.064C135.481 46.1493 135.198 46.192 134.921 46.192C134.153 46.192 133.561 46.0053 133.145 45.632C132.739 45.248 132.537 44.6987 132.537 43.984V39.008H131.385V38H132.537V36.304L133.849 36.096V38H136.249V39.008H133.849V43.856C133.849 44.2613 133.945 44.5707 134.137 44.784C134.339 44.9867 134.633 45.088 135.017 45.088ZM139.158 34.608C139.424 34.608 139.648 34.6987 139.83 34.88C140.011 35.0613 140.102 35.2907 140.102 35.568C140.102 35.8453 140.011 36.0747 139.83 36.256C139.648 36.4373 139.424 36.528 139.158 36.528C138.891 36.528 138.667 36.4373 138.486 36.256C138.304 36.0747 138.214 35.8453 138.214 35.568C138.214 35.2907 138.304 35.0613 138.486 34.88C138.667 34.6987 138.891 34.608 139.158 34.608ZM138.502 46V38H139.814V46H138.502ZM145.635 37.808C146.733 37.808 147.603 38.1813 148.243 38.928C148.893 39.6747 149.219 40.6987 149.219 42C149.219 43.3013 148.893 44.3253 148.243 45.072C147.603 45.8187 146.733 46.192 145.635 46.192C144.536 46.192 143.661 45.8187 143.011 45.072C142.371 44.3253 142.051 43.3013 142.051 42C142.051 40.6987 142.371 39.6747 143.011 38.928C143.661 38.1813 144.536 37.808 145.635 37.808ZM145.635 45.168C146.371 45.168 146.931 44.9013 147.315 44.368C147.699 43.824 147.891 43.0347 147.891 42C147.891 40.9653 147.699 40.1813 147.315 39.648C146.931 39.104 146.371 38.832 145.635 38.832C144.899 38.832 144.339 39.104 143.955 39.648C143.571 40.1813 143.379 40.9653 143.379 42C143.379 43.0347 143.571 43.824 143.955 44.368C144.339 44.9013 144.899 45.168 145.635 45.168ZM151.455 38H152.431L152.591 39.552C152.815 38.9973 153.162 38.5707 153.631 38.272C154.1 37.9627 154.65 37.808 155.279 37.808C156.026 37.808 156.623 38.0427 157.071 38.512C157.519 38.9707 157.743 39.5947 157.743 40.384V46H156.431V40.656C156.431 40.112 156.292 39.696 156.015 39.408C155.748 39.1093 155.364 38.96 154.863 38.96C154.202 38.96 153.684 39.168 153.311 39.584C152.948 40 152.767 40.592 152.767 41.36V46H151.455V38ZM162.854 46.192C162.001 46.192 161.286 45.9947 160.71 45.6C160.145 45.2053 159.803 44.6667 159.686 43.984L160.886 43.648C160.95 44.096 161.163 44.464 161.526 44.752C161.899 45.04 162.342 45.184 162.854 45.184C163.409 45.184 163.835 45.0773 164.134 44.864C164.443 44.64 164.598 44.3253 164.598 43.92C164.598 43.5787 164.475 43.3067 164.23 43.104C163.995 42.9013 163.473 42.7093 162.662 42.528C162.129 42.4107 161.734 42.304 161.478 42.208C161.233 42.112 161.019 42.0053 160.838 41.888C160.571 41.696 160.369 41.4613 160.23 41.184C160.102 40.9067 160.038 40.5813 160.038 40.208C160.038 39.4827 160.294 38.9013 160.806 38.464C161.329 38.0267 162.006 37.808 162.838 37.808C163.713 37.808 164.39 38 164.87 38.384C165.361 38.7573 165.649 39.3067 165.734 40.032L164.502 40.208C164.459 39.76 164.294 39.4187 164.006 39.184C163.729 38.9387 163.339 38.816 162.838 38.816C162.347 38.816 161.963 38.9333 161.686 39.168C161.409 39.392 161.27 39.7067 161.27 40.112C161.27 40.4427 161.387 40.7093 161.622 40.912C161.857 41.104 162.374 41.2853 163.174 41.456C163.718 41.5733 164.118 41.68 164.374 41.776C164.63 41.8613 164.849 41.968 165.03 42.096C165.297 42.288 165.494 42.528 165.622 42.816C165.761 43.0933 165.83 43.4293 165.83 43.824C165.83 44.5493 165.558 45.1253 165.014 45.552C164.47 45.9787 163.75 46.192 162.854 46.192ZM36.7749 54.608C37.0416 54.608 37.2656 54.6987 37.4469 54.88C37.6283 55.0613 37.7189 55.2907 37.7189 55.568C37.7189 55.8453 37.6283 56.0747 37.4469 56.256C37.2656 56.4373 37.0416 56.528 36.7749 56.528C36.5083 56.528 36.2843 56.4373 36.1029 56.256C35.9216 56.0747 35.8309 55.8453 35.8309 55.568C35.8309 55.2907 35.9216 55.0613 36.1029 54.88C36.2843 54.6987 36.5083 54.608 36.7749 54.608ZM36.1189 66V58H37.4309V66H36.1189ZM40.2439 58H41.2199L41.3799 59.552C41.6039 58.9973 41.9506 58.5707 42.4199 58.272C42.8893 57.9627 43.4386 57.808 44.0679 57.808C44.8146 57.808 45.4119 58.0427 45.8599 58.512C46.3079 58.9707 46.5319 59.5947 46.5319 60.384V66H45.2199V60.656C45.2199 60.112 45.0813 59.696 44.8039 59.408C44.5373 59.1093 44.1533 58.96 43.6519 58.96C42.9906 58.96 42.4733 59.168 42.0999 59.584C41.7373 60 41.5559 60.592 41.5559 61.36V66H40.2439V58ZM56.2672 65.152C56.7685 65.152 57.1792 65.0293 57.4992 64.784C57.8192 64.5387 58.0379 64.176 58.1552 63.696L59.2912 64.016C59.1205 64.72 58.7739 65.2587 58.2512 65.632C57.7285 66.0053 57.0672 66.192 56.2672 66.192C55.1472 66.192 54.2725 65.8293 53.6432 65.104C53.0139 64.3787 52.6992 63.3547 52.6992 62.032C52.6992 60.7413 53.0192 59.7173 53.6592 58.96C54.3099 58.192 55.1792 57.808 56.2672 57.808C57.2165 57.808 57.9685 58.1173 58.5232 58.736C59.0885 59.344 59.3712 60.1547 59.3712 61.168C59.3712 61.3707 59.3552 61.568 59.3232 61.76C59.2912 61.952 59.2539 62.112 59.2112 62.24H53.9632C53.9952 63.168 54.2085 63.888 54.6032 64.4C55.0085 64.9013 55.5632 65.152 56.2672 65.152ZM56.2352 58.816C55.6059 58.816 55.0939 59.0293 54.6992 59.456C54.3152 59.8827 54.0805 60.4907 53.9952 61.28H58.0592C58.0699 61.2267 58.0752 61.1733 58.0752 61.12C58.0752 61.056 58.0752 60.9707 58.0752 60.864C58.0752 60.256 57.9045 59.7653 57.5632 59.392C57.2325 59.008 56.7899 58.816 56.2352 58.816ZM63.7157 65.168C64.313 65.168 64.793 64.976 65.1557 64.592C65.5184 64.208 65.6997 63.68 65.6997 63.008V62.336C65.561 62.3253 65.4277 62.32 65.2997 62.32C65.1717 62.3093 65.0544 62.304 64.9477 62.304C64.0304 62.304 63.3477 62.4373 62.8997 62.704C62.4517 62.96 62.2277 63.3493 62.2277 63.872C62.2277 64.2773 62.361 64.5973 62.6277 64.832C62.8944 65.056 63.257 65.168 63.7157 65.168ZM64.1957 57.808C65.081 57.808 65.7584 58.0213 66.2277 58.448C66.697 58.864 66.9317 59.472 66.9317 60.272V64.432C66.9317 64.6667 66.9797 64.8427 67.0757 64.96C67.1717 65.0773 67.321 65.136 67.5237 65.136C67.609 65.136 67.6997 65.12 67.7957 65.088C67.8917 65.056 67.9664 65.0133 68.0197 64.96L68.0997 65.936C68.0037 66 67.8704 66.0533 67.6997 66.096C67.5397 66.1387 67.3797 66.16 67.2197 66.16C66.921 66.16 66.6597 66.1013 66.4357 65.984C66.2224 65.856 66.057 65.6747 65.9397 65.44C65.897 65.3547 65.8544 65.264 65.8117 65.168C65.7797 65.0613 65.753 64.944 65.7317 64.816C65.5824 65.232 65.2944 65.5627 64.8677 65.808C64.441 66.0533 63.9557 66.176 63.4117 66.176C62.665 66.176 62.0624 65.9733 61.6037 65.568C61.1557 65.152 60.9317 64.6027 60.9317 63.92C60.9317 63.088 61.273 62.448 61.9557 62C62.649 61.552 63.6464 61.328 64.9477 61.328C65.0117 61.328 65.0917 61.3333 65.1877 61.344C65.2944 61.344 65.465 61.3493 65.6997 61.36V60.416C65.6997 59.9253 65.561 59.5467 65.2837 59.28C65.017 59.0133 64.6277 58.88 64.1157 58.88C63.625 58.88 63.2464 59.0027 62.9797 59.248C62.713 59.4933 62.569 59.8507 62.5477 60.32L61.2677 60.096C61.353 59.392 61.657 58.8373 62.1797 58.432C62.713 58.016 63.385 57.808 64.1957 57.808ZM69.9002 66V58H70.9402L71.1162 60.048C71.2655 59.376 71.5749 58.8373 72.0442 58.432C72.5135 58.016 73.0522 57.808 73.6602 57.808C73.7349 57.808 73.8095 57.8133 73.8842 57.824C73.9695 57.8347 74.0495 57.8453 74.1242 57.856L74.0442 59.232C73.9802 59.2213 73.8895 59.2107 73.7722 59.2C73.6549 59.1893 73.5322 59.184 73.4042 59.184C72.7429 59.184 72.2095 59.4347 71.8042 59.936C71.4095 60.4373 71.2122 61.1093 71.2122 61.952V66H69.9002ZM77.8042 65.088C77.9322 65.088 78.0549 65.072 78.1722 65.04C78.3002 64.9973 78.4175 64.9387 78.5242 64.864L78.6682 65.872C78.5189 65.9573 78.3322 66.0267 78.1082 66.08C77.8842 66.1333 77.6655 66.16 77.4522 66.16C76.8975 66.16 76.4762 66.0213 76.1882 65.744C75.9109 65.456 75.7722 65.04 75.7722 64.496V54.448H77.0842V64.352C77.0842 64.608 77.1429 64.7947 77.2602 64.912C77.3775 65.0293 77.5589 65.088 77.8042 65.088ZM83.0398 64.752H83.0718L85.3278 58H86.6398L83.5998 66.432C83.2158 67.488 82.8105 68.24 82.3838 68.688C81.9571 69.136 81.4185 69.36 80.7678 69.36C80.5758 69.36 80.3838 69.3333 80.1918 69.28C79.9998 69.2267 79.8185 69.152 79.6478 69.056L79.8398 67.968C80.0531 68.096 80.2185 68.176 80.3358 68.208C80.4638 68.2507 80.5971 68.272 80.7358 68.272C81.1305 68.272 81.4398 68.144 81.6638 67.888C81.8878 67.632 82.1385 67.1147 82.4158 66.336L79.4398 58H80.8318L83.0398 64.752ZM95.4703 66.192C94.3716 66.192 93.5023 65.8187 92.8623 65.072C92.2223 64.3253 91.9023 63.3013 91.9023 62C91.9023 60.7093 92.2223 59.6907 92.8623 58.944C93.5023 58.1867 94.3716 57.808 95.4703 57.808C96.2703 57.808 96.937 58.032 97.4703 58.48C98.0036 58.928 98.313 59.52 98.3983 60.256L97.1983 60.48C97.1556 60 96.9743 59.6107 96.6543 59.312C96.345 59.0027 95.9503 58.848 95.4703 58.848C94.7663 58.848 94.217 59.1253 93.8223 59.68C93.4276 60.2347 93.2303 61.008 93.2303 62C93.2303 62.992 93.4276 63.7653 93.8223 64.32C94.217 64.8747 94.7663 65.152 95.4703 65.152C95.961 65.152 96.361 65.0027 96.6703 64.704C96.9796 64.3947 97.1556 63.9893 97.1983 63.488L98.3983 63.712C98.281 64.4907 97.9663 65.0987 97.4543 65.536C96.9423 65.9733 96.281 66.192 95.4703 66.192ZM100.494 54.448H101.806V59.264C102.051 58.7947 102.387 58.4373 102.814 58.192C103.251 57.936 103.753 57.808 104.318 57.808C105.065 57.808 105.662 58.0427 106.11 58.512C106.558 58.9707 106.782 59.5947 106.782 60.384V66H105.47V60.656C105.47 60.112 105.331 59.696 105.054 59.408C104.787 59.1093 104.403 58.96 103.902 58.96C103.241 58.96 102.723 59.168 102.35 59.584C101.987 60 101.806 60.592 101.806 61.36V66H100.494V54.448ZM110.181 54.608C110.448 54.608 110.672 54.6987 110.853 54.88C111.035 55.0613 111.125 55.2907 111.125 55.568C111.125 55.8453 111.035 56.0747 110.853 56.256C110.672 56.4373 110.448 56.528 110.181 56.528C109.915 56.528 109.691 56.4373 109.509 56.256C109.328 56.0747 109.237 55.8453 109.237 55.568C109.237 55.2907 109.328 55.0613 109.509 54.88C109.691 54.6987 109.915 54.608 110.181 54.608ZM109.525 66V58H110.837V66H109.525ZM115.554 65.088C115.682 65.088 115.805 65.072 115.922 65.04C116.05 64.9973 116.168 64.9387 116.274 64.864L116.418 65.872C116.269 65.9573 116.082 66.0267 115.858 66.08C115.634 66.1333 115.416 66.16 115.202 66.16C114.648 66.16 114.226 66.0213 113.938 65.744C113.661 65.456 113.522 65.04 113.522 64.496V54.448H114.834V64.352C114.834 64.608 114.893 64.7947 115.01 64.912C115.128 65.0293 115.309 65.088 115.554 65.088ZM121.33 65.136C121.959 65.136 122.471 64.912 122.866 64.464C123.261 64.0053 123.458 63.3813 123.458 62.592V61.104C123.458 60.4213 123.255 59.8773 122.85 59.472C122.445 59.056 121.943 58.848 121.346 58.848C120.631 58.848 120.071 59.1307 119.666 59.696C119.271 60.2613 119.074 61.0667 119.074 62.112C119.074 63.072 119.271 63.8187 119.666 64.352C120.061 64.8747 120.615 65.136 121.33 65.136ZM124.77 66H123.73L123.586 64.48C123.405 65.0347 123.09 65.4613 122.642 65.76C122.194 66.048 121.65 66.192 121.01 66.192C120.039 66.192 119.25 65.8293 118.642 65.104C118.045 64.368 117.746 63.376 117.746 62.128C117.746 60.784 118.045 59.728 118.642 58.96C119.25 58.192 120.082 57.808 121.138 57.808C121.693 57.808 122.178 57.9253 122.594 58.16C123.01 58.3947 123.298 58.704 123.458 59.088V54.448H124.77V66ZM127.588 54.448H128.9V59.264C129.145 58.7947 129.481 58.4373 129.908 58.192C130.345 57.936 130.846 57.808 131.412 57.808C132.158 57.808 132.756 58.0427 133.204 58.512C133.652 58.9707 133.876 59.5947 133.876 60.384V66H132.564V60.656C132.564 60.112 132.425 59.696 132.148 59.408C131.881 59.1093 131.497 58.96 130.996 58.96C130.334 58.96 129.817 59.168 129.444 59.584C129.081 60 128.9 60.592 128.9 61.36V66H127.588V54.448ZM139.627 57.808C140.726 57.808 141.595 58.1813 142.235 58.928C142.886 59.6747 143.211 60.6987 143.211 62C143.211 63.3013 142.886 64.3253 142.235 65.072C141.595 65.8187 140.726 66.192 139.627 66.192C138.528 66.192 137.654 65.8187 137.003 65.072C136.363 64.3253 136.043 63.3013 136.043 62C136.043 60.6987 136.363 59.6747 137.003 58.928C137.654 58.1813 138.528 57.808 139.627 57.808ZM139.627 65.168C140.363 65.168 140.923 64.9013 141.307 64.368C141.691 63.824 141.883 63.0347 141.883 62C141.883 60.9653 141.691 60.1813 141.307 59.648C140.923 59.104 140.363 58.832 139.627 58.832C138.891 58.832 138.331 59.104 137.947 59.648C137.563 60.1813 137.371 60.9653 137.371 62C137.371 63.0347 137.563 63.824 137.947 64.368C138.331 64.9013 138.891 65.168 139.627 65.168ZM148.533 57.808C149.632 57.808 150.501 58.1813 151.141 58.928C151.792 59.6747 152.117 60.6987 152.117 62C152.117 63.3013 151.792 64.3253 151.141 65.072C150.501 65.8187 149.632 66.192 148.533 66.192C147.435 66.192 146.56 65.8187 145.909 65.072C145.269 64.3253 144.949 63.3013 144.949 62C144.949 60.6987 145.269 59.6747 145.909 58.928C146.56 58.1813 147.435 57.808 148.533 57.808ZM148.533 65.168C149.269 65.168 149.829 64.9013 150.213 64.368C150.597 63.824 150.789 63.0347 150.789 62C150.789 60.9653 150.597 60.1813 150.213 59.648C149.829 59.104 149.269 58.832 148.533 58.832C147.797 58.832 147.237 59.104 146.853 59.648C146.469 60.1813 146.277 60.9653 146.277 62C146.277 63.0347 146.469 63.824 146.853 64.368C147.237 64.9013 147.797 65.168 148.533 65.168ZM157.439 65.136C158.069 65.136 158.581 64.912 158.975 64.464C159.37 64.0053 159.567 63.3813 159.567 62.592V61.104C159.567 60.4213 159.365 59.8773 158.959 59.472C158.554 59.056 158.053 58.848 157.455 58.848C156.741 58.848 156.181 59.1307 155.775 59.696C155.381 60.2613 155.183 61.0667 155.183 62.112C155.183 63.072 155.381 63.8187 155.775 64.352C156.17 64.8747 156.725 65.136 157.439 65.136ZM160.879 66H159.839L159.695 64.48C159.514 65.0347 159.199 65.4613 158.751 65.76C158.303 66.048 157.759 66.192 157.119 66.192C156.149 66.192 155.359 65.8293 154.751 65.104C154.154 64.368 153.855 63.376 153.855 62.128C153.855 60.784 154.154 59.728 154.751 58.96C155.359 58.192 156.191 57.808 157.247 57.808C157.802 57.808 158.287 57.9253 158.703 58.16C159.119 58.3947 159.407 58.704 159.567 59.088V54.448H160.879V66Z" fill="#F86EFF"/>
<path d="M226.356 16.496V26H225.012V16.496H221.348V15.312H230.02V16.496H226.356ZM231.947 14.448H233.259V19.264C233.504 18.7947 233.84 18.4373 234.267 18.192C234.704 17.936 235.206 17.808 235.771 17.808C236.518 17.808 237.115 18.0427 237.563 18.512C238.011 18.9707 238.235 19.5947 238.235 20.384V26H236.923V20.656C236.923 20.112 236.784 19.696 236.507 19.408C236.24 19.1093 235.856 18.96 235.355 18.96C234.694 18.96 234.176 19.168 233.803 19.584C233.44 20 233.259 20.592 233.259 21.36V26H231.947V14.448ZM243.97 25.152C244.472 25.152 244.882 25.0293 245.202 24.784C245.522 24.5387 245.741 24.176 245.858 23.696L246.994 24.016C246.824 24.72 246.477 25.2587 245.954 25.632C245.432 26.0053 244.77 26.192 243.97 26.192C242.85 26.192 241.976 25.8293 241.346 25.104C240.717 24.3787 240.402 23.3547 240.402 22.032C240.402 20.7413 240.722 19.7173 241.362 18.96C242.013 18.192 242.882 17.808 243.97 17.808C244.92 17.808 245.672 18.1173 246.226 18.736C246.792 19.344 247.074 20.1547 247.074 21.168C247.074 21.3707 247.058 21.568 247.026 21.76C246.994 21.952 246.957 22.112 246.914 22.24H241.666C241.698 23.168 241.912 23.888 242.306 24.4C242.712 24.9013 243.266 25.152 243.97 25.152ZM243.938 18.816C243.309 18.816 242.797 19.0293 242.402 19.456C242.018 19.8827 241.784 20.4907 241.698 21.28H245.762C245.773 21.2267 245.778 21.1733 245.778 21.12C245.778 21.056 245.778 20.9707 245.778 20.864C245.778 20.256 245.608 19.7653 245.266 19.392C244.936 19.008 244.493 18.816 243.938 18.816ZM249.291 18H250.267L250.427 19.552C250.651 18.9973 250.997 18.5707 251.467 18.272C251.936 17.9627 252.485 17.808 253.115 17.808C253.861 17.808 254.459 18.0427 254.907 18.512C255.355 18.9707 255.579 19.5947 255.579 20.384V26H254.267V20.656C254.267 20.112 254.128 19.696 253.851 19.408C253.584 19.1093 253.2 18.96 252.699 18.96C252.037 18.96 251.52 19.168 251.147 19.584C250.784 20 250.603 20.592 250.603 21.36V26H249.291V18ZM264.722 26.192C263.783 26.192 263.005 26 262.386 25.616C261.767 25.232 261.373 24.688 261.202 23.984L263.41 23.488C263.463 23.7867 263.613 24.0267 263.858 24.208C264.103 24.3893 264.397 24.48 264.738 24.48C265.09 24.48 265.362 24.416 265.554 24.288C265.746 24.1493 265.842 23.9573 265.842 23.712C265.842 23.5093 265.746 23.3493 265.554 23.232C265.373 23.104 264.951 22.976 264.29 22.848C263.735 22.7413 263.319 22.64 263.042 22.544C262.775 22.448 262.546 22.336 262.354 22.208C262.055 22.016 261.831 21.776 261.682 21.488C261.543 21.1893 261.474 20.8373 261.474 20.432C261.474 19.6 261.789 18.9387 262.418 18.448C263.047 17.9573 263.874 17.712 264.898 17.712C265.858 17.712 266.626 17.9147 267.202 18.32C267.789 18.7253 268.141 19.3067 268.258 20.064L266.066 20.32C266.034 20.032 265.917 19.808 265.714 19.648C265.511 19.4773 265.245 19.392 264.914 19.392C264.605 19.392 264.365 19.4613 264.194 19.6C264.023 19.7387 263.938 19.9253 263.938 20.16C263.938 20.3627 264.029 20.528 264.21 20.656C264.402 20.7733 264.823 20.8907 265.474 21.008C266.05 21.1147 266.477 21.216 266.754 21.312C267.031 21.408 267.266 21.5253 267.458 21.664C267.757 21.856 267.975 22.1067 268.114 22.416C268.263 22.7147 268.338 23.072 268.338 23.488C268.338 24.3307 268.013 24.992 267.362 25.472C266.711 25.952 265.831 26.192 264.722 26.192ZM273.621 24.08C273.834 24.08 274.037 24.048 274.229 23.984C274.421 23.92 274.624 23.8133 274.837 23.664L275.173 25.52C274.885 25.7333 274.549 25.8987 274.165 26.016C273.792 26.1333 273.392 26.192 272.965 26.192C272.037 26.192 271.322 25.9573 270.821 25.488C270.32 25.0187 270.069 24.3413 270.069 23.456V19.84H269.029V17.904H270.085V16.192L272.725 15.872V17.904H274.821V19.84H272.709V23.104C272.709 23.424 272.784 23.6693 272.933 23.84C273.093 24 273.322 24.08 273.621 24.08ZM276.421 26V17.904H278.709L279.013 19.744C279.162 19.1147 279.445 18.624 279.861 18.272C280.287 17.9093 280.805 17.728 281.413 17.728C281.498 17.728 281.583 17.7333 281.669 17.744C281.765 17.744 281.861 17.7547 281.957 17.776L281.829 20.448C281.701 20.3947 281.546 20.352 281.365 20.32C281.194 20.288 281.013 20.272 280.821 20.272C280.287 20.272 279.861 20.448 279.541 20.8C279.221 21.152 279.061 21.6427 279.061 22.272V26H276.421ZM286.645 24.24C286.987 24.24 287.269 24.1547 287.493 23.984C287.717 23.8027 287.877 23.5413 287.973 23.2L290.117 23.936C289.893 24.6507 289.467 25.2053 288.837 25.6C288.219 25.9947 287.472 26.192 286.597 26.192C285.36 26.192 284.384 25.824 283.669 25.088C282.955 24.3413 282.597 23.3227 282.597 22.032C282.597 20.6987 282.96 19.648 283.685 18.88C284.411 18.1013 285.403 17.712 286.661 17.712C287.749 17.712 288.608 18.0427 289.237 18.704C289.867 19.3653 290.181 20.2453 290.181 21.344C290.181 21.5147 290.165 21.7013 290.133 21.904C290.112 22.1067 290.08 22.2773 290.037 22.416H285.125C285.136 22.9813 285.275 23.4293 285.541 23.76C285.819 24.08 286.187 24.24 286.645 24.24ZM286.597 19.568C286.192 19.568 285.861 19.712 285.605 20C285.349 20.2773 285.2 20.6667 285.157 21.168H287.717C287.728 21.1253 287.733 21.0827 287.733 21.04C287.744 20.9867 287.749 20.9067 287.749 20.8C287.749 20.4373 287.643 20.144 287.429 19.92C287.227 19.6853 286.949 19.568 286.597 19.568ZM291.608 17.904H293.864L294.184 19.456C294.376 18.9013 294.701 18.4747 295.16 18.176C295.619 17.8667 296.157 17.712 296.776 17.712C297.555 17.712 298.168 17.9467 298.616 18.416C299.075 18.8747 299.304 19.5147 299.304 20.336V26H296.664V21.184C296.664 20.7467 296.573 20.4267 296.392 20.224C296.221 20.0107 295.96 19.904 295.608 19.904C295.181 19.904 294.845 20.0533 294.6 20.352C294.365 20.6507 294.248 21.072 294.248 21.616V26H291.608V17.904ZM304.5 19.232C304.148 19.232 303.876 19.3387 303.684 19.552C303.502 19.7547 303.412 20.048 303.412 20.432C303.412 20.8053 303.508 21.0987 303.7 21.312C303.892 21.5253 304.158 21.632 304.5 21.632C304.841 21.632 305.102 21.5307 305.284 21.328C305.476 21.1147 305.572 20.816 305.572 20.432C305.572 20.048 305.476 19.7547 305.284 19.552C305.102 19.3387 304.841 19.232 304.5 19.232ZM308.996 26.352C308.996 27.3013 308.564 28.0373 307.7 28.56C306.836 29.0933 305.678 29.36 304.228 29.36C303.022 29.36 302.068 29.184 301.364 28.832C300.66 28.48 300.308 27.984 300.308 27.344C300.308 26.9387 300.462 26.5973 300.772 26.32C301.081 26.0533 301.508 25.8827 302.052 25.808C301.689 25.7013 301.406 25.52 301.204 25.264C301.001 24.9973 300.9 24.6773 300.9 24.304C300.9 23.92 301.033 23.584 301.3 23.296C301.566 23.008 301.924 22.8107 302.372 22.704C301.87 22.48 301.486 22.176 301.22 21.792C300.964 21.408 300.836 20.96 300.836 20.448C300.836 19.5947 301.161 18.928 301.812 18.448C302.462 17.9573 303.358 17.712 304.5 17.712C304.905 17.712 305.294 17.7547 305.668 17.84C306.041 17.9147 306.388 18.032 306.708 18.192C306.814 18.064 306.905 17.888 306.98 17.664C307.054 17.44 307.108 17.1787 307.14 16.88L309.236 17.568C309.182 17.9413 309.017 18.2613 308.74 18.528C308.473 18.7947 308.142 18.976 307.748 19.072C307.886 19.2747 307.993 19.4933 308.068 19.728C308.142 19.952 308.18 20.192 308.18 20.448C308.18 21.2907 307.849 21.9467 307.188 22.416C306.526 22.8853 305.63 23.12 304.5 23.12C304.286 23.12 304.084 23.1147 303.892 23.104C303.7 23.0827 303.518 23.0507 303.348 23.008C303.22 23.072 303.124 23.1467 303.06 23.232C302.996 23.3173 302.964 23.4133 302.964 23.52C302.964 23.648 303.012 23.7493 303.108 23.824C303.204 23.888 303.342 23.92 303.524 23.92H305.668C306.766 23.92 307.593 24.128 308.148 24.544C308.713 24.9493 308.996 25.552 308.996 26.352ZM302.436 26.896C302.436 27.184 302.596 27.4027 302.916 27.552C303.246 27.712 303.716 27.792 304.324 27.792C305.092 27.792 305.678 27.7067 306.084 27.536C306.489 27.376 306.692 27.1413 306.692 26.832C306.692 26.6187 306.601 26.4587 306.42 26.352C306.249 26.2453 305.993 26.192 305.652 26.192H303.364C303.076 26.192 302.846 26.2507 302.676 26.368C302.516 26.496 302.436 26.672 302.436 26.896ZM314.027 24.08C314.241 24.08 314.443 24.048 314.635 23.984C314.827 23.92 315.03 23.8133 315.243 23.664L315.579 25.52C315.291 25.7333 314.955 25.8987 314.571 26.016C314.198 26.1333 313.798 26.192 313.371 26.192C312.443 26.192 311.729 25.9573 311.227 25.488C310.726 25.0187 310.475 24.3413 310.475 23.456V19.84H309.435V17.904H310.491V16.192L313.131 15.872V17.904H315.227V19.84H313.115V23.104C313.115 23.424 313.19 23.6693 313.339 23.84C313.499 24 313.729 24.08 314.027 24.08ZM316.827 14.448H319.467V19.344C319.68 18.8213 320.005 18.4213 320.443 18.144C320.891 17.856 321.408 17.712 321.995 17.712C322.773 17.712 323.387 17.9467 323.835 18.416C324.293 18.8747 324.523 19.5147 324.523 20.336V26H321.883V21.184C321.883 20.7467 321.792 20.4267 321.611 20.224C321.44 20.0107 321.179 19.904 320.827 19.904C320.4 19.904 320.064 20.0533 319.819 20.352C319.584 20.6507 319.467 21.072 319.467 21.616V26H316.827V14.448ZM329.926 24.24C330.268 24.24 330.55 24.1547 330.774 23.984C330.998 23.8027 331.158 23.5413 331.254 23.2L333.398 23.936C333.174 24.6507 332.748 25.2053 332.118 25.6C331.5 25.9947 330.753 26.192 329.878 26.192C328.641 26.192 327.665 25.824 326.95 25.088C326.236 24.3413 325.878 23.3227 325.878 22.032C325.878 20.6987 326.241 19.648 326.966 18.88C327.692 18.1013 328.684 17.712 329.942 17.712C331.03 17.712 331.889 18.0427 332.518 18.704C333.148 19.3653 333.462 20.2453 333.462 21.344C333.462 21.5147 333.446 21.7013 333.414 21.904C333.393 22.1067 333.361 22.2773 333.318 22.416H328.406C328.417 22.9813 328.556 23.4293 328.822 23.76C329.1 24.08 329.468 24.24 329.926 24.24ZM329.878 19.568C329.473 19.568 329.142 19.712 328.886 20C328.63 20.2773 328.481 20.6667 328.438 21.168H330.998C331.009 21.1253 331.014 21.0827 331.014 21.04C331.025 20.9867 331.03 20.9067 331.03 20.8C331.03 20.4373 330.924 20.144 330.71 19.92C330.508 19.6853 330.23 19.568 329.878 19.568ZM334.889 17.904H337.145L337.465 19.456C337.657 18.9013 337.983 18.4747 338.441 18.176C338.9 17.8667 339.439 17.712 340.057 17.712C340.836 17.712 341.449 17.9467 341.897 18.416C342.356 18.8747 342.585 19.5147 342.585 20.336V26H339.945V21.184C339.945 20.7467 339.855 20.4267 339.673 20.224C339.503 20.0107 339.241 19.904 338.889 19.904C338.463 19.904 338.127 20.0533 337.881 20.352C337.647 20.6507 337.529 21.072 337.529 21.616V26H334.889V17.904ZM347.269 26.192C346.33 26.192 345.552 26 344.933 25.616C344.314 25.232 343.92 24.688 343.749 23.984L345.957 23.488C346.01 23.7867 346.16 24.0267 346.405 24.208C346.65 24.3893 346.944 24.48 347.285 24.48C347.637 24.48 347.909 24.416 348.101 24.288C348.293 24.1493 348.389 23.9573 348.389 23.712C348.389 23.5093 348.293 23.3493 348.101 23.232C347.92 23.104 347.498 22.976 346.837 22.848C346.282 22.7413 345.866 22.64 345.589 22.544C345.322 22.448 345.093 22.336 344.901 22.208C344.602 22.016 344.378 21.776 344.229 21.488C344.09 21.1893 344.021 20.8373 344.021 20.432C344.021 19.6 344.336 18.9387 344.965 18.448C345.594 17.9573 346.421 17.712 347.445 17.712C348.405 17.712 349.173 17.9147 349.749 18.32C350.336 18.7253 350.688 19.3067 350.805 20.064L348.613 20.32C348.581 20.032 348.464 19.808 348.261 19.648C348.058 19.4773 347.792 19.392 347.461 19.392C347.152 19.392 346.912 19.4613 346.741 19.6C346.57 19.7387 346.485 19.9253 346.485 20.16C346.485 20.3627 346.576 20.528 346.757 20.656C346.949 20.7733 347.37 20.8907 348.021 21.008C348.597 21.1147 349.024 21.216 349.301 21.312C349.578 21.408 349.813 21.5253 350.005 21.664C350.304 21.856 350.522 22.1067 350.661 22.416C350.81 22.7147 350.885 23.072 350.885 23.488C350.885 24.3307 350.56 24.992 349.909 25.472C349.258 25.952 348.378 26.192 347.269 26.192ZM359.752 17.808C360.851 17.808 361.72 18.1813 362.36 18.928C363.011 19.6747 363.336 20.6987 363.336 22C363.336 23.3013 363.011 24.3253 362.36 25.072C361.72 25.8187 360.851 26.192 359.752 26.192C358.653 26.192 357.779 25.8187 357.128 25.072C356.488 24.3253 356.168 23.3013 356.168 22C356.168 20.6987 356.488 19.6747 357.128 18.928C357.779 18.1813 358.653 17.808 359.752 17.808ZM359.752 25.168C360.488 25.168 361.048 24.9013 361.432 24.368C361.816 23.824 362.008 23.0347 362.008 22C362.008 20.9653 361.816 20.1813 361.432 19.648C361.048 19.104 360.488 18.832 359.752 18.832C359.016 18.832 358.456 19.104 358.072 19.648C357.688 20.1813 357.496 20.9653 357.496 22C357.496 23.0347 357.688 23.824 358.072 24.368C358.456 24.9013 359.016 25.168 359.752 25.168ZM365.572 26V18H366.612L366.788 20.048C366.937 19.376 367.247 18.8373 367.716 18.432C368.185 18.016 368.724 17.808 369.332 17.808C369.407 17.808 369.481 17.8133 369.556 17.824C369.641 17.8347 369.721 17.8453 369.796 17.856L369.716 19.232C369.652 19.2213 369.561 19.2107 369.444 19.2C369.327 19.1893 369.204 19.184 369.076 19.184C368.415 19.184 367.881 19.4347 367.476 19.936C367.081 20.4373 366.884 21.1093 366.884 21.952V26H365.572ZM282.955 46.192C281.856 46.192 280.987 45.8187 280.347 45.072C279.707 44.3253 279.387 43.3013 279.387 42C279.387 40.7093 279.707 39.6907 280.347 38.944C280.987 38.1867 281.856 37.808 282.955 37.808C283.755 37.808 284.421 38.032 284.955 38.48C285.488 38.928 285.797 39.52 285.883 40.256L284.683 40.48C284.64 40 284.459 39.6107 284.139 39.312C283.829 39.0027 283.435 38.848 282.955 38.848C282.251 38.848 281.701 39.1253 281.307 39.68C280.912 40.2347 280.715 41.008 280.715 42C280.715 42.992 280.912 43.7653 281.307 44.32C281.701 44.8747 282.251 45.152 282.955 45.152C283.445 45.152 283.845 45.0027 284.155 44.704C284.464 44.3947 284.64 43.9893 284.683 43.488L285.883 43.712C285.765 44.4907 285.451 45.0987 284.939 45.536C284.427 45.9733 283.765 46.192 282.955 46.192ZM290.986 37.808C292.085 37.808 292.954 38.1813 293.594 38.928C294.245 39.6747 294.57 40.6987 294.57 42C294.57 43.3013 294.245 44.3253 293.594 45.072C292.954 45.8187 292.085 46.192 290.986 46.192C289.888 46.192 289.013 45.8187 288.362 45.072C287.722 44.3253 287.402 43.3013 287.402 42C287.402 40.6987 287.722 39.6747 288.362 38.928C289.013 38.1813 289.888 37.808 290.986 37.808ZM290.986 45.168C291.722 45.168 292.282 44.9013 292.666 44.368C293.05 43.824 293.242 43.0347 293.242 42C293.242 40.9653 293.05 40.1813 292.666 39.648C292.282 39.104 291.722 38.832 290.986 38.832C290.25 38.832 289.69 39.104 289.306 39.648C288.922 40.1813 288.73 40.9653 288.73 42C288.73 43.0347 288.922 43.824 289.306 44.368C289.69 44.9013 290.25 45.168 290.986 45.168ZM296.806 38H297.782L297.942 39.552C298.166 38.9973 298.513 38.5707 298.982 38.272C299.452 37.9627 300.001 37.808 300.63 37.808C301.377 37.808 301.974 38.0427 302.422 38.512C302.87 38.9707 303.094 39.5947 303.094 40.384V46H301.782V40.656C301.782 40.112 301.644 39.696 301.366 39.408C301.1 39.1093 300.716 38.96 300.214 38.96C299.553 38.96 299.036 39.168 298.662 39.584C298.3 40 298.118 40.592 298.118 41.36V46H296.806V38ZM305.838 38H306.814L306.974 39.552C307.198 38.9973 307.544 38.5707 308.014 38.272C308.483 37.9627 309.032 37.808 309.662 37.808C310.408 37.808 311.006 38.0427 311.454 38.512C311.902 38.9707 312.126 39.5947 312.126 40.384V46H310.814V40.656C310.814 40.112 310.675 39.696 310.398 39.408C310.131 39.1093 309.747 38.96 309.246 38.96C308.584 38.96 308.067 39.168 307.694 39.584C307.331 40 307.15 40.592 307.15 41.36V46H305.838V38ZM317.861 45.152C318.362 45.152 318.773 45.0293 319.093 44.784C319.413 44.5387 319.632 44.176 319.749 43.696L320.885 44.016C320.714 44.72 320.368 45.2587 319.845 45.632C319.322 46.0053 318.661 46.192 317.861 46.192C316.741 46.192 315.866 45.8293 315.237 45.104C314.608 44.3787 314.293 43.3547 314.293 42.032C314.293 40.7413 314.613 39.7173 315.253 38.96C315.904 38.192 316.773 37.808 317.861 37.808C318.81 37.808 319.562 38.1173 320.117 38.736C320.682 39.344 320.965 40.1547 320.965 41.168C320.965 41.3707 320.949 41.568 320.917 41.76C320.885 41.952 320.848 42.112 320.805 42.24H315.557C315.589 43.168 315.802 43.888 316.197 44.4C316.602 44.9013 317.157 45.152 317.861 45.152ZM317.829 38.816C317.2 38.816 316.688 39.0293 316.293 39.456C315.909 39.8827 315.674 40.4907 315.589 41.28H319.653C319.664 41.2267 319.669 41.1733 319.669 41.12C319.669 41.056 319.669 40.9707 319.669 40.864C319.669 40.256 319.498 39.7653 319.157 39.392C318.826 39.008 318.384 38.816 317.829 38.816ZM326.252 46.192C325.153 46.192 324.284 45.8187 323.644 45.072C323.004 44.3253 322.684 43.3013 322.684 42C322.684 40.7093 323.004 39.6907 323.644 38.944C324.284 38.1867 325.153 37.808 326.252 37.808C327.052 37.808 327.718 38.032 328.252 38.48C328.785 38.928 329.094 39.52 329.18 40.256L327.98 40.48C327.937 40 327.756 39.6107 327.436 39.312C327.126 39.0027 326.732 38.848 326.252 38.848C325.548 38.848 324.998 39.1253 324.604 39.68C324.209 40.2347 324.012 41.008 324.012 42C324.012 42.992 324.209 43.7653 324.604 44.32C324.998 44.8747 325.548 45.152 326.252 45.152C326.742 45.152 327.142 45.0027 327.452 44.704C327.761 44.3947 327.937 43.9893 327.98 43.488L329.18 43.712C329.062 44.4907 328.748 45.0987 328.236 45.536C327.724 45.9733 327.062 46.192 326.252 46.192ZM333.915 45.088C334.161 45.088 334.379 45.0613 334.571 45.008C334.763 44.944 334.982 44.832 335.227 44.672L335.467 45.712C335.233 45.8613 334.966 45.9787 334.667 46.064C334.379 46.1493 334.097 46.192 333.819 46.192C333.051 46.192 332.459 46.0053 332.043 45.632C331.638 45.248 331.435 44.6987 331.435 43.984V39.008H330.283V38H331.435V36.304L332.747 36.096V38H335.147V39.008H332.747V43.856C332.747 44.2613 332.843 44.5707 333.035 44.784C333.238 44.9867 333.531 45.088 333.915 45.088ZM338.056 34.608C338.323 34.608 338.547 34.6987 338.728 34.88C338.91 35.0613 339 35.2907 339 35.568C339 35.8453 338.91 36.0747 338.728 36.256C338.547 36.4373 338.323 36.528 338.056 36.528C337.79 36.528 337.566 36.4373 337.384 36.256C337.203 36.0747 337.112 35.8453 337.112 35.568C337.112 35.2907 337.203 35.0613 337.384 34.88C337.566 34.6987 337.79 34.608 338.056 34.608ZM337.4 46V38H338.712V46H337.4ZM344.533 37.808C345.632 37.808 346.501 38.1813 347.141 38.928C347.792 39.6747 348.117 40.6987 348.117 42C348.117 43.3013 347.792 44.3253 347.141 45.072C346.501 45.8187 345.632 46.192 344.533 46.192C343.435 46.192 342.56 45.8187 341.909 45.072C341.269 44.3253 340.949 43.3013 340.949 42C340.949 40.6987 341.269 39.6747 341.909 38.928C342.56 38.1813 343.435 37.808 344.533 37.808ZM344.533 45.168C345.269 45.168 345.829 44.9013 346.213 44.368C346.597 43.824 346.789 43.0347 346.789 42C346.789 40.9653 346.597 40.1813 346.213 39.648C345.829 39.104 345.269 38.832 344.533 38.832C343.797 38.832 343.237 39.104 342.853 39.648C342.469 40.1813 342.277 40.9653 342.277 42C342.277 43.0347 342.469 43.824 342.853 44.368C343.237 44.9013 343.797 45.168 344.533 45.168ZM350.353 38H351.329L351.489 39.552C351.713 38.9973 352.06 38.5707 352.529 38.272C352.999 37.9627 353.548 37.808 354.177 37.808C354.924 37.808 355.521 38.0427 355.969 38.512C356.417 38.9707 356.641 39.5947 356.641 40.384V46H355.329V40.656C355.329 40.112 355.191 39.696 354.913 39.408C354.647 39.1093 354.263 38.96 353.761 38.96C353.1 38.96 352.583 39.168 352.209 39.584C351.847 40 351.665 40.592 351.665 41.36V46H350.353V38ZM361.753 46.192C360.899 46.192 360.185 45.9947 359.609 45.6C359.043 45.2053 358.702 44.6667 358.585 43.984L359.785 43.648C359.849 44.096 360.062 44.464 360.425 44.752C360.798 45.04 361.241 45.184 361.753 45.184C362.307 45.184 362.734 45.0773 363.033 44.864C363.342 44.64 363.497 44.3253 363.497 43.92C363.497 43.5787 363.374 43.3067 363.129 43.104C362.894 42.9013 362.371 42.7093 361.561 42.528C361.027 42.4107 360.633 42.304 360.377 42.208C360.131 42.112 359.918 42.0053 359.737 41.888C359.47 41.696 359.267 41.4613 359.129 41.184C359.001 40.9067 358.937 40.5813 358.937 40.208C358.937 39.4827 359.193 38.9013 359.705 38.464C360.227 38.0267 360.905 37.808 361.737 37.808C362.611 37.808 363.289 38 363.769 38.384C364.259 38.7573 364.547 39.3067 364.633 40.032L363.401 40.208C363.358 39.76 363.193 39.4187 362.905 39.184C362.627 38.9387 362.238 38.816 361.737 38.816C361.246 38.816 360.862 38.9333 360.585 39.168C360.307 39.392 360.169 39.7067 360.169 40.112C360.169 40.4427 360.286 40.7093 360.521 40.912C360.755 41.104 361.273 41.2853 362.073 41.456C362.617 41.5733 363.017 41.68 363.273 41.776C363.529 41.8613 363.747 41.968 363.929 42.096C364.195 42.288 364.393 42.528 364.521 42.816C364.659 43.0933 364.729 43.4293 364.729 43.824C364.729 44.5493 364.457 45.1253 363.913 45.552C363.369 45.9787 362.649 46.192 361.753 46.192ZM220.017 54.448H221.329V59.312C221.479 58.864 221.772 58.5013 222.209 58.224C222.647 57.9467 223.137 57.808 223.681 57.808C224.737 57.808 225.559 58.1813 226.145 58.928C226.743 59.6747 227.041 60.6987 227.041 62C227.041 63.2373 226.727 64.2453 226.097 65.024C225.468 65.8027 224.636 66.192 223.601 66.192C222.983 66.192 222.455 66.0373 222.017 65.728C221.591 65.4187 221.313 65.0027 221.185 64.48L221.057 66H220.017V54.448ZM223.409 58.864C222.801 58.864 222.3 59.0987 221.905 59.568C221.521 60.0267 221.329 60.656 221.329 61.456V62.64C221.329 63.4293 221.516 64.048 221.889 64.496C222.273 64.9333 222.78 65.152 223.409 65.152C224.124 65.152 224.684 64.8747 225.089 64.32C225.505 63.7653 225.713 62.992 225.713 62C225.713 60.976 225.516 60.1973 225.121 59.664C224.727 59.1307 224.156 58.864 223.409 58.864ZM231.411 65.168C232.008 65.168 232.488 64.976 232.851 64.592C233.214 64.208 233.395 63.68 233.395 63.008V62.336C233.256 62.3253 233.123 62.32 232.995 62.32C232.867 62.3093 232.75 62.304 232.643 62.304C231.726 62.304 231.043 62.4373 230.595 62.704C230.147 62.96 229.923 63.3493 229.923 63.872C229.923 64.2773 230.056 64.5973 230.323 64.832C230.59 65.056 230.952 65.168 231.411 65.168ZM231.891 57.808C232.776 57.808 233.454 58.0213 233.923 58.448C234.392 58.864 234.627 59.472 234.627 60.272V64.432C234.627 64.6667 234.675 64.8427 234.771 64.96C234.867 65.0773 235.016 65.136 235.219 65.136C235.304 65.136 235.395 65.12 235.491 65.088C235.587 65.056 235.662 65.0133 235.715 64.96L235.795 65.936C235.699 66 235.566 66.0533 235.395 66.096C235.235 66.1387 235.075 66.16 234.915 66.16C234.616 66.16 234.355 66.1013 234.131 65.984C233.918 65.856 233.752 65.6747 233.635 65.44C233.592 65.3547 233.55 65.264 233.507 65.168C233.475 65.0613 233.448 64.944 233.427 64.816C233.278 65.232 232.99 65.5627 232.563 65.808C232.136 66.0533 231.651 66.176 231.107 66.176C230.36 66.176 229.758 65.9733 229.299 65.568C228.851 65.152 228.627 64.6027 228.627 63.92C228.627 63.088 228.968 62.448 229.651 62C230.344 61.552 231.342 61.328 232.643 61.328C232.707 61.328 232.787 61.3333 232.883 61.344C232.99 61.344 233.16 61.3493 233.395 61.36V60.416C233.395 59.9253 233.256 59.5467 232.979 59.28C232.712 59.0133 232.323 58.88 231.811 58.88C231.32 58.88 230.942 59.0027 230.675 59.248C230.408 59.4933 230.264 59.8507 230.243 60.32L228.963 60.096C229.048 59.392 229.352 58.8373 229.875 58.432C230.408 58.016 231.08 57.808 231.891 57.808ZM239.964 66.192C239.11 66.192 238.396 65.9947 237.82 65.6C237.254 65.2053 236.913 64.6667 236.796 63.984L237.996 63.648C238.06 64.096 238.273 64.464 238.636 64.752C239.009 65.04 239.452 65.184 239.964 65.184C240.518 65.184 240.945 65.0773 241.244 64.864C241.553 64.64 241.708 64.3253 241.708 63.92C241.708 63.5787 241.585 63.3067 241.34 63.104C241.105 62.9013 240.582 62.7093 239.772 62.528C239.238 62.4107 238.844 62.304 238.588 62.208C238.342 62.112 238.129 62.0053 237.948 61.888C237.681 61.696 237.478 61.4613 237.34 61.184C237.212 60.9067 237.148 60.5813 237.148 60.208C237.148 59.4827 237.404 58.9013 237.916 58.464C238.438 58.0267 239.116 57.808 239.948 57.808C240.822 57.808 241.5 58 241.98 58.384C242.47 58.7573 242.758 59.3067 242.844 60.032L241.612 60.208C241.569 59.76 241.404 59.4187 241.116 59.184C240.838 58.9387 240.449 58.816 239.948 58.816C239.457 58.816 239.073 58.9333 238.796 59.168C238.518 59.392 238.38 59.7067 238.38 60.112C238.38 60.4427 238.497 60.7093 238.732 60.912C238.966 61.104 239.484 61.2853 240.284 61.456C240.828 61.5733 241.228 61.68 241.484 61.776C241.74 61.8613 241.958 61.968 242.14 62.096C242.406 62.288 242.604 62.528 242.732 62.816C242.87 63.0933 242.94 63.4293 242.94 63.824C242.94 64.5493 242.668 65.1253 242.124 65.552C241.58 65.9787 240.86 66.192 239.964 66.192ZM248.103 65.152C248.604 65.152 249.015 65.0293 249.335 64.784C249.655 64.5387 249.874 64.176 249.991 63.696L251.127 64.016C250.956 64.72 250.61 65.2587 250.087 65.632C249.564 66.0053 248.903 66.192 248.103 66.192C246.983 66.192 246.108 65.8293 245.479 65.104C244.85 64.3787 244.535 63.3547 244.535 62.032C244.535 60.7413 244.855 59.7173 245.495 58.96C246.146 58.192 247.015 57.808 248.103 57.808C249.052 57.808 249.804 58.1173 250.359 58.736C250.924 59.344 251.207 60.1547 251.207 61.168C251.207 61.3707 251.191 61.568 251.159 61.76C251.127 61.952 251.09 62.112 251.047 62.24H245.799C245.831 63.168 246.044 63.888 246.439 64.4C246.844 64.9013 247.399 65.152 248.103 65.152ZM248.071 58.816C247.442 58.816 246.93 59.0293 246.535 59.456C246.151 59.8827 245.916 60.4907 245.831 61.28H249.895C249.906 61.2267 249.911 61.1733 249.911 61.12C249.911 61.056 249.911 60.9707 249.911 60.864C249.911 60.256 249.74 59.7653 249.399 59.392C249.068 59.008 248.626 58.816 248.071 58.816ZM256.51 65.136C257.139 65.136 257.651 64.912 258.046 64.464C258.44 64.0053 258.638 63.3813 258.638 62.592V61.104C258.638 60.4213 258.435 59.8773 258.03 59.472C257.624 59.056 257.123 58.848 256.526 58.848C255.811 58.848 255.251 59.1307 254.846 59.696C254.451 60.2613 254.254 61.0667 254.254 62.112C254.254 63.072 254.451 63.8187 254.846 64.352C255.24 64.8747 255.795 65.136 256.51 65.136ZM259.95 66H258.91L258.766 64.48C258.584 65.0347 258.27 65.4613 257.822 65.76C257.374 66.048 256.83 66.192 256.19 66.192C255.219 66.192 254.43 65.8293 253.822 65.104C253.224 64.368 252.926 63.376 252.926 62.128C252.926 60.784 253.224 59.728 253.822 58.96C254.43 58.192 255.262 57.808 256.318 57.808C256.872 57.808 257.358 57.9253 257.774 58.16C258.19 58.3947 258.478 58.704 258.638 59.088V54.448H259.95V66ZM269.775 57.808C270.874 57.808 271.743 58.1813 272.383 58.928C273.034 59.6747 273.359 60.6987 273.359 62C273.359 63.3013 273.034 64.3253 272.383 65.072C271.743 65.8187 270.874 66.192 269.775 66.192C268.677 66.192 267.802 65.8187 267.151 65.072C266.511 64.3253 266.191 63.3013 266.191 62C266.191 60.6987 266.511 59.6747 267.151 58.928C267.802 58.1813 268.677 57.808 269.775 57.808ZM269.775 65.168C270.511 65.168 271.071 64.9013 271.455 64.368C271.839 63.824 272.031 63.0347 272.031 62C272.031 60.9653 271.839 60.1813 271.455 59.648C271.071 59.104 270.511 58.832 269.775 58.832C269.039 58.832 268.479 59.104 268.095 59.648C267.711 60.1813 267.519 60.9653 267.519 62C267.519 63.0347 267.711 63.824 268.095 64.368C268.479 64.9013 269.039 65.168 269.775 65.168ZM275.596 58H276.572L276.732 59.552C276.956 58.9973 277.302 58.5707 277.772 58.272C278.241 57.9627 278.79 57.808 279.42 57.808C280.166 57.808 280.764 58.0427 281.212 58.512C281.66 58.9707 281.884 59.5947 281.884 60.384V66H280.572V60.656C280.572 60.112 280.433 59.696 280.156 59.408C279.889 59.1093 279.505 58.96 279.004 58.96C278.342 58.96 277.825 59.168 277.452 59.584C277.089 60 276.908 60.592 276.908 61.36V66H275.596V58ZM291.619 65.152C292.12 65.152 292.531 65.0293 292.851 64.784C293.171 64.5387 293.389 64.176 293.507 63.696L294.643 64.016C294.472 64.72 294.125 65.2587 293.603 65.632C293.08 66.0053 292.419 66.192 291.619 66.192C290.499 66.192 289.624 65.8293 288.995 65.104C288.365 64.3787 288.051 63.3547 288.051 62.032C288.051 60.7413 288.371 59.7173 289.011 58.96C289.661 58.192 290.531 57.808 291.619 57.808C292.568 57.808 293.32 58.1173 293.875 58.736C294.44 59.344 294.723 60.1547 294.723 61.168C294.723 61.3707 294.707 61.568 294.675 61.76C294.643 61.952 294.605 62.112 294.563 62.24H289.315C289.347 63.168 289.56 63.888 289.955 64.4C290.36 64.9013 290.915 65.152 291.619 65.152ZM291.587 58.816C290.957 58.816 290.445 59.0293 290.051 59.456C289.667 59.8827 289.432 60.4907 289.347 61.28H293.411C293.421 61.2267 293.427 61.1733 293.427 61.12C293.427 61.056 293.427 60.9707 293.427 60.864C293.427 60.256 293.256 59.7653 292.915 59.392C292.584 59.008 292.141 58.816 291.587 58.816ZM302.959 66H301.519L299.359 62.864H299.327L297.199 66H295.839L298.703 61.92L295.983 58H297.423L299.439 61.008H299.471L301.471 58H302.815L300.095 61.904L302.959 66ZM308.222 58.864C307.614 58.864 307.113 59.0987 306.718 59.568C306.334 60.0267 306.142 60.6507 306.142 61.44V62.864C306.142 63.568 306.334 64.128 306.718 64.544C307.113 64.9493 307.614 65.152 308.222 65.152C308.937 65.152 309.497 64.8747 309.902 64.32C310.318 63.7653 310.526 62.992 310.526 62C310.526 60.976 310.329 60.1973 309.934 59.664C309.539 59.1307 308.969 58.864 308.222 58.864ZM304.83 58H305.806L305.966 59.536C306.115 59.0453 306.425 58.6347 306.894 58.304C307.374 57.9733 307.907 57.808 308.494 57.808C309.55 57.808 310.371 58.1813 310.958 58.928C311.555 59.6747 311.854 60.6987 311.854 62C311.854 63.2373 311.539 64.2453 310.91 65.024C310.281 65.8027 309.449 66.192 308.414 66.192C307.881 66.192 307.406 66.08 306.99 65.856C306.585 65.6213 306.302 65.312 306.142 64.928V69.168H304.83V58ZM317.166 65.152C317.667 65.152 318.078 65.0293 318.398 64.784C318.718 64.5387 318.936 64.176 319.054 63.696L320.19 64.016C320.019 64.72 319.672 65.2587 319.15 65.632C318.627 66.0053 317.966 66.192 317.166 66.192C316.046 66.192 315.171 65.8293 314.542 65.104C313.912 64.3787 313.598 63.3547 313.598 62.032C313.598 60.7413 313.918 59.7173 314.558 58.96C315.208 58.192 316.078 57.808 317.166 57.808C318.115 57.808 318.867 58.1173 319.422 58.736C319.987 59.344 320.27 60.1547 320.27 61.168C320.27 61.3707 320.254 61.568 320.222 61.76C320.19 61.952 320.152 62.112 320.11 62.24H314.862C314.894 63.168 315.107 63.888 315.502 64.4C315.907 64.9013 316.462 65.152 317.166 65.152ZM317.134 58.816C316.504 58.816 315.992 59.0293 315.598 59.456C315.214 59.8827 314.979 60.4907 314.894 61.28H318.958C318.968 61.2267 318.974 61.1733 318.974 61.12C318.974 61.056 318.974 60.9707 318.974 60.864C318.974 60.256 318.803 59.7653 318.462 59.392C318.131 59.008 317.688 58.816 317.134 58.816ZM322.486 66V58H323.526L323.702 60.048C323.851 59.376 324.161 58.8373 324.63 58.432C325.099 58.016 325.638 57.808 326.246 57.808C326.321 57.808 326.395 57.8133 326.47 57.824C326.555 57.8347 326.635 57.8453 326.71 57.856L326.63 59.232C326.566 59.2213 326.475 59.2107 326.358 59.2C326.241 59.1893 326.118 59.184 325.99 59.184C325.329 59.184 324.795 59.4347 324.39 59.936C323.995 60.4373 323.798 61.1093 323.798 61.952V66H322.486ZM329.142 54.608C329.409 54.608 329.633 54.6987 329.814 54.88C329.995 55.0613 330.086 55.2907 330.086 55.568C330.086 55.8453 329.995 56.0747 329.814 56.256C329.633 56.4373 329.409 56.528 329.142 56.528C328.875 56.528 328.651 56.4373 328.47 56.256C328.289 56.0747 328.198 55.8453 328.198 55.568C328.198 55.2907 328.289 55.0613 328.47 54.88C328.651 54.6987 328.875 54.608 329.142 54.608ZM328.486 66V58H329.798V66H328.486ZM335.603 65.152C336.104 65.152 336.515 65.0293 336.835 64.784C337.155 64.5387 337.374 64.176 337.491 63.696L338.627 64.016C338.456 64.72 338.11 65.2587 337.587 65.632C337.064 66.0053 336.403 66.192 335.603 66.192C334.483 66.192 333.608 65.8293 332.979 65.104C332.35 64.3787 332.035 63.3547 332.035 62.032C332.035 60.7413 332.355 59.7173 332.995 58.96C333.646 58.192 334.515 57.808 335.603 57.808C336.552 57.808 337.304 58.1173 337.859 58.736C338.424 59.344 338.707 60.1547 338.707 61.168C338.707 61.3707 338.691 61.568 338.659 61.76C338.627 61.952 338.59 62.112 338.547 62.24H333.299C333.331 63.168 333.544 63.888 333.939 64.4C334.344 64.9013 334.899 65.152 335.603 65.152ZM335.571 58.816C334.942 58.816 334.43 59.0293 334.035 59.456C333.651 59.8827 333.416 60.4907 333.331 61.28H337.395C337.406 61.2267 337.411 61.1733 337.411 61.12C337.411 61.056 337.411 60.9707 337.411 60.864C337.411 60.256 337.24 59.7653 336.899 59.392C336.568 59.008 336.126 58.816 335.571 58.816ZM340.924 58H341.9L342.06 59.552C342.284 58.9973 342.63 58.5707 343.1 58.272C343.569 57.9627 344.118 57.808 344.748 57.808C345.494 57.808 346.092 58.0427 346.54 58.512C346.988 58.9707 347.212 59.5947 347.212 60.384V66H345.9V60.656C345.9 60.112 345.761 59.696 345.484 59.408C345.217 59.1093 344.833 58.96 344.332 58.96C343.67 58.96 343.153 59.168 342.78 59.584C342.417 60 342.236 60.592 342.236 61.36V66H340.924V58ZM352.947 66.192C351.848 66.192 350.979 65.8187 350.339 65.072C349.699 64.3253 349.379 63.3013 349.379 62C349.379 60.7093 349.699 59.6907 350.339 58.944C350.979 58.1867 351.848 57.808 352.947 57.808C353.747 57.808 354.414 58.032 354.947 58.48C355.48 58.928 355.79 59.52 355.875 60.256L354.675 60.48C354.632 60 354.451 59.6107 354.131 59.312C353.822 59.0027 353.427 58.848 352.947 58.848C352.243 58.848 351.694 59.1253 351.299 59.68C350.904 60.2347 350.707 61.008 350.707 62C350.707 62.992 350.904 63.7653 351.299 64.32C351.694 64.8747 352.243 65.152 352.947 65.152C353.438 65.152 353.838 65.0027 354.147 64.704C354.456 64.3947 354.632 63.9893 354.675 63.488L355.875 63.712C355.758 64.4907 355.443 65.0987 354.931 65.536C354.419 65.9733 353.758 66.192 352.947 66.192ZM360.963 65.152C361.464 65.152 361.875 65.0293 362.195 64.784C362.515 64.5387 362.733 64.176 362.851 63.696L363.987 64.016C363.816 64.72 363.469 65.2587 362.947 65.632C362.424 66.0053 361.763 66.192 360.963 66.192C359.843 66.192 358.968 65.8293 358.339 65.104C357.709 64.3787 357.395 63.3547 357.395 62.032C357.395 60.7413 357.715 59.7173 358.355 58.96C359.005 58.192 359.875 57.808 360.963 57.808C361.912 57.808 362.664 58.1173 363.219 58.736C363.784 59.344 364.067 60.1547 364.067 61.168C364.067 61.3707 364.051 61.568 364.019 61.76C363.987 61.952 363.949 62.112 363.907 62.24H358.659C358.691 63.168 358.904 63.888 359.299 64.4C359.704 64.9013 360.259 65.152 360.963 65.152ZM360.931 58.816C360.301 58.816 359.789 59.0293 359.395 59.456C359.011 59.8827 358.776 60.4907 358.691 61.28H362.755C362.765 61.2267 362.771 61.1733 362.771 61.12C362.771 61.056 362.771 60.9707 362.771 60.864C362.771 60.256 362.6 59.7653 362.259 59.392C361.928 59.008 361.485 58.816 360.931 58.816ZM368.651 66.192C367.798 66.192 367.083 65.9947 366.507 65.6C365.942 65.2053 365.6 64.6667 365.483 63.984L366.683 63.648C366.747 64.096 366.96 64.464 367.323 64.752C367.696 65.04 368.139 65.184 368.651 65.184C369.206 65.184 369.632 65.0773 369.931 64.864C370.24 64.64 370.395 64.3253 370.395 63.92C370.395 63.5787 370.272 63.3067 370.027 63.104C369.792 62.9013 369.27 62.7093 368.459 62.528C367.926 62.4107 367.531 62.304 367.275 62.208C367.03 62.112 366.816 62.0053 366.635 61.888C366.368 61.696 366.166 61.4613 366.027 61.184C365.899 60.9067 365.835 60.5813 365.835 60.208C365.835 59.4827 366.091 58.9013 366.603 58.464C367.126 58.0267 367.803 57.808 368.635 57.808C369.51 57.808 370.187 58 370.667 58.384C371.158 58.7573 371.446 59.3067 371.531 60.032L370.299 60.208C370.256 59.76 370.091 59.4187 369.803 59.184C369.526 58.9387 369.136 58.816 368.635 58.816C368.144 58.816 367.76 58.9333 367.483 59.168C367.206 59.392 367.067 59.7067 367.067 60.112C367.067 60.4427 367.184 60.7093 367.419 60.912C367.654 61.104 368.171 61.2853 368.971 61.456C369.515 61.5733 369.915 61.68 370.171 61.776C370.427 61.8613 370.646 61.968 370.827 62.096C371.094 62.288 371.291 62.528 371.419 62.816C371.558 63.0933 371.627 63.4293 371.627 63.824C371.627 64.5493 371.355 65.1253 370.811 65.552C370.267 65.9787 369.547 66.192 368.651 66.192Z" fill="#F86EFF"/>
<path d="M230.308 38.864C229.7 38.864 229.198 39.0987 228.804 39.568C228.42 40.0267 228.228 40.6507 228.228 41.44V42.864C228.228 43.568 228.42 44.128 228.804 44.544C229.198 44.9493 229.7 45.152 230.308 45.152C231.022 45.152 231.582 44.8747 231.988 44.32C232.404 43.7653 232.612 42.992 232.612 42C232.612 40.976 232.414 40.1973 232.02 39.664C231.625 39.1307 231.054 38.864 230.308 38.864ZM226.916 38H227.892L228.052 39.536C228.201 39.0453 228.51 38.6347 228.98 38.304C229.46 37.9733 229.993 37.808 230.58 37.808C231.636 37.808 232.457 38.1813 233.044 38.928C233.641 39.6747 233.94 40.6987 233.94 42C233.94 43.2373 233.625 44.2453 232.996 45.024C232.366 45.8027 231.534 46.192 230.5 46.192C229.966 46.192 229.492 46.08 229.076 45.856C228.67 45.6213 228.388 45.312 228.228 44.928V49.168H226.916V38ZM236.181 46V38H237.221L237.397 40.048C237.547 39.376 237.856 38.8373 238.325 38.432C238.795 38.016 239.333 37.808 239.941 37.808C240.016 37.808 240.091 37.8133 240.165 37.824C240.251 37.8347 240.331 37.8453 240.405 37.856L240.325 39.232C240.261 39.2213 240.171 39.2107 240.053 39.2C239.936 39.1893 239.813 39.184 239.685 39.184C239.024 39.184 238.491 39.4347 238.085 39.936C237.691 40.4373 237.493 41.1093 237.493 41.952V46H236.181ZM248.293 46H247.253L247.093 44.48C246.912 45.0347 246.603 45.4613 246.165 45.76C245.728 46.048 245.195 46.192 244.565 46.192C243.829 46.192 243.232 45.9627 242.773 45.504C242.325 45.0453 242.101 44.4213 242.101 43.632V38H243.413V43.488C243.413 44 243.547 44.4053 243.813 44.704C244.08 44.992 244.453 45.136 244.933 45.136C245.563 45.136 246.059 44.9173 246.421 44.48C246.784 44.0427 246.965 43.4293 246.965 42.64V38H248.293V46ZM251.103 38H252.079L252.239 39.552C252.463 38.9973 252.81 38.5707 253.279 38.272C253.749 37.9627 254.298 37.808 254.927 37.808C255.674 37.808 256.271 38.0427 256.719 38.512C257.167 38.9707 257.391 39.5947 257.391 40.384V46H256.079V40.656C256.079 40.112 255.941 39.696 255.663 39.408C255.397 39.1093 255.013 38.96 254.511 38.96C253.85 38.96 253.333 39.168 252.959 39.584C252.597 40 252.415 40.592 252.415 41.36V46H251.103V38ZM263.127 45.152C263.628 45.152 264.039 45.0293 264.359 44.784C264.679 44.5387 264.897 44.176 265.015 43.696L266.151 44.016C265.98 44.72 265.633 45.2587 265.111 45.632C264.588 46.0053 263.927 46.192 263.127 46.192C262.007 46.192 261.132 45.8293 260.503 45.104C259.873 44.3787 259.559 43.3547 259.559 42.032C259.559 40.7413 259.879 39.7173 260.519 38.96C261.169 38.192 262.039 37.808 263.127 37.808C264.076 37.808 264.828 38.1173 265.383 38.736C265.948 39.344 266.231 40.1547 266.231 41.168C266.231 41.3707 266.215 41.568 266.183 41.76C266.151 41.952 266.113 42.112 266.071 42.24H260.823C260.855 43.168 261.068 43.888 261.463 44.4C261.868 44.9013 262.423 45.152 263.127 45.152ZM263.095 38.816C262.465 38.816 261.953 39.0293 261.559 39.456C261.175 39.8827 260.94 40.4907 260.855 41.28H264.919C264.929 41.2267 264.935 41.1733 264.935 41.12C264.935 41.056 264.935 40.9707 264.935 40.864C264.935 40.256 264.764 39.7653 264.423 39.392C264.092 39.008 263.649 38.816 263.095 38.816ZM270.815 46.192C269.962 46.192 269.247 45.9947 268.671 45.6C268.106 45.2053 267.764 44.6667 267.647 43.984L268.847 43.648C268.911 44.096 269.124 44.464 269.487 44.752C269.86 45.04 270.303 45.184 270.815 45.184C271.37 45.184 271.796 45.0773 272.095 44.864C272.404 44.64 272.559 44.3253 272.559 43.92C272.559 43.5787 272.436 43.3067 272.191 43.104C271.956 42.9013 271.434 42.7093 270.623 42.528C270.09 42.4107 269.695 42.304 269.439 42.208C269.194 42.112 268.98 42.0053 268.799 41.888C268.532 41.696 268.33 41.4613 268.191 41.184C268.063 40.9067 267.999 40.5813 267.999 40.208C267.999 39.4827 268.255 38.9013 268.767 38.464C269.29 38.0267 269.967 37.808 270.799 37.808C271.674 37.808 272.351 38 272.831 38.384C273.322 38.7573 273.61 39.3067 273.695 40.032L272.463 40.208C272.42 39.76 272.255 39.4187 271.967 39.184C271.69 38.9387 271.3 38.816 270.799 38.816C270.308 38.816 269.924 38.9333 269.647 39.168C269.37 39.392 269.231 39.7067 269.231 40.112C269.231 40.4427 269.348 40.7093 269.583 40.912C269.818 41.104 270.335 41.2853 271.135 41.456C271.679 41.5733 272.079 41.68 272.335 41.776C272.591 41.8613 272.81 41.968 272.991 42.096C273.258 42.288 273.455 42.528 273.583 42.816C273.722 43.0933 273.791 43.4293 273.791 43.824C273.791 44.5493 273.519 45.1253 272.975 45.552C272.431 45.9787 271.711 46.192 270.815 46.192Z" fill="#F5D786"/>
</svg>
