<svg width="400" height="120" viewBox="0 0 400 120" fill="none" xmlns="http://www.w3.org/2000/svg">
<g clip-path="url(#clip0_1_2)">
<rect width="400" height="120" fill="#1F0C1D"/>
<rect x="285" y="64" width="20" height="8" fill="#F86EFF"/>
<rect x="309" y="64" width="19" height="8" fill="#F86EFF"/>
<rect x="333" y="64" width="19" height="8" fill="#F86EFF"/>
<rect x="357" y="64" width="19" height="8" fill="#A10091"/>
<rect x="24" y="64" width="19" height="8" fill="#F86EFF"/>
<rect x="48" y="64" width="19" height="8" fill="#F86EFF"/>
<rect x="71" y="64" width="20" height="8" fill="#F86EFF"/>
<rect x="95" y="64" width="19" height="8" fill="#A10091"/>
<rect x="119" y="64" width="19" height="8" fill="#A10091"/>
<rect x="143" y="64" width="19" height="8" fill="#A10091"/>
<rect x="167" y="64" width="19" height="8" fill="#A10091"/>
<rect x="190" y="64" width="19" height="8" fill="#A10091"/>
<rect x="214" y="64" width="19" height="8" fill="#A10091"/>
<rect x="238" y="64" width="19" height="8" fill="#A10091"/>
<rect x="262" y="64" width="19" height="8" fill="#F86EFF"/>
<path d="M34.6825 78.2727V87H33.6257V79.3807H33.5746L31.4439 80.7955V79.7216L33.6257 78.2727H34.6825Z" fill="#F86EFF"/>
<path d="M54.7706 87V86.233L57.6513 83.0795C57.9893 82.7102 58.2678 82.3892 58.4865 82.1165C58.7053 81.8409 58.8672 81.5824 58.9723 81.3409C59.0803 81.0966 59.1342 80.8409 59.1342 80.5739C59.1342 80.267 59.0604 80.0014 58.9126 79.777C58.7678 79.5526 58.5689 79.3793 58.3161 79.2571C58.0632 79.1349 57.7791 79.0739 57.4638 79.0739C57.1286 79.0739 56.8359 79.1435 56.5859 79.2827C56.3388 79.419 56.147 79.6108 56.0107 79.858C55.8771 80.1051 55.8104 80.3949 55.8104 80.7273H54.8047C54.8047 80.2159 54.9226 79.767 55.1584 79.3807C55.3942 78.9943 55.7152 78.6932 56.1214 78.4773C56.5305 78.2614 56.9893 78.1534 57.4979 78.1534C58.0092 78.1534 58.4624 78.2614 58.8572 78.4773C59.2521 78.6932 59.5618 78.9844 59.7862 79.3509C60.0107 79.7173 60.1229 80.125 60.1229 80.5739C60.1229 80.8949 60.0646 81.2088 59.9482 81.5156C59.8345 81.8196 59.6357 82.1591 59.3516 82.5341C59.0703 82.9062 58.6797 83.3608 58.1797 83.8977L56.2195 85.9943V86.0625H60.2763V87H54.7706Z" fill="#F86EFF"/>
<path d="M81.532 87.1193C80.9695 87.1193 80.468 87.0227 80.0277 86.8295C79.5902 86.6364 79.2422 86.3679 78.9837 86.0241C78.728 85.6776 78.5888 85.2756 78.5661 84.8182H79.6399C79.6626 85.0994 79.7592 85.3423 79.9297 85.5469C80.1001 85.7486 80.3232 85.9048 80.5987 86.0156C80.8743 86.1264 81.1797 86.1818 81.5149 86.1818C81.8899 86.1818 82.2223 86.1165 82.5121 85.9858C82.8018 85.8551 83.0291 85.6733 83.1939 85.4403C83.3587 85.2074 83.4411 84.9375 83.4411 84.6307C83.4411 84.3097 83.3615 84.027 83.2024 83.7827C83.0433 83.5355 82.8104 83.3423 82.5036 83.2031C82.1967 83.0639 81.8217 82.9943 81.3786 82.9943H80.6797V82.0568H81.3786C81.7251 82.0568 82.0291 81.9943 82.2905 81.8693C82.5547 81.7443 82.7607 81.5682 82.9084 81.3409C83.0589 81.1136 83.1342 80.8466 83.1342 80.5398C83.1342 80.2443 83.0689 79.9872 82.9382 79.7685C82.8075 79.5497 82.6229 79.3793 82.3842 79.2571C82.1484 79.1349 81.87 79.0739 81.549 79.0739C81.2479 79.0739 80.9638 79.1293 80.6967 79.2401C80.4325 79.348 80.2166 79.5057 80.049 79.7131C79.8814 79.9176 79.7905 80.1648 79.7763 80.4545H78.7536C78.7706 79.9972 78.9084 79.5966 79.1669 79.2528C79.4254 78.9062 79.7635 78.6364 80.1811 78.4432C80.6016 78.25 81.0632 78.1534 81.5661 78.1534C82.1058 78.1534 82.5689 78.2628 82.9553 78.4815C83.3416 78.6974 83.6385 78.983 83.8459 79.3381C84.0533 79.6932 84.157 80.0767 84.157 80.4886C84.157 80.9801 84.0277 81.3991 83.7692 81.7457C83.5135 82.0923 83.1655 82.3324 82.7251 82.4659V82.5341C83.2763 82.625 83.7067 82.8594 84.0163 83.2372C84.326 83.6122 84.4808 84.0767 84.4808 84.6307C84.4808 85.1051 84.3516 85.5312 84.093 85.9091C83.8374 86.2841 83.4879 86.5795 83.0447 86.7955C82.6016 87.0114 82.0973 87.1193 81.532 87.1193Z" fill="#F86EFF"/>
<path d="M101.349 85.2102V84.3409L105.184 78.2727H105.815V79.6193H105.389L102.491 84.2045V84.2727H107.656V85.2102H101.349ZM105.457 87V84.946V84.5412V78.2727H106.463V87H105.457Z" fill="#A10091"/>
<path d="M128.48 87.1193C127.98 87.1193 127.53 87.0199 127.129 86.821C126.729 86.6222 126.408 86.3494 126.166 86.0028C125.925 85.6562 125.793 85.2614 125.77 84.8182H126.793C126.833 85.2131 127.012 85.5398 127.33 85.7983C127.651 86.054 128.034 86.1818 128.48 86.1818C128.838 86.1818 129.156 86.098 129.435 85.9304C129.716 85.7628 129.936 85.5327 130.095 85.2401C130.257 84.9446 130.338 84.6108 130.338 84.2386C130.338 83.858 130.254 83.5185 130.087 83.2202C129.922 82.919 129.695 82.6818 129.405 82.5085C129.115 82.3352 128.784 82.2472 128.412 82.2443C128.145 82.2415 127.871 82.2827 127.59 82.3679C127.308 82.4503 127.077 82.5568 126.895 82.6875L125.906 82.5682L126.435 78.2727H130.969V79.2102H127.321L127.014 81.7841H127.066C127.244 81.642 127.469 81.5241 127.739 81.4304C128.009 81.3366 128.29 81.2898 128.583 81.2898C129.117 81.2898 129.593 81.4176 130.01 81.6733C130.431 81.9261 130.76 82.2727 130.999 82.7131C131.24 83.1534 131.361 83.6562 131.361 84.2216C131.361 84.7784 131.236 85.2756 130.986 85.7131C130.739 86.1477 130.398 86.4915 129.963 86.7443C129.529 86.9943 129.034 87.1193 128.48 87.1193Z" fill="#A10091"/>
<path d="M152.557 87.1193C152.199 87.1136 151.841 87.0455 151.483 86.9148C151.125 86.7841 150.798 86.5639 150.503 86.2543C150.208 85.9418 149.97 85.5199 149.791 84.9886C149.612 84.4545 149.523 83.7841 149.523 82.9773C149.523 82.2045 149.595 81.5199 149.74 80.9233C149.885 80.3239 150.095 79.8196 150.371 79.4105C150.646 78.9986 150.979 78.6861 151.368 78.473C151.76 78.2599 152.202 78.1534 152.693 78.1534C153.182 78.1534 153.617 78.2514 153.997 78.4474C154.381 78.6406 154.693 78.9105 154.935 79.2571C155.176 79.6037 155.333 80.0028 155.404 80.4545H154.364C154.267 80.0625 154.08 79.7372 153.801 79.4787C153.523 79.2202 153.154 79.0909 152.693 79.0909C152.017 79.0909 151.485 79.3849 151.095 79.973C150.709 80.5611 150.514 81.3864 150.512 82.4489H150.58C150.739 82.2074 150.928 82.0014 151.146 81.831C151.368 81.6577 151.612 81.5241 151.879 81.4304C152.146 81.3366 152.429 81.2898 152.727 81.2898C153.227 81.2898 153.685 81.4148 154.1 81.6648C154.514 81.9119 154.847 82.2543 155.097 82.6918C155.347 83.1264 155.472 83.625 155.472 84.1875C155.472 84.7273 155.351 85.2216 155.11 85.6705C154.868 86.1165 154.529 86.4716 154.091 86.7358C153.656 86.9972 153.145 87.125 152.557 87.1193ZM152.557 86.1818C152.915 86.1818 153.236 86.0923 153.52 85.9134C153.807 85.7344 154.033 85.4943 154.198 85.1932C154.365 84.892 154.449 84.5568 154.449 84.1875C154.449 83.8267 154.368 83.4986 154.206 83.2031C154.047 82.9048 153.827 82.6676 153.546 82.4915C153.267 82.3153 152.949 82.2273 152.591 82.2273C152.321 82.2273 152.07 82.2812 151.837 82.3892C151.604 82.4943 151.399 82.6392 151.223 82.8239C151.05 83.0085 150.914 83.2202 150.814 83.4588C150.715 83.6946 150.665 83.9432 150.665 84.2045C150.665 84.5511 150.746 84.875 150.908 85.1761C151.073 85.4773 151.297 85.7202 151.581 85.9048C151.868 86.0895 152.193 86.1818 152.557 86.1818Z" fill="#A10091"/>
<path d="M174.248 87L178.152 79.2784V79.2102H173.652V78.2727H179.243V79.2614L175.356 87H174.248Z" fill="#A10091"/>
<path d="M200.502 87.1193C199.916 87.1193 199.399 87.0156 198.95 86.8082C198.504 86.598 198.156 86.3097 197.906 85.9432C197.656 85.5739 197.533 85.1534 197.536 84.6818C197.533 84.3125 197.605 83.9716 197.753 83.6591C197.901 83.3437 198.102 83.081 198.358 82.8707C198.617 82.6577 198.905 82.5227 199.223 82.4659V82.4148C198.806 82.3068 198.473 82.0724 198.226 81.7116C197.979 81.348 197.857 80.9347 197.86 80.4716C197.857 80.0284 197.969 79.6321 198.196 79.2827C198.423 78.9332 198.736 78.6577 199.134 78.456C199.534 78.2543 199.99 78.1534 200.502 78.1534C201.007 78.1534 201.459 78.2543 201.857 78.456C202.254 78.6577 202.567 78.9332 202.794 79.2827C203.024 79.6321 203.141 80.0284 203.144 80.4716C203.141 80.9347 203.014 81.348 202.764 81.7116C202.517 82.0724 202.189 82.3068 201.78 82.4148V82.4659C202.095 82.5227 202.379 82.6577 202.632 82.8707C202.885 83.081 203.087 83.3437 203.237 83.6591C203.388 83.9716 203.465 84.3125 203.468 84.6818C203.465 85.1534 203.337 85.5739 203.084 85.9432C202.834 86.3097 202.486 86.598 202.04 86.8082C201.597 87.0156 201.084 87.1193 200.502 87.1193ZM200.502 86.1818C200.896 86.1818 201.237 86.1179 201.524 85.9901C201.811 85.8622 202.033 85.6818 202.189 85.4489C202.345 85.2159 202.425 84.9432 202.428 84.6307C202.425 84.3011 202.34 84.0099 202.172 83.7571C202.004 83.5043 201.776 83.3054 201.486 83.1605C201.199 83.0156 200.871 82.9432 200.502 82.9432C200.129 82.9432 199.797 83.0156 199.504 83.1605C199.215 83.3054 198.986 83.5043 198.818 83.7571C198.654 84.0099 198.573 84.3011 198.575 84.6307C198.573 84.9432 198.648 85.2159 198.801 85.4489C198.958 85.6818 199.181 85.8622 199.47 85.9901C199.76 86.1179 200.104 86.1818 200.502 86.1818ZM200.502 82.0398C200.814 82.0398 201.091 81.9773 201.333 81.8523C201.577 81.7273 201.769 81.5526 201.908 81.3281C202.047 81.1037 202.118 80.8409 202.121 80.5398C202.118 80.2443 202.048 79.9872 201.912 79.7685C201.776 79.5469 201.587 79.3764 201.345 79.2571C201.104 79.1349 200.823 79.0739 200.502 79.0739C200.175 79.0739 199.889 79.1349 199.645 79.2571C199.401 79.3764 199.212 79.5469 199.078 79.7685C198.945 79.9872 198.879 80.2443 198.882 80.5398C198.879 80.8409 198.946 81.1037 199.083 81.3281C199.222 81.5526 199.414 81.7273 199.658 81.8523C199.902 81.9773 200.183 82.0398 200.502 82.0398Z" fill="#A10091"/>
<path d="M224.438 78.1534C224.796 78.1562 225.154 78.2244 225.512 78.358C225.869 78.4915 226.196 78.7131 226.492 79.0227C226.787 79.3295 227.024 79.7486 227.203 80.2798C227.382 80.8111 227.472 81.4773 227.472 82.2784C227.472 83.054 227.398 83.7429 227.25 84.3452C227.105 84.9446 226.895 85.4503 226.619 85.8622C226.347 86.2741 226.014 86.5866 225.622 86.7997C225.233 87.0128 224.793 87.1193 224.301 87.1193C223.813 87.1193 223.377 87.0227 222.993 86.8295C222.612 86.6335 222.3 86.3622 222.056 86.0156C221.814 85.6662 221.659 85.2614 221.591 84.8011H222.631C222.725 85.2017 222.911 85.5327 223.189 85.794C223.47 86.0526 223.841 86.1818 224.301 86.1818C224.975 86.1818 225.506 85.8878 225.895 85.2997C226.287 84.7116 226.483 83.8807 226.483 82.8068H226.415C226.256 83.0455 226.067 83.2514 225.848 83.4247C225.629 83.598 225.387 83.7315 225.119 83.8253C224.852 83.919 224.568 83.9659 224.267 83.9659C223.767 83.9659 223.308 83.8423 222.891 83.5952C222.476 83.3452 222.144 83.0028 221.894 82.5682C221.646 82.1307 221.523 81.6307 221.523 81.0682C221.523 80.5341 221.642 80.0455 221.881 79.6023C222.122 79.1562 222.46 78.8011 222.895 78.5369C223.333 78.2727 223.847 78.1449 224.438 78.1534ZM224.438 79.0909C224.08 79.0909 223.757 79.1804 223.47 79.3594C223.186 79.5355 222.96 79.7741 222.793 80.0753C222.628 80.3736 222.546 80.7045 222.546 81.0682C222.546 81.4318 222.625 81.7628 222.784 82.0611C222.946 82.3565 223.166 82.5923 223.445 82.7685C223.726 82.9418 224.046 83.0284 224.404 83.0284C224.673 83.0284 224.925 82.9759 225.158 82.8707C225.391 82.7628 225.594 82.6165 225.767 82.4318C225.943 82.2443 226.081 82.0327 226.181 81.7969C226.28 81.5582 226.33 81.3097 226.33 81.0511C226.33 80.7102 226.247 80.3906 226.083 80.0923C225.921 79.794 225.696 79.5526 225.409 79.3679C225.125 79.1832 224.801 79.0909 224.438 79.0909Z" fill="#A10091"/>
<path d="M244.933 78.2727V87H243.876V79.3807H243.825L241.694 80.7955V79.7216L243.876 78.2727H244.933ZM250.289 87.1193C249.647 87.1193 249.1 86.9446 248.648 86.5952C248.197 86.2429 247.852 85.733 247.613 85.0653C247.374 84.3949 247.255 83.5852 247.255 82.6364C247.255 81.6932 247.374 80.8878 247.613 80.2202C247.854 79.5497 248.201 79.0384 248.653 78.6861C249.107 78.331 249.653 78.1534 250.289 78.1534C250.925 78.1534 251.469 78.331 251.921 78.6861C252.376 79.0384 252.722 79.5497 252.961 80.2202C253.202 80.8878 253.323 81.6932 253.323 82.6364C253.323 83.5852 253.204 84.3949 252.965 85.0653C252.727 85.733 252.381 86.2429 251.93 86.5952C251.478 86.9446 250.931 87.1193 250.289 87.1193ZM250.289 86.1818C250.925 86.1818 251.42 85.875 251.772 85.2614C252.124 84.6477 252.3 83.7727 252.3 82.6364C252.3 81.8807 252.219 81.2372 252.058 80.706C251.898 80.1747 251.668 79.7699 251.367 79.4915C251.069 79.2131 250.71 79.0739 250.289 79.0739C249.658 79.0739 249.165 79.3849 248.81 80.0071C248.455 80.6264 248.278 81.5028 248.278 82.6364C248.278 83.392 248.357 84.0341 248.516 84.5625C248.675 85.0909 248.904 85.4929 249.202 85.7685C249.504 86.044 249.866 86.1818 250.289 86.1818Z" fill="#A10091"/>
<path d="M269.893 78.2727V87H268.837V79.3807H268.786L266.655 80.7955V79.7216L268.837 78.2727H269.893ZM275.472 78.2727V87H274.415V79.3807H274.364L272.233 80.7955V79.7216L274.415 78.2727H275.472Z" fill="#F86EFF"/>
<path d="M293.05 78.2727V87H291.993V79.3807H291.942L289.811 80.7955V79.7216L291.993 78.2727H293.05ZM295.56 87V86.233L298.44 83.0795C298.778 82.7102 299.057 82.3892 299.276 82.1165C299.494 81.8409 299.656 81.5824 299.761 81.3409C299.869 81.0966 299.923 80.8409 299.923 80.5739C299.923 80.267 299.849 80.0014 299.702 79.777C299.557 79.5526 299.358 79.3793 299.105 79.2571C298.852 79.1349 298.568 79.0739 298.253 79.0739C297.918 79.0739 297.625 79.1435 297.375 79.2827C297.128 79.419 296.936 79.6108 296.8 79.858C296.666 80.1051 296.599 80.3949 296.599 80.7273H295.594C295.594 80.2159 295.712 79.767 295.947 79.3807C296.183 78.9943 296.504 78.6932 296.911 78.4773C297.32 78.2614 297.778 78.1534 298.287 78.1534C298.798 78.1534 299.251 78.2614 299.646 78.4773C300.041 78.6932 300.351 78.9844 300.575 79.3509C300.8 79.7173 300.912 80.125 300.912 80.5739C300.912 80.8949 300.854 81.2088 300.737 81.5156C300.624 81.8196 300.425 82.1591 300.141 82.5341C299.859 82.9062 299.469 83.3608 298.969 83.8977L297.009 85.9943V86.0625H301.065V87H295.56Z" fill="#F86EFF"/>
<path d="M315.862 78.2727V87H314.805V79.3807H314.754L312.624 80.7955V79.7216L314.805 78.2727H315.862ZM321.321 87.1193C320.759 87.1193 320.257 87.0227 319.817 86.8295C319.379 86.6364 319.031 86.3679 318.773 86.0241C318.517 85.6776 318.378 85.2756 318.355 84.8182H319.429C319.452 85.0994 319.548 85.3423 319.719 85.5469C319.889 85.7486 320.112 85.9048 320.388 86.0156C320.663 86.1264 320.969 86.1818 321.304 86.1818C321.679 86.1818 322.011 86.1165 322.301 85.9858C322.591 85.8551 322.818 85.6733 322.983 85.4403C323.148 85.2074 323.23 84.9375 323.23 84.6307C323.23 84.3097 323.151 84.027 322.991 83.7827C322.832 83.5355 322.599 83.3423 322.293 83.2031C321.986 83.0639 321.611 82.9943 321.168 82.9943H320.469V82.0568H321.168C321.514 82.0568 321.818 81.9943 322.08 81.8693C322.344 81.7443 322.55 81.5682 322.697 81.3409C322.848 81.1136 322.923 80.8466 322.923 80.5398C322.923 80.2443 322.858 79.9872 322.727 79.7685C322.597 79.5497 322.412 79.3793 322.173 79.2571C321.938 79.1349 321.659 79.0739 321.338 79.0739C321.037 79.0739 320.753 79.1293 320.486 79.2401C320.222 79.348 320.006 79.5057 319.838 79.7131C319.67 79.9176 319.58 80.1648 319.565 80.4545H318.543C318.56 79.9972 318.697 79.5966 318.956 79.2528C319.214 78.9062 319.553 78.6364 319.97 78.4432C320.391 78.25 320.852 78.1534 321.355 78.1534C321.895 78.1534 322.358 78.2628 322.744 78.4815C323.131 78.6974 323.428 78.983 323.635 79.3381C323.842 79.6932 323.946 80.0767 323.946 80.4886C323.946 80.9801 323.817 81.3991 323.558 81.7457C323.303 82.0923 322.955 82.3324 322.514 82.4659V82.5341C323.065 82.625 323.496 82.8594 323.805 83.2372C324.115 83.6122 324.27 84.0767 324.27 84.6307C324.27 85.1051 324.141 85.5312 323.882 85.9091C323.626 86.2841 323.277 86.5795 322.834 86.7955C322.391 87.0114 321.886 87.1193 321.321 87.1193Z" fill="#F86EFF"/>
<path d="M339.833 78.2727V87H338.776V79.3807H338.725L336.594 80.7955V79.7216L338.776 78.2727H339.833ZM342.138 85.2102V84.3409L345.974 78.2727H346.604V79.6193H346.178L343.28 84.2045V84.2727H348.445V85.2102H342.138ZM346.246 87V84.946V84.5412V78.2727H347.252V87H346.246Z" fill="#F86EFF"/>
<path d="M364.032 78.2727V87H362.975V79.3807H362.924L360.794 80.7955V79.7216L362.975 78.2727H364.032ZM369.269 87.1193C368.769 87.1193 368.319 87.0199 367.919 86.821C367.518 86.6222 367.197 86.3494 366.955 86.0028C366.714 85.6562 366.582 85.2614 366.559 84.8182H367.582C367.622 85.2131 367.801 85.5398 368.119 85.7983C368.44 86.054 368.823 86.1818 369.269 86.1818C369.627 86.1818 369.945 86.098 370.224 85.9304C370.505 85.7628 370.725 85.5327 370.884 85.2401C371.046 84.9446 371.127 84.6108 371.127 84.2386C371.127 83.858 371.044 83.5185 370.876 83.2202C370.711 82.919 370.484 82.6818 370.194 82.5085C369.904 82.3352 369.573 82.2472 369.201 82.2443C368.934 82.2415 368.66 82.2827 368.379 82.3679C368.097 82.4503 367.866 82.5568 367.684 82.6875L366.695 82.5682L367.224 78.2727H371.758V79.2102H368.11L367.803 81.7841H367.855C368.034 81.642 368.258 81.5241 368.528 81.4304C368.798 81.3366 369.079 81.2898 369.372 81.2898C369.906 81.2898 370.382 81.4176 370.799 81.6733C371.22 81.9261 371.549 82.2727 371.788 82.7131C372.029 83.1534 372.15 83.6562 372.15 84.2216C372.15 84.7784 372.025 85.2756 371.775 85.7131C371.528 86.1477 371.187 86.4915 370.752 86.7443C370.318 86.9943 369.823 87.1193 369.269 87.1193Z" fill="#A10091"/>
<path d="M39.1435 25V13.3636H43.2116C44.0223 13.3636 44.6908 13.5038 45.2173 13.7841C45.7438 14.0606 46.1359 14.4337 46.3935 14.9034C46.651 15.3693 46.7798 15.8864 46.7798 16.4545C46.7798 16.9545 46.6908 17.3674 46.5128 17.6932C46.3385 18.0189 46.1075 18.2765 45.8196 18.4659C45.5355 18.6553 45.2268 18.7955 44.8935 18.8864V19C45.2495 19.0227 45.6075 19.1477 45.9673 19.375C46.3272 19.6023 46.6283 19.928 46.8707 20.3523C47.1132 20.7765 47.2344 21.2955 47.2344 21.9091C47.2344 22.4924 47.1018 23.017 46.8366 23.483C46.5715 23.9489 46.1529 24.3182 45.581 24.5909C45.009 24.8636 44.2647 25 43.348 25H39.1435ZM40.5526 23.75H43.348C44.2685 23.75 44.9219 23.572 45.3082 23.2159C45.6984 22.8561 45.8935 22.4205 45.8935 21.9091C45.8935 21.5152 45.7931 21.1515 45.5923 20.8182C45.3916 20.4811 45.1056 20.2121 44.7344 20.0114C44.3632 19.8068 43.9238 19.7045 43.4162 19.7045H40.5526V23.75ZM40.5526 18.4773H43.1662C43.5904 18.4773 43.973 18.3939 44.3139 18.2273C44.6586 18.0606 44.9313 17.8258 45.1321 17.5227C45.3366 17.2197 45.4389 16.8636 45.4389 16.4545C45.4389 15.9432 45.2609 15.5095 44.9048 15.1534C44.5488 14.7936 43.9844 14.6136 43.2116 14.6136H40.5526V18.4773ZM49.3679 25V16.2727H50.6634V17.5909H50.7543C50.9134 17.1591 51.2012 16.8087 51.6179 16.5398C52.0346 16.2708 52.5043 16.1364 53.027 16.1364C53.1255 16.1364 53.2486 16.1383 53.3963 16.142C53.544 16.1458 53.6558 16.1515 53.7315 16.1591V17.5227C53.6861 17.5114 53.5819 17.4943 53.419 17.4716C53.2599 17.4451 53.0914 17.4318 52.9134 17.4318C52.4891 17.4318 52.1103 17.5208 51.777 17.6989C51.4474 17.8731 51.1861 18.1155 50.9929 18.4261C50.8035 18.733 50.7088 19.0833 50.7088 19.4773V25H49.3679ZM57.8892 25.2045C57.3362 25.2045 56.8343 25.1004 56.3835 24.892C55.9328 24.6799 55.5748 24.375 55.3097 23.9773C55.0445 23.5758 54.9119 23.0909 54.9119 22.5227C54.9119 22.0227 55.0104 21.6174 55.2074 21.3068C55.4044 20.9924 55.6676 20.7462 55.9972 20.5682C56.3267 20.3902 56.6903 20.2576 57.0881 20.1705C57.4896 20.0795 57.893 20.0076 58.2983 19.9545C58.8286 19.8864 59.2585 19.8352 59.5881 19.8011C59.9214 19.7633 60.1638 19.7008 60.3153 19.6136C60.4706 19.5265 60.5483 19.375 60.5483 19.1591V19.1136C60.5483 18.553 60.3949 18.1174 60.0881 17.8068C59.785 17.4962 59.3248 17.3409 58.7074 17.3409C58.0672 17.3409 57.5653 17.4811 57.2017 17.7614C56.8381 18.0417 56.5824 18.3409 56.4347 18.6591L55.1619 18.2045C55.3892 17.6742 55.6922 17.2614 56.071 16.9659C56.4536 16.6667 56.8703 16.4583 57.321 16.3409C57.7756 16.2197 58.2225 16.1591 58.6619 16.1591C58.9422 16.1591 59.2642 16.1932 59.6278 16.2614C59.9953 16.3258 60.3494 16.4602 60.6903 16.6648C61.035 16.8693 61.321 17.178 61.5483 17.5909C61.7756 18.0038 61.8892 18.5568 61.8892 19.25V25H60.5483V23.8182H60.4801C60.3892 24.0076 60.2377 24.2102 60.0256 24.4261C59.8134 24.642 59.5313 24.8258 59.179 24.9773C58.8267 25.1288 58.3968 25.2045 57.8892 25.2045ZM58.0938 24C58.6241 24 59.071 23.8958 59.4347 23.6875C59.8021 23.4792 60.0786 23.2102 60.2642 22.8807C60.4536 22.5511 60.5483 22.2045 60.5483 21.8409V20.6136C60.4915 20.6818 60.3665 20.7443 60.1733 20.8011C59.9839 20.8542 59.7642 20.9015 59.5142 20.9432C59.268 20.9811 59.0275 21.0152 58.7926 21.0455C58.5616 21.072 58.3741 21.0947 58.2301 21.1136C57.8816 21.1591 57.5559 21.233 57.2528 21.3352C56.9536 21.4337 56.7112 21.5833 56.5256 21.7841C56.3438 21.9811 56.2528 22.25 56.2528 22.5909C56.2528 23.0568 56.4252 23.4091 56.7699 23.6477C57.1184 23.8826 57.5597 24 58.0938 24ZM64.3366 25V16.2727H65.6776V25H64.3366ZM65.0185 14.8182C64.7571 14.8182 64.5317 14.7292 64.3423 14.5511C64.1567 14.3731 64.0639 14.1591 64.0639 13.9091C64.0639 13.6591 64.1567 13.4451 64.3423 13.267C64.5317 13.089 64.7571 13 65.0185 13C65.2798 13 65.5033 13.089 65.6889 13.267C65.8783 13.4451 65.973 13.6591 65.973 13.9091C65.973 14.1591 65.8783 14.3731 65.6889 14.5511C65.5033 14.7292 65.2798 14.8182 65.0185 14.8182ZM69.4744 19.75V25H68.1335V16.2727H69.429V17.6364H69.5426C69.7472 17.1932 70.0578 16.8371 70.4744 16.5682C70.8911 16.2955 71.429 16.1591 72.0881 16.1591C72.679 16.1591 73.196 16.2803 73.6392 16.5227C74.0824 16.7614 74.4271 17.125 74.6733 17.6136C74.9195 18.0985 75.0426 18.7121 75.0426 19.4545V25H73.7017V19.5455C73.7017 18.8598 73.5237 18.3258 73.1676 17.9432C72.8116 17.5568 72.3229 17.3636 71.7017 17.3636C71.2737 17.3636 70.8911 17.4564 70.554 17.642C70.2206 17.8277 69.9574 18.0985 69.7642 18.4545C69.571 18.8106 69.4744 19.2424 69.4744 19.75ZM35.1797 47.4545C34.532 47.4545 33.9751 47.3712 33.5092 47.2045C33.0433 47.0417 32.6551 46.8258 32.3445 46.5568C32.0376 46.2917 31.7933 46.0076 31.6115 45.7045L32.6797 44.9545C32.8009 45.1136 32.9543 45.2955 33.1399 45.5C33.3255 45.7083 33.5793 45.8883 33.9013 46.0398C34.227 46.1951 34.6532 46.2727 35.1797 46.2727C35.8842 46.2727 36.4657 46.1023 36.924 45.7614C37.3823 45.4205 37.6115 44.8864 37.6115 44.1591V42.3864H37.4979C37.3994 42.5455 37.2592 42.7424 37.0774 42.9773C36.8994 43.2083 36.6418 43.4148 36.3047 43.5966C35.9714 43.7746 35.5206 43.8636 34.9524 43.8636C34.2479 43.8636 33.6153 43.697 33.0547 43.3636C32.4979 43.0303 32.0566 42.5455 31.7308 41.9091C31.4089 41.2727 31.2479 40.5 31.2479 39.5909C31.2479 38.697 31.4051 37.9186 31.7195 37.2557C32.0339 36.589 32.4714 36.0739 33.032 35.7102C33.5926 35.3428 34.2403 35.1591 34.9751 35.1591C35.5433 35.1591 35.9941 35.2538 36.3274 35.4432C36.6645 35.6288 36.9221 35.8409 37.1001 36.0795C37.282 36.3144 37.4221 36.5076 37.5206 36.6591H37.657V35.2727H38.9524V44.25C38.9524 45 38.782 45.6098 38.4411 46.0795C38.1039 46.553 37.6494 46.8996 37.0774 47.1193C36.5092 47.3428 35.8767 47.4545 35.1797 47.4545ZM35.1342 42.6591C35.6721 42.6591 36.1267 42.536 36.4979 42.2898C36.8691 42.0436 37.1513 41.6894 37.3445 41.2273C37.5376 40.7652 37.6342 40.2121 37.6342 39.5682C37.6342 38.9394 37.5395 38.3845 37.3501 37.9034C37.1607 37.4223 36.8804 37.0455 36.5092 36.7727C36.138 36.5 35.6797 36.3636 35.1342 36.3636C34.5661 36.3636 34.0926 36.5076 33.7138 36.7955C33.3388 37.0833 33.0566 37.4697 32.8672 37.9545C32.6816 38.4394 32.5888 38.9773 32.5888 39.5682C32.5888 40.1742 32.6835 40.7102 32.8729 41.1761C33.0661 41.6383 33.3501 42.0019 33.7251 42.267C34.1039 42.5284 34.5736 42.6591 35.1342 42.6591ZM41.407 44V35.2727H42.7024V36.5909H42.7933C42.9524 36.1591 43.2403 35.8087 43.657 35.5398C44.0736 35.2708 44.5433 35.1364 45.0661 35.1364C45.1645 35.1364 45.2876 35.1383 45.4354 35.142C45.5831 35.1458 45.6948 35.1515 45.7706 35.1591V36.5227C45.7251 36.5114 45.621 36.4943 45.4581 36.4716C45.299 36.4451 45.1304 36.4318 44.9524 36.4318C44.5282 36.4318 44.1494 36.5208 43.8161 36.6989C43.4865 36.8731 43.2251 37.1155 43.032 37.4261C42.8426 37.733 42.7479 38.0833 42.7479 38.4773V44H41.407ZM50.6399 44.1818C49.852 44.1818 49.1607 43.9943 48.5661 43.6193C47.9751 43.2443 47.513 42.7197 47.1797 42.0455C46.8501 41.3712 46.6854 40.5833 46.6854 39.6818C46.6854 38.7727 46.8501 37.9792 47.1797 37.3011C47.513 36.6231 47.9751 36.0966 48.5661 35.7216C49.1607 35.3466 49.852 35.1591 50.6399 35.1591C51.4278 35.1591 52.1172 35.3466 52.7081 35.7216C53.3028 36.0966 53.7649 36.6231 54.0945 37.3011C54.4278 37.9792 54.5945 38.7727 54.5945 39.6818C54.5945 40.5833 54.4278 41.3712 54.0945 42.0455C53.7649 42.7197 53.3028 43.2443 52.7081 43.6193C52.1172 43.9943 51.4278 44.1818 50.6399 44.1818ZM50.6399 42.9773C51.2384 42.9773 51.7308 42.8239 52.1172 42.517C52.5036 42.2102 52.7895 41.8068 52.9751 41.3068C53.1607 40.8068 53.2536 40.2652 53.2536 39.6818C53.2536 39.0985 53.1607 38.5549 52.9751 38.0511C52.7895 37.5473 52.5036 37.1402 52.1172 36.8295C51.7308 36.5189 51.2384 36.3636 50.6399 36.3636C50.0414 36.3636 49.549 36.5189 49.1626 36.8295C48.7763 37.1402 48.4903 37.5473 48.3047 38.0511C48.1191 38.5549 48.0263 39.0985 48.0263 39.6818C48.0263 40.2652 48.1191 40.8068 48.3047 41.3068C48.4903 41.8068 48.7763 42.2102 49.1626 42.517C49.549 42.8239 50.0414 42.9773 50.6399 42.9773ZM58.3217 44L55.6626 35.2727H57.0717L58.9581 41.9545H59.049L60.9126 35.2727H62.3445L64.1854 41.9318H64.2763L66.1626 35.2727H67.5717L64.9126 44H63.5945L61.6854 37.2955H61.549L59.6399 44H58.3217ZM73.1399 35.2727V36.4091H68.6172V35.2727H73.1399ZM69.9354 33.1818H71.2763V41.5C71.2763 41.8788 71.3312 42.1629 71.4411 42.3523C71.5547 42.5379 71.6986 42.6629 71.8729 42.7273C72.0509 42.7879 72.2384 42.8182 72.4354 42.8182C72.5831 42.8182 72.7043 42.8106 72.799 42.7955C72.8937 42.7765 72.9695 42.7614 73.0263 42.75L73.299 43.9545C73.2081 43.9886 73.0812 44.0227 72.9183 44.0568C72.7554 44.0947 72.549 44.1136 72.299 44.1136C71.9202 44.1136 71.549 44.0322 71.1854 43.8693C70.8255 43.7064 70.5263 43.4583 70.2876 43.125C70.0528 42.7917 69.9354 42.3712 69.9354 41.8636V33.1818ZM76.6854 38.75V44H75.3445V32.3636H76.6854V36.6364H76.799C77.0036 36.1856 77.3104 35.8277 77.7195 35.5625C78.1323 35.2936 78.6816 35.1591 79.3672 35.1591C79.9619 35.1591 80.4827 35.2784 80.9297 35.517C81.3767 35.7519 81.7232 36.1136 81.9695 36.6023C82.2195 37.0871 82.3445 37.7045 82.3445 38.4545V44H81.0036V38.5455C81.0036 37.8523 80.8236 37.3163 80.4638 36.9375C80.1077 36.5549 79.6134 36.3636 78.9808 36.3636C78.5414 36.3636 78.1475 36.4564 77.799 36.642C77.4543 36.8277 77.1816 37.0985 76.9808 37.4545C76.7839 37.8106 76.6854 38.2424 76.6854 38.75Z" fill="#F86EFF"/>
<path d="M303.143 24V12.3636H307.212C308.022 12.3636 308.691 12.5038 309.217 12.7841C309.744 13.0606 310.136 13.4337 310.393 13.9034C310.651 14.3693 310.78 14.8864 310.78 15.4545C310.78 15.9545 310.691 16.3674 310.513 16.6932C310.339 17.0189 310.107 17.2765 309.82 17.4659C309.536 17.6553 309.227 17.7955 308.893 17.8864V18C309.25 18.0227 309.607 18.1477 309.967 18.375C310.327 18.6023 310.628 18.928 310.871 19.3523C311.113 19.7765 311.234 20.2955 311.234 20.9091C311.234 21.4924 311.102 22.017 310.837 22.483C310.571 22.9489 310.153 23.3182 309.581 23.5909C309.009 23.8636 308.265 24 307.348 24H303.143ZM304.553 22.75H307.348C308.268 22.75 308.922 22.572 309.308 22.2159C309.698 21.8561 309.893 21.4205 309.893 20.9091C309.893 20.5152 309.793 20.1515 309.592 19.8182C309.392 19.4811 309.106 19.2121 308.734 19.0114C308.363 18.8068 307.924 18.7045 307.416 18.7045H304.553V22.75ZM304.553 17.4773H307.166C307.59 17.4773 307.973 17.3939 308.314 17.2273C308.659 17.0606 308.931 16.8258 309.132 16.5227C309.337 16.2197 309.439 15.8636 309.439 15.4545C309.439 14.9432 309.261 14.5095 308.905 14.1534C308.549 13.7936 307.984 13.6136 307.212 13.6136H304.553V17.4773ZM313.368 24V15.2727H314.663V16.5909H314.754C314.913 16.1591 315.201 15.8087 315.618 15.5398C316.035 15.2708 316.504 15.1364 317.027 15.1364C317.125 15.1364 317.249 15.1383 317.396 15.142C317.544 15.1458 317.656 15.1515 317.732 15.1591V16.5227C317.686 16.5114 317.582 16.4943 317.419 16.4716C317.26 16.4451 317.091 16.4318 316.913 16.4318C316.489 16.4318 316.11 16.5208 315.777 16.6989C315.447 16.8731 315.186 17.1155 314.993 17.4261C314.804 17.733 314.709 18.0833 314.709 18.4773V24H313.368ZM321.889 24.2045C321.336 24.2045 320.834 24.1004 320.384 23.892C319.933 23.6799 319.575 23.375 319.31 22.9773C319.045 22.5758 318.912 22.0909 318.912 21.5227C318.912 21.0227 319.01 20.6174 319.207 20.3068C319.404 19.9924 319.668 19.7462 319.997 19.5682C320.327 19.3902 320.69 19.2576 321.088 19.1705C321.49 19.0795 321.893 19.0076 322.298 18.9545C322.829 18.8864 323.259 18.8352 323.588 18.8011C323.921 18.7633 324.164 18.7008 324.315 18.6136C324.471 18.5265 324.548 18.375 324.548 18.1591V18.1136C324.548 17.553 324.395 17.1174 324.088 16.8068C323.785 16.4962 323.325 16.3409 322.707 16.3409C322.067 16.3409 321.565 16.4811 321.202 16.7614C320.838 17.0417 320.582 17.3409 320.435 17.6591L319.162 17.2045C319.389 16.6742 319.692 16.2614 320.071 15.9659C320.454 15.6667 320.87 15.4583 321.321 15.3409C321.776 15.2197 322.223 15.1591 322.662 15.1591C322.942 15.1591 323.264 15.1932 323.628 15.2614C323.995 15.3258 324.349 15.4602 324.69 15.6648C325.035 15.8693 325.321 16.178 325.548 16.5909C325.776 17.0038 325.889 17.5568 325.889 18.25V24H324.548V22.8182H324.48C324.389 23.0076 324.238 23.2102 324.026 23.4261C323.813 23.642 323.531 23.8258 323.179 23.9773C322.827 24.1288 322.397 24.2045 321.889 24.2045ZM322.094 23C322.624 23 323.071 22.8958 323.435 22.6875C323.802 22.4792 324.079 22.2102 324.264 21.8807C324.454 21.5511 324.548 21.2045 324.548 20.8409V19.6136C324.491 19.6818 324.366 19.7443 324.173 19.8011C323.984 19.8542 323.764 19.9015 323.514 19.9432C323.268 19.9811 323.027 20.0152 322.793 20.0455C322.562 20.072 322.374 20.0947 322.23 20.1136C321.882 20.1591 321.556 20.233 321.253 20.3352C320.954 20.4337 320.711 20.5833 320.526 20.7841C320.344 20.9811 320.253 21.25 320.253 21.5909C320.253 22.0568 320.425 22.4091 320.77 22.6477C321.118 22.8826 321.56 23 322.094 23ZM328.337 24V15.2727H329.678V24H328.337ZM329.018 13.8182C328.757 13.8182 328.532 13.7292 328.342 13.5511C328.157 13.3731 328.064 13.1591 328.064 12.9091C328.064 12.6591 328.157 12.4451 328.342 12.267C328.532 12.089 328.757 12 329.018 12C329.28 12 329.503 12.089 329.689 12.267C329.878 12.4451 329.973 12.6591 329.973 12.9091C329.973 13.1591 329.878 13.3731 329.689 13.5511C329.503 13.7292 329.28 13.8182 329.018 13.8182ZM333.474 18.75V24H332.134V15.2727H333.429V16.6364H333.543C333.747 16.1932 334.058 15.8371 334.474 15.5682C334.891 15.2955 335.429 15.1591 336.088 15.1591C336.679 15.1591 337.196 15.2803 337.639 15.5227C338.082 15.7614 338.427 16.125 338.673 16.6136C338.92 17.0985 339.043 17.7121 339.043 18.4545V24H337.702V18.5455C337.702 17.8598 337.524 17.3258 337.168 16.9432C336.812 16.5568 336.323 16.3636 335.702 16.3636C335.274 16.3636 334.891 16.4564 334.554 16.642C334.221 16.8277 333.957 17.0985 333.764 17.4545C333.571 17.8106 333.474 18.2424 333.474 18.75ZM268.055 43V34.2727H269.351V35.5909H269.442C269.601 35.1591 269.889 34.8087 270.305 34.5398C270.722 34.2708 271.192 34.1364 271.714 34.1364C271.813 34.1364 271.936 34.1383 272.084 34.142C272.232 34.1458 272.343 34.1515 272.419 34.1591V35.5227C272.374 35.5114 272.269 35.4943 272.107 35.4716C271.947 35.4451 271.779 35.4318 271.601 35.4318C271.177 35.4318 270.798 35.5208 270.464 35.6989C270.135 35.8731 269.874 36.1155 269.68 36.4261C269.491 36.733 269.396 37.0833 269.396 37.4773V43H268.055ZM277.402 43.1818C276.561 43.1818 275.836 42.9962 275.226 42.625C274.62 42.25 274.152 41.7273 273.822 41.0568C273.497 40.3826 273.334 39.5985 273.334 38.7045C273.334 37.8106 273.497 37.0227 273.822 36.3409C274.152 35.6553 274.61 35.1212 275.197 34.7386C275.788 34.3523 276.478 34.1591 277.266 34.1591C277.72 34.1591 278.169 34.2348 278.612 34.3864C279.055 34.5379 279.459 34.7841 279.822 35.125C280.186 35.4621 280.476 35.9091 280.692 36.4659C280.908 37.0227 281.016 37.7083 281.016 38.5227V39.0909H274.288V37.9318H279.652C279.652 37.4394 279.554 37 279.357 36.6136C279.163 36.2273 278.887 35.9223 278.527 35.6989C278.171 35.4754 277.75 35.3636 277.266 35.3636C276.732 35.3636 276.269 35.4962 275.879 35.7614C275.493 36.0227 275.196 36.3636 274.987 36.7841C274.779 37.2045 274.675 37.6553 274.675 38.1364V38.9091C274.675 39.5682 274.788 40.1269 275.016 40.5852C275.247 41.0398 275.567 41.3864 275.976 41.625C276.385 41.8598 276.86 41.9773 277.402 41.9773C277.754 41.9773 278.072 41.928 278.357 41.8295C278.644 41.7273 278.893 41.5758 279.101 41.375C279.309 41.1705 279.47 40.9167 279.584 40.6136L280.879 40.9773C280.743 41.4167 280.514 41.803 280.192 42.1364C279.87 42.4659 279.472 42.7235 278.999 42.9091C278.525 43.0909 277.993 43.1818 277.402 43.1818ZM286.601 43.1818C285.813 43.1818 285.122 42.9943 284.527 42.6193C283.936 42.2443 283.474 41.7197 283.141 41.0455C282.811 40.3712 282.646 39.5833 282.646 38.6818C282.646 37.7727 282.811 36.9792 283.141 36.3011C283.474 35.6231 283.936 35.0966 284.527 34.7216C285.122 34.3466 285.813 34.1591 286.601 34.1591C287.389 34.1591 288.078 34.3466 288.669 34.7216C289.264 35.0966 289.726 35.6231 290.055 36.3011C290.389 36.9792 290.555 37.7727 290.555 38.6818C290.555 39.5833 290.389 40.3712 290.055 41.0455C289.726 41.7197 289.264 42.2443 288.669 42.6193C288.078 42.9943 287.389 43.1818 286.601 43.1818ZM286.601 41.9773C287.199 41.9773 287.692 41.8239 288.078 41.517C288.464 41.2102 288.75 40.8068 288.936 40.3068C289.122 39.8068 289.214 39.2652 289.214 38.6818C289.214 38.0985 289.122 37.5549 288.936 37.0511C288.75 36.5473 288.464 36.1402 288.078 35.8295C287.692 35.5189 287.199 35.3636 286.601 35.3636C286.002 35.3636 285.51 35.5189 285.124 35.8295C284.737 36.1402 284.451 36.5473 284.266 37.0511C284.08 37.5549 283.987 38.0985 283.987 38.6818C283.987 39.2652 284.08 39.8068 284.266 40.3068C284.451 40.8068 284.737 41.2102 285.124 41.517C285.51 41.8239 286.002 41.9773 286.601 41.9773ZM292.602 43V34.2727H293.898V35.5909H293.989C294.148 35.1591 294.436 34.8087 294.852 34.5398C295.269 34.2708 295.739 34.1364 296.261 34.1364C296.36 34.1364 296.483 34.1383 296.631 34.142C296.778 34.1458 296.89 34.1515 296.966 34.1591V35.5227C296.92 35.5114 296.816 35.4943 296.653 35.4716C296.494 35.4451 296.326 35.4318 296.148 35.4318C295.723 35.4318 295.345 35.5208 295.011 35.6989C294.682 35.8731 294.42 36.1155 294.227 36.4261C294.038 36.733 293.943 37.0833 293.943 37.4773V43H292.602ZM301.812 46.4545C301.165 46.4545 300.608 46.3712 300.142 46.2045C299.676 46.0417 299.288 45.8258 298.977 45.5568C298.67 45.2917 298.426 45.0076 298.244 44.7045L299.312 43.9545C299.434 44.1136 299.587 44.2955 299.773 44.5C299.958 44.7083 300.212 44.8883 300.534 45.0398C300.86 45.1951 301.286 45.2727 301.812 45.2727C302.517 45.2727 303.098 45.1023 303.557 44.7614C304.015 44.4205 304.244 43.8864 304.244 43.1591V41.3864H304.131C304.032 41.5455 303.892 41.7424 303.71 41.9773C303.532 42.2083 303.275 42.4148 302.938 42.5966C302.604 42.7746 302.153 42.8636 301.585 42.8636C300.881 42.8636 300.248 42.697 299.688 42.3636C299.131 42.0303 298.689 41.5455 298.364 40.9091C298.042 40.2727 297.881 39.5 297.881 38.5909C297.881 37.697 298.038 36.9186 298.352 36.2557C298.667 35.589 299.104 35.0739 299.665 34.7102C300.225 34.3428 300.873 34.1591 301.608 34.1591C302.176 34.1591 302.627 34.2538 302.96 34.4432C303.297 34.6288 303.555 34.8409 303.733 35.0795C303.915 35.3144 304.055 35.5076 304.153 35.6591H304.29V34.2727H305.585V43.25C305.585 44 305.415 44.6098 305.074 45.0795C304.737 45.553 304.282 45.8996 303.71 46.1193C303.142 46.3428 302.509 46.4545 301.812 46.4545ZM301.767 41.6591C302.305 41.6591 302.759 41.536 303.131 41.2898C303.502 41.0436 303.784 40.6894 303.977 40.2273C304.17 39.7652 304.267 39.2121 304.267 38.5682C304.267 37.9394 304.172 37.3845 303.983 36.9034C303.794 36.4223 303.513 36.0455 303.142 35.7727C302.771 35.5 302.313 35.3636 301.767 35.3636C301.199 35.3636 300.725 35.5076 300.347 35.7955C299.972 36.0833 299.689 36.4697 299.5 36.9545C299.314 37.4394 299.222 37.9773 299.222 38.5682C299.222 39.1742 299.316 39.7102 299.506 40.1761C299.699 40.6383 299.983 41.0019 300.358 41.267C300.737 41.5284 301.206 41.6591 301.767 41.6591ZM310.608 43.2045C310.055 43.2045 309.553 43.1004 309.102 42.892C308.652 42.6799 308.294 42.375 308.028 41.9773C307.763 41.5758 307.631 41.0909 307.631 40.5227C307.631 40.0227 307.729 39.6174 307.926 39.3068C308.123 38.9924 308.386 38.7462 308.716 38.5682C309.045 38.3902 309.409 38.2576 309.807 38.1705C310.208 38.0795 310.612 38.0076 311.017 37.9545C311.547 37.8864 311.977 37.8352 312.307 37.8011C312.64 37.7633 312.883 37.7008 313.034 37.6136C313.189 37.5265 313.267 37.375 313.267 37.1591V37.1136C313.267 36.553 313.114 36.1174 312.807 35.8068C312.504 35.4962 312.044 35.3409 311.426 35.3409C310.786 35.3409 310.284 35.4811 309.92 35.7614C309.557 36.0417 309.301 36.3409 309.153 36.6591L307.881 36.2045C308.108 35.6742 308.411 35.2614 308.79 34.9659C309.172 34.6667 309.589 34.4583 310.04 34.3409C310.494 34.2197 310.941 34.1591 311.381 34.1591C311.661 34.1591 311.983 34.1932 312.347 34.2614C312.714 34.3258 313.068 34.4602 313.409 34.6648C313.754 34.8693 314.04 35.178 314.267 35.5909C314.494 36.0038 314.608 36.5568 314.608 37.25V43H313.267V41.8182H313.199C313.108 42.0076 312.956 42.2102 312.744 42.4261C312.532 42.642 312.25 42.8258 311.898 42.9773C311.545 43.1288 311.116 43.2045 310.608 43.2045ZM310.812 42C311.343 42 311.79 41.8958 312.153 41.6875C312.521 41.4792 312.797 41.2102 312.983 40.8807C313.172 40.5511 313.267 40.2045 313.267 39.8409V38.6136C313.21 38.6818 313.085 38.7443 312.892 38.8011C312.703 38.8542 312.483 38.9015 312.233 38.9432C311.987 38.9811 311.746 39.0152 311.511 39.0455C311.28 39.072 311.093 39.0947 310.949 39.1136C310.6 39.1591 310.275 39.233 309.972 39.3352C309.672 39.4337 309.43 39.5833 309.244 39.7841C309.063 39.9811 308.972 40.25 308.972 40.5909C308.972 41.0568 309.144 41.4091 309.489 41.6477C309.837 41.8826 310.278 42 310.812 42ZM318.396 37.75V43H317.055V34.2727H318.351V35.6364H318.464C318.669 35.1932 318.98 34.8371 319.396 34.5682C319.813 34.2955 320.351 34.1591 321.01 34.1591C321.601 34.1591 322.118 34.2803 322.561 34.5227C323.004 34.7614 323.349 35.125 323.595 35.6136C323.841 36.0985 323.964 36.7121 323.964 37.4545V43H322.624V37.5455C322.624 36.8598 322.446 36.3258 322.089 35.9432C321.733 35.5568 321.245 35.3636 320.624 35.3636C320.196 35.3636 319.813 35.4564 319.476 35.642C319.143 35.8277 318.879 36.0985 318.686 36.4545C318.493 36.8106 318.396 37.2424 318.396 37.75ZM326.415 43V34.2727H327.756V43H326.415ZM327.097 32.8182C326.835 32.8182 326.61 32.7292 326.42 32.5511C326.235 32.3731 326.142 32.1591 326.142 31.9091C326.142 31.6591 326.235 31.4451 326.42 31.267C326.61 31.089 326.835 31 327.097 31C327.358 31 327.581 31.089 327.767 31.267C327.956 31.4451 328.051 31.6591 328.051 31.9091C328.051 32.1591 327.956 32.3731 327.767 32.5511C327.581 32.7292 327.358 32.8182 327.097 32.8182ZM329.962 43V41.9773L334.916 35.6136V35.5227H330.121V34.2727H336.643V35.3409L331.825 41.6591V41.75H336.803V43H329.962ZM341.436 43.2045C340.883 43.2045 340.381 43.1004 339.93 42.892C339.48 42.6799 339.122 42.375 338.857 41.9773C338.591 41.5758 338.459 41.0909 338.459 40.5227C338.459 40.0227 338.557 39.6174 338.754 39.3068C338.951 38.9924 339.214 38.7462 339.544 38.5682C339.874 38.3902 340.237 38.2576 340.635 38.1705C341.036 38.0795 341.44 38.0076 341.845 37.9545C342.375 37.8864 342.805 37.8352 343.135 37.8011C343.468 37.7633 343.711 37.7008 343.862 37.6136C344.018 37.5265 344.095 37.375 344.095 37.1591V37.1136C344.095 36.553 343.942 36.1174 343.635 35.8068C343.332 35.4962 342.872 35.3409 342.254 35.3409C341.614 35.3409 341.112 35.4811 340.749 35.7614C340.385 36.0417 340.129 36.3409 339.982 36.6591L338.709 36.2045C338.936 35.6742 339.239 35.2614 339.618 34.9659C340 34.6667 340.417 34.4583 340.868 34.3409C341.322 34.2197 341.769 34.1591 342.209 34.1591C342.489 34.1591 342.811 34.1932 343.175 34.2614C343.542 34.3258 343.896 34.4602 344.237 34.6648C344.582 34.8693 344.868 35.178 345.095 35.5909C345.322 36.0038 345.436 36.5568 345.436 37.25V43H344.095V41.8182H344.027C343.936 42.0076 343.785 42.2102 343.572 42.4261C343.36 42.642 343.078 42.8258 342.726 42.9773C342.374 43.1288 341.944 43.2045 341.436 43.2045ZM341.641 42C342.171 42 342.618 41.8958 342.982 41.6875C343.349 41.4792 343.625 41.2102 343.811 40.8807C344 40.5511 344.095 40.2045 344.095 39.8409V38.6136C344.038 38.6818 343.913 38.7443 343.72 38.8011C343.531 38.8542 343.311 38.9015 343.061 38.9432C342.815 38.9811 342.574 39.0152 342.339 39.0455C342.108 39.072 341.921 39.0947 341.777 39.1136C341.429 39.1591 341.103 39.233 340.8 39.3352C340.5 39.4337 340.258 39.5833 340.072 39.7841C339.891 39.9811 339.8 40.25 339.8 40.5909C339.8 41.0568 339.972 41.4091 340.317 41.6477C340.665 41.8826 341.107 42 341.641 42ZM351.679 34.2727V35.4091H347.156V34.2727H351.679ZM348.474 32.1818H349.815V40.5C349.815 40.8788 349.87 41.1629 349.98 41.3523C350.094 41.5379 350.238 41.6629 350.412 41.7273C350.59 41.7879 350.777 41.8182 350.974 41.8182C351.122 41.8182 351.243 41.8106 351.338 41.7955C351.433 41.7765 351.509 41.7614 351.565 41.75L351.838 42.9545C351.747 42.9886 351.62 43.0227 351.457 43.0568C351.295 43.0947 351.088 43.1136 350.838 43.1136C350.459 43.1136 350.088 43.0322 349.724 42.8693C349.365 42.7064 349.065 42.4583 348.827 42.125C348.592 41.7917 348.474 41.3712 348.474 40.8636V32.1818ZM353.696 43V34.2727H355.037V43H353.696ZM354.378 32.8182C354.116 32.8182 353.891 32.7292 353.702 32.5511C353.516 32.3731 353.423 32.1591 353.423 31.9091C353.423 31.6591 353.516 31.4451 353.702 31.267C353.891 31.089 354.116 31 354.378 31C354.639 31 354.863 31.089 355.048 31.267C355.238 31.4451 355.332 31.6591 355.332 31.9091C355.332 32.1591 355.238 32.3731 355.048 32.5511C354.863 32.7292 354.639 32.8182 354.378 32.8182ZM361.038 43.1818C360.25 43.1818 359.559 42.9943 358.964 42.6193C358.374 42.2443 357.911 41.7197 357.578 41.0455C357.249 40.3712 357.084 39.5833 357.084 38.6818C357.084 37.7727 357.249 36.9792 357.578 36.3011C357.911 35.6231 358.374 35.0966 358.964 34.7216C359.559 34.3466 360.25 34.1591 361.038 34.1591C361.826 34.1591 362.516 34.3466 363.107 34.7216C363.701 35.0966 364.163 35.6231 364.493 36.3011C364.826 36.9792 364.993 37.7727 364.993 38.6818C364.993 39.5833 364.826 40.3712 364.493 41.0455C364.163 41.7197 363.701 42.2443 363.107 42.6193C362.516 42.9943 361.826 43.1818 361.038 43.1818ZM361.038 41.9773C361.637 41.9773 362.129 41.8239 362.516 41.517C362.902 41.2102 363.188 40.8068 363.374 40.3068C363.559 39.8068 363.652 39.2652 363.652 38.6818C363.652 38.0985 363.559 37.5549 363.374 37.0511C363.188 36.5473 362.902 36.1402 362.516 35.8295C362.129 35.5189 361.637 35.3636 361.038 35.3636C360.44 35.3636 359.947 35.5189 359.561 35.8295C359.175 36.1402 358.889 36.5473 358.703 37.0511C358.518 37.5549 358.425 38.0985 358.425 38.6818C358.425 39.2652 358.518 39.8068 358.703 40.3068C358.889 40.8068 359.175 41.2102 359.561 41.517C359.947 41.8239 360.44 41.9773 361.038 41.9773ZM368.381 37.75V43H367.04V34.2727H368.335V35.6364H368.449C368.653 35.1932 368.964 34.8371 369.381 34.5682C369.797 34.2955 370.335 34.1591 370.994 34.1591C371.585 34.1591 372.102 34.2803 372.545 34.5227C372.989 34.7614 373.333 35.125 373.58 35.6136C373.826 36.0985 373.949 36.7121 373.949 37.4545V43H372.608V37.5455C372.608 36.8598 372.43 36.3258 372.074 35.9432C371.718 35.5568 371.229 35.3636 370.608 35.3636C370.18 35.3636 369.797 35.4564 369.46 35.642C369.127 35.8277 368.864 36.0985 368.67 36.4545C368.477 36.8106 368.381 37.2424 368.381 37.75Z" fill="#F86EFF"/>
<path d="M186.949 110H185.472L189.744 98.3636H191.199L195.472 110H193.994L190.517 100.205H190.426L186.949 110ZM187.494 105.455H193.449V106.705H187.494V105.455ZM200.625 113.455C199.977 113.455 199.42 113.371 198.955 113.205C198.489 113.042 198.1 112.826 197.79 112.557C197.483 112.292 197.239 112.008 197.057 111.705L198.125 110.955C198.246 111.114 198.4 111.295 198.585 111.5C198.771 111.708 199.025 111.888 199.347 112.04C199.672 112.195 200.098 112.273 200.625 112.273C201.33 112.273 201.911 112.102 202.369 111.761C202.828 111.42 203.057 110.886 203.057 110.159V108.386H202.943C202.845 108.545 202.705 108.742 202.523 108.977C202.345 109.208 202.087 109.415 201.75 109.597C201.417 109.775 200.966 109.864 200.398 109.864C199.693 109.864 199.061 109.697 198.5 109.364C197.943 109.03 197.502 108.545 197.176 107.909C196.854 107.273 196.693 106.5 196.693 105.591C196.693 104.697 196.85 103.919 197.165 103.256C197.479 102.589 197.917 102.074 198.477 101.71C199.038 101.343 199.686 101.159 200.42 101.159C200.989 101.159 201.439 101.254 201.773 101.443C202.11 101.629 202.367 101.841 202.545 102.08C202.727 102.314 202.867 102.508 202.966 102.659H203.102V101.273H204.398V110.25C204.398 111 204.227 111.61 203.886 112.08C203.549 112.553 203.095 112.9 202.523 113.119C201.955 113.343 201.322 113.455 200.625 113.455ZM200.58 108.659C201.117 108.659 201.572 108.536 201.943 108.29C202.314 108.044 202.597 107.689 202.79 107.227C202.983 106.765 203.08 106.212 203.08 105.568C203.08 104.939 202.985 104.384 202.795 103.903C202.606 103.422 202.326 103.045 201.955 102.773C201.583 102.5 201.125 102.364 200.58 102.364C200.011 102.364 199.538 102.508 199.159 102.795C198.784 103.083 198.502 103.47 198.312 103.955C198.127 104.439 198.034 104.977 198.034 105.568C198.034 106.174 198.129 106.71 198.318 107.176C198.511 107.638 198.795 108.002 199.17 108.267C199.549 108.528 200.019 108.659 200.58 108.659ZM210.511 110.182C209.67 110.182 208.945 109.996 208.335 109.625C207.729 109.25 207.261 108.727 206.932 108.057C206.606 107.383 206.443 106.598 206.443 105.705C206.443 104.811 206.606 104.023 206.932 103.341C207.261 102.655 207.72 102.121 208.307 101.739C208.898 101.352 209.587 101.159 210.375 101.159C210.83 101.159 211.278 101.235 211.722 101.386C212.165 101.538 212.568 101.784 212.932 102.125C213.295 102.462 213.585 102.909 213.801 103.466C214.017 104.023 214.125 104.708 214.125 105.523V106.091H207.398V104.932H212.761C212.761 104.439 212.663 104 212.466 103.614C212.273 103.227 211.996 102.922 211.636 102.699C211.28 102.475 210.86 102.364 210.375 102.364C209.841 102.364 209.379 102.496 208.989 102.761C208.602 103.023 208.305 103.364 208.097 103.784C207.888 104.205 207.784 104.655 207.784 105.136V105.909C207.784 106.568 207.898 107.127 208.125 107.585C208.356 108.04 208.676 108.386 209.085 108.625C209.494 108.86 209.97 108.977 210.511 108.977C210.864 108.977 211.182 108.928 211.466 108.83C211.754 108.727 212.002 108.576 212.21 108.375C212.419 108.17 212.58 107.917 212.693 107.614L213.989 107.977C213.852 108.417 213.623 108.803 213.301 109.136C212.979 109.466 212.581 109.723 212.108 109.909C211.634 110.091 211.102 110.182 210.511 110.182Z" fill="#A10091"/>
</g>
<defs>
<clipPath id="clip0_1_2">
<rect width="400" height="120" fill="white"/>
</clipPath>
</defs>
</svg>
