<svg width="600" height="288" viewBox="0 0 600 288" fill="none" xmlns="http://www.w3.org/2000/svg">
<rect width="600" height="288" fill="#1F0C1D"/>
<circle cx="140.687" cy="95.4577" r="10.8147" fill="#F86EFF"/>
<circle cx="52.624" cy="144.896" r="10.8147" fill="#F86EFF"/>
<circle cx="221.025" cy="144.896" r="10.8147" fill="#F86EFF"/>
<circle cx="177.766" cy="236.049" r="10.8147" fill="#F86EFF"/>
<circle cx="91.2479" cy="236.049" r="10.8147" fill="#F86EFF"/>
<path d="M53.3965 144.896L141.459 95.4577" stroke="#F86EFF"/>
<path d="M140.687 96.2302L221.025 145.669" stroke="#F86EFF"/>
<path d="M177.766 237.594H90.4755" stroke="#F86EFF"/>
<path d="M223.342 146.441L179.311 233.732" stroke="#F86EFF"/>
<path d="M51.8515 147.214L87.3856 232.959" stroke="#F86EFF"/>
<path d="M95.1104 236.049L142.232 94.6852" stroke="#F86EFF"/>
<path d="M146.094 98.5476L176.993 233.732" stroke="#F86EFF"/>
<path d="M55.7139 145.669L174.676 233.732" stroke="#F86EFF"/>
<path d="M49.5341 144.124C51.3365 112.71 72.0905 58.9967 140.687 95.4577" stroke="#F86EFF"/>
<path d="M143.004 95.4577C219.995 99.0626 334.888 132.537 178.538 237.594" stroke="#F86EFF"/>
<path d="M219.48 147.214C211.24 159.059 166.024 175.641 51.079 147.214" stroke="#F86EFF"/>
<path d="M51.079 150.304C36.9169 216.995 43.0453 327.665 180.856 236.821" stroke="#F86EFF"/>
<path d="M358.526 139.489C360.328 108.075 381.082 54.3618 449.678 90.8228" stroke="#7008A8" stroke-dasharray="3 10"/>
<path d="M451.996 90.8228C528.986 94.4278 643.88 127.902 487.53 232.959" stroke="#7008A8" stroke-dasharray="3 10"/>
<path d="M528.471 142.579C520.232 154.424 475.016 171.006 360.071 142.579" stroke="#7008A8" stroke-dasharray="3 10"/>
<path d="M360.071 145.669C345.909 212.36 352.037 323.03 489.847 232.187" stroke="#7008A8" stroke-dasharray="3 10"/>
<circle cx="449.678" cy="90.8228" r="10.8147" fill="#F86EFF"/>
<circle cx="361.616" cy="140.262" r="10.8147" fill="#F86EFF"/>
<circle cx="530.016" cy="140.262" r="10.8147" fill="#F86EFF"/>
<circle cx="486.757" cy="231.414" r="10.8147" fill="#F86EFF"/>
<circle cx="400.24" cy="231.414" r="10.8147" fill="#F86EFF"/>
<path d="M362.388 140.262L450.451 90.8228" stroke="#F86EFF"/>
<path d="M449.678 91.5953L530.016 141.034" stroke="#F86EFF" stroke-width="0.5"/>
<path d="M486.757 232.959H399.467" stroke="#F86EFF"/>
<path d="M532.334 141.806L488.302 229.097" stroke="#F86EFF" stroke-width="3"/>
<path d="M360.843 142.579L396.377 228.324" stroke="#F86EFF" stroke-width="0.2"/>
<path d="M404.102 231.414L451.223 90.0504" stroke="#F86EFF"/>
<path d="M448.906 87.8665L485.985 231.548" stroke="#F86EFF" stroke-width="7"/>
<path d="M364.706 141.034L483.668 229.097" stroke="#F86EFF" stroke-width="5"/>
<path d="M55.7569 22.619C55.7569 23.299 55.5586 23.877 55.1619 24.353C54.7766 24.8177 54.2666 25.1067 53.6319 25.22V25.254C54.4253 25.3447 55.0316 25.6167 55.4509 26.07C55.8816 26.512 56.0969 27.107 56.0969 27.855C56.0969 28.8637 55.7683 29.64 55.1109 30.184C54.4536 30.728 53.5073 31 52.2719 31H48.2089V19.644H52.1359C53.3033 19.644 54.1986 19.899 54.8219 20.409C55.4453 20.919 55.7569 21.6557 55.7569 22.619ZM52.0339 20.851H49.6199V24.744H52.0339C52.7593 24.744 53.3146 24.5797 53.6999 24.251C54.0853 23.9223 54.2779 23.4407 54.2779 22.806C54.2779 22.1713 54.0853 21.6897 53.6999 21.361C53.3259 21.021 52.7706 20.851 52.0339 20.851ZM52.2209 25.917H49.6199V29.827H52.2209C53.0143 29.827 53.6206 29.6627 54.0399 29.334C54.4593 28.994 54.6689 28.5067 54.6689 27.872C54.6689 27.2373 54.4593 26.7557 54.0399 26.427C53.6206 26.087 53.0143 25.917 52.2209 25.917ZM58.4335 31V22.5H59.5385L59.7255 24.676C59.8842 23.962 60.2128 23.3897 60.7115 22.959C61.2102 22.517 61.7825 22.296 62.4285 22.296C62.5078 22.296 62.5872 22.3017 62.6665 22.313C62.7572 22.3243 62.8422 22.3357 62.9215 22.347L62.8365 23.809C62.7685 23.7977 62.6722 23.7863 62.5475 23.775C62.4228 23.7637 62.2925 23.758 62.1565 23.758C61.4538 23.758 60.8872 24.0243 60.4565 24.557C60.0372 25.0897 59.8275 25.8037 59.8275 26.699V31H58.4335ZM67.0695 30.116C67.7042 30.116 68.2142 29.912 68.5995 29.504C68.9848 29.096 69.1775 28.535 69.1775 27.821V27.107C69.0302 27.0957 68.8885 27.09 68.7525 27.09C68.6165 27.0787 68.4918 27.073 68.3785 27.073C67.4038 27.073 66.6785 27.2147 66.2025 27.498C65.7265 27.77 65.4885 28.1837 65.4885 28.739C65.4885 29.1697 65.6302 29.5097 65.9135 29.759C66.1968 29.997 66.5822 30.116 67.0695 30.116ZM67.5795 22.296C68.5202 22.296 69.2398 22.5227 69.7385 22.976C70.2372 23.418 70.4865 24.064 70.4865 24.914V29.334C70.4865 29.5833 70.5375 29.7703 70.6395 29.895C70.7415 30.0197 70.9002 30.082 71.1155 30.082C71.2062 30.082 71.3025 30.065 71.4045 30.031C71.5065 29.997 71.5858 29.9517 71.6425 29.895L71.7275 30.932C71.6255 31 71.4838 31.0567 71.3025 31.102C71.1325 31.1473 70.9625 31.17 70.7925 31.17C70.4752 31.17 70.1975 31.1077 69.9595 30.983C69.7328 30.847 69.5572 30.6543 69.4325 30.405C69.3872 30.3143 69.3418 30.218 69.2965 30.116C69.2625 30.0027 69.2342 29.878 69.2115 29.742C69.0528 30.184 68.7468 30.5353 68.2935 30.796C67.8402 31.0567 67.3245 31.187 66.7465 31.187C65.9532 31.187 65.3128 30.9717 64.8255 30.541C64.3495 30.099 64.1115 29.5153 64.1115 28.79C64.1115 27.906 64.4742 27.226 65.1995 26.75C65.9362 26.274 66.9958 26.036 68.3785 26.036C68.4465 26.036 68.5315 26.0417 68.6335 26.053C68.7468 26.053 68.9282 26.0587 69.1775 26.07V25.067C69.1775 24.5457 69.0302 24.1433 68.7355 23.86C68.4522 23.5767 68.0385 23.435 67.4945 23.435C66.9732 23.435 66.5708 23.5653 66.2875 23.826C66.0042 24.0867 65.8512 24.4663 65.8285 24.965L64.4685 24.727C64.5592 23.979 64.8822 23.3897 65.4375 22.959C66.0042 22.517 66.7182 22.296 67.5795 22.296ZM74.3375 18.896C74.6209 18.896 74.8589 18.9923 75.0515 19.185C75.2442 19.3777 75.3405 19.6213 75.3405 19.916C75.3405 20.2107 75.2442 20.4543 75.0515 20.647C74.8589 20.8397 74.6209 20.936 74.3375 20.936C74.0542 20.936 73.8162 20.8397 73.6235 20.647C73.4309 20.4543 73.3345 20.2107 73.3345 19.916C73.3345 19.6213 73.4309 19.3777 73.6235 19.185C73.8162 18.9923 74.0542 18.896 74.3375 18.896ZM73.6405 31V22.5H75.0345V31H73.6405ZM78.0233 22.5H79.0603L79.2303 24.149C79.4683 23.5597 79.8367 23.1063 80.3353 22.789C80.834 22.4603 81.4177 22.296 82.0863 22.296C82.8797 22.296 83.5143 22.5453 83.9903 23.044C84.4663 23.5313 84.7043 24.1943 84.7043 25.033V31H83.3103V25.322C83.3103 24.744 83.163 24.302 82.8683 23.996C82.585 23.6787 82.177 23.52 81.6443 23.52C80.9417 23.52 80.392 23.741 79.9953 24.183C79.61 24.625 79.4173 25.254 79.4173 26.07V31H78.0233V22.5ZM94.623 23.316C94.0224 23.316 93.552 23.4803 93.212 23.809C92.872 24.1263 92.702 24.574 92.702 25.152C92.702 25.73 92.872 26.1833 93.212 26.512C93.552 26.8293 94.0224 26.988 94.623 26.988C95.235 26.988 95.711 26.8293 96.051 26.512C96.391 26.1833 96.561 25.73 96.561 25.152C96.561 24.574 96.3854 24.1263 96.034 23.809C95.694 23.4803 95.2237 23.316 94.623 23.316ZM98.873 31.697C98.873 32.6037 98.4764 33.3063 97.683 33.805C96.8897 34.315 95.8244 34.57 94.487 34.57C93.331 34.57 92.4017 34.349 91.699 33.907C90.9964 33.4763 90.645 32.8813 90.645 32.122C90.645 31.646 90.8207 31.2437 91.172 30.915C91.5234 30.5863 91.9937 30.3767 92.583 30.286C92.2884 30.184 92.056 30.0253 91.886 29.81C91.7274 29.5833 91.648 29.3227 91.648 29.028C91.648 28.6993 91.75 28.416 91.954 28.178C92.158 27.94 92.447 27.7587 92.821 27.634C92.345 27.396 91.9824 27.0673 91.733 26.648C91.4837 26.2173 91.359 25.7187 91.359 25.152C91.359 24.2793 91.6537 23.588 92.243 23.078C92.8324 22.5567 93.6257 22.296 94.623 22.296C95.1104 22.296 95.558 22.364 95.966 22.5C96.374 22.6247 96.7254 22.8117 97.02 23.061C97.2014 22.9703 97.343 22.8287 97.445 22.636C97.5584 22.4433 97.6547 22.1147 97.734 21.65L99.026 22.109C98.958 22.5057 98.788 22.857 98.516 23.163C98.244 23.4577 97.921 23.6447 97.547 23.724C97.6717 23.928 97.7624 24.149 97.819 24.387C97.8757 24.625 97.904 24.88 97.904 25.152C97.904 26.036 97.6037 26.7387 97.003 27.26C96.4137 27.77 95.6204 28.025 94.623 28.025C94.4304 28.025 94.2377 28.0137 94.045 27.991C93.8524 27.9683 93.6597 27.9343 93.467 27.889C93.2517 27.9797 93.0874 28.0987 92.974 28.246C92.872 28.382 92.821 28.5463 92.821 28.739C92.821 28.9543 92.8947 29.1187 93.042 29.232C93.1894 29.3453 93.4047 29.402 93.688 29.402H96.051C96.9464 29.402 97.6377 29.606 98.125 30.014C98.6237 30.4107 98.873 30.9717 98.873 31.697ZM91.988 32.003C91.988 32.479 92.2147 32.853 92.668 33.125C93.1214 33.397 93.7164 33.533 94.453 33.533C95.405 33.533 96.1644 33.38 96.731 33.074C97.2977 32.7793 97.581 32.3657 97.581 31.833C97.581 31.459 97.445 31.1757 97.173 30.983C96.901 30.779 96.5044 30.677 95.983 30.677H93.569C93.093 30.677 92.7077 30.796 92.413 31.034C92.1297 31.272 91.988 31.595 91.988 32.003ZM100.701 31V22.5H101.806L101.993 24.676C102.152 23.962 102.48 23.3897 102.979 22.959C103.478 22.517 104.05 22.296 104.696 22.296C104.775 22.296 104.855 22.3017 104.934 22.313C105.025 22.3243 105.11 22.3357 105.189 22.347L105.104 23.809C105.036 23.7977 104.94 23.7863 104.815 23.775C104.69 23.7637 104.56 23.758 104.424 23.758C103.721 23.758 103.155 24.0243 102.724 24.557C102.305 25.0897 102.095 25.8037 102.095 26.699V31H100.701ZM110.106 22.296C111.273 22.296 112.197 22.6927 112.877 23.486C113.568 24.2793 113.914 25.3673 113.914 26.75C113.914 28.1327 113.568 29.2207 112.877 30.014C112.197 30.8073 111.273 31.204 110.106 31.204C108.939 31.204 108.009 30.8073 107.318 30.014C106.638 29.2207 106.298 28.1327 106.298 26.75C106.298 25.3673 106.638 24.2793 107.318 23.486C108.009 22.6927 108.939 22.296 110.106 22.296ZM110.106 30.116C110.888 30.116 111.483 29.8327 111.891 29.266C112.299 28.688 112.503 27.8493 112.503 26.75C112.503 25.6507 112.299 24.8177 111.891 24.251C111.483 23.673 110.888 23.384 110.106 23.384C109.324 23.384 108.729 23.673 108.321 24.251C107.913 24.8177 107.709 25.6507 107.709 26.75C107.709 27.8493 107.913 28.688 108.321 29.266C108.729 29.8327 109.324 30.116 110.106 30.116ZM118.432 29.334L120.2 22.5H121.458L123.226 29.334H123.26L125.028 22.5H126.371L123.957 31H122.597L120.829 24.302H120.795L119.027 31H117.667L115.253 22.5H116.63L118.398 29.334H118.432ZM130.842 31.204C129.935 31.204 129.176 30.9943 128.564 30.575C127.963 30.1557 127.601 29.5833 127.476 28.858L128.751 28.501C128.819 28.977 129.046 29.368 129.431 29.674C129.828 29.98 130.298 30.133 130.842 30.133C131.431 30.133 131.885 30.0197 132.202 29.793C132.531 29.555 132.695 29.2207 132.695 28.79C132.695 28.4273 132.565 28.1383 132.304 27.923C132.055 27.7077 131.499 27.5037 130.638 27.311C130.071 27.1863 129.652 27.073 129.38 26.971C129.119 26.869 128.893 26.7557 128.7 26.631C128.417 26.427 128.201 26.1777 128.054 25.883C127.918 25.5883 127.85 25.2427 127.85 24.846C127.85 24.0753 128.122 23.4577 128.666 22.993C129.221 22.5283 129.941 22.296 130.825 22.296C131.754 22.296 132.474 22.5 132.984 22.908C133.505 23.3047 133.811 23.8883 133.902 24.659L132.593 24.846C132.548 24.37 132.372 24.0073 132.066 23.758C131.771 23.4973 131.358 23.367 130.825 23.367C130.304 23.367 129.896 23.4917 129.601 23.741C129.306 23.979 129.159 24.3133 129.159 24.744C129.159 25.0953 129.284 25.3787 129.533 25.594C129.782 25.798 130.332 25.9907 131.182 26.172C131.76 26.2967 132.185 26.41 132.457 26.512C132.729 26.6027 132.961 26.716 133.154 26.852C133.437 27.056 133.647 27.311 133.783 27.617C133.93 27.9117 134.004 28.2687 134.004 28.688C134.004 29.4587 133.715 30.0707 133.137 30.524C132.559 30.9773 131.794 31.204 130.842 31.204ZM142.584 30.031C142.72 30.031 142.851 30.014 142.975 29.98C143.111 29.9347 143.236 29.8723 143.349 29.793L143.502 30.864C143.344 30.9547 143.145 31.0283 142.907 31.085C142.669 31.1417 142.437 31.17 142.21 31.17C141.621 31.17 141.173 31.0227 140.867 30.728C140.573 30.422 140.425 29.98 140.425 29.402V18.726H141.819V29.249C141.819 29.521 141.882 29.7193 142.006 29.844C142.131 29.9687 142.324 30.031 142.584 30.031ZM148.721 22.296C149.889 22.296 150.812 22.6927 151.492 23.486C152.184 24.2793 152.529 25.3673 152.529 26.75C152.529 28.1327 152.184 29.2207 151.492 30.014C150.812 30.8073 149.889 31.204 148.721 31.204C147.554 31.204 146.625 30.8073 145.933 30.014C145.253 29.2207 144.913 28.1327 144.913 26.75C144.913 25.3673 145.253 24.2793 145.933 23.486C146.625 22.6927 147.554 22.296 148.721 22.296ZM148.721 30.116C149.503 30.116 150.098 29.8327 150.506 29.266C150.914 28.688 151.118 27.8493 151.118 26.75C151.118 25.6507 150.914 24.8177 150.506 24.251C150.098 23.673 149.503 23.384 148.721 23.384C147.939 23.384 147.344 23.673 146.936 24.251C146.528 24.8177 146.324 25.6507 146.324 26.75C146.324 27.8493 146.528 28.688 146.936 29.266C147.344 29.8327 147.939 30.116 148.721 30.116ZM157.71 30.031C157.971 30.031 158.203 30.0027 158.407 29.946C158.611 29.878 158.844 29.759 159.104 29.589L159.359 30.694C159.11 30.8527 158.827 30.9773 158.509 31.068C158.203 31.1587 157.903 31.204 157.608 31.204C156.792 31.204 156.163 31.0057 155.721 30.609C155.291 30.201 155.075 29.6173 155.075 28.858V23.571H153.851V22.5H155.075V20.698L156.469 20.477V22.5H159.019V23.571H156.469V28.722C156.469 29.1527 156.571 29.4813 156.775 29.708C156.991 29.9233 157.302 30.031 157.71 30.031ZM163.929 31.204C163.022 31.204 162.263 30.9943 161.651 30.575C161.05 30.1557 160.688 29.5833 160.563 28.858L161.838 28.501C161.906 28.977 162.133 29.368 162.518 29.674C162.915 29.98 163.385 30.133 163.929 30.133C164.518 30.133 164.972 30.0197 165.289 29.793C165.618 29.555 165.782 29.2207 165.782 28.79C165.782 28.4273 165.652 28.1383 165.391 27.923C165.142 27.7077 164.586 27.5037 163.725 27.311C163.158 27.1863 162.739 27.073 162.467 26.971C162.206 26.869 161.98 26.7557 161.787 26.631C161.504 26.427 161.288 26.1777 161.141 25.883C161.005 25.5883 160.937 25.2427 160.937 24.846C160.937 24.0753 161.209 23.4577 161.753 22.993C162.308 22.5283 163.028 22.296 163.912 22.296C164.841 22.296 165.561 22.5 166.071 22.908C166.592 23.3047 166.898 23.8883 166.989 24.659L165.68 24.846C165.635 24.37 165.459 24.0073 165.153 23.758C164.858 23.4973 164.445 23.367 163.912 23.367C163.391 23.367 162.983 23.4917 162.688 23.741C162.393 23.979 162.246 24.3133 162.246 24.744C162.246 25.0953 162.371 25.3787 162.62 25.594C162.869 25.798 163.419 25.9907 164.269 26.172C164.847 26.2967 165.272 26.41 165.544 26.512C165.816 26.6027 166.048 26.716 166.241 26.852C166.524 27.056 166.734 27.311 166.87 27.617C167.017 27.9117 167.091 28.2687 167.091 28.688C167.091 29.4587 166.802 30.0707 166.224 30.524C165.646 30.9773 164.881 31.204 163.929 31.204ZM176.844 22.296C178.012 22.296 178.935 22.6927 179.615 23.486C180.307 24.2793 180.652 25.3673 180.652 26.75C180.652 28.1327 180.307 29.2207 179.615 30.014C178.935 30.8073 178.012 31.204 176.844 31.204C175.677 31.204 174.748 30.8073 174.056 30.014C173.376 29.2207 173.036 28.1327 173.036 26.75C173.036 25.3673 173.376 24.2793 174.056 23.486C174.748 22.6927 175.677 22.296 176.844 22.296ZM176.844 30.116C177.626 30.116 178.221 29.8327 178.629 29.266C179.037 28.688 179.241 27.8493 179.241 26.75C179.241 25.6507 179.037 24.8177 178.629 24.251C178.221 23.673 177.626 23.384 176.844 23.384C176.062 23.384 175.467 23.673 175.059 24.251C174.651 24.8177 174.447 25.6507 174.447 26.75C174.447 27.8493 174.651 28.688 175.059 29.266C175.467 29.8327 176.062 30.116 176.844 30.116ZM183.283 31V23.571H182.042V22.5H183.283V21.531C183.283 20.6357 183.55 19.9103 184.082 19.355C184.615 18.7997 185.306 18.522 186.156 18.522C186.428 18.522 186.689 18.556 186.938 18.624C187.199 18.6807 187.46 18.777 187.72 18.913L187.397 20.086C187.205 19.9387 187.018 19.8367 186.836 19.78C186.655 19.712 186.44 19.678 186.19 19.678C185.703 19.678 185.329 19.8423 185.068 20.171C184.808 20.4997 184.677 20.9643 184.677 21.565V22.5H186.853V23.571H184.677V31H183.283ZM192.79 22.5H193.827L193.997 24.149C194.235 23.5597 194.603 23.1063 195.102 22.789C195.601 22.4603 196.184 22.296 196.853 22.296C197.646 22.296 198.281 22.5453 198.757 23.044C199.233 23.5313 199.471 24.1943 199.471 25.033V31H198.077V25.322C198.077 24.744 197.93 24.302 197.635 23.996C197.352 23.6787 196.944 23.52 196.411 23.52C195.708 23.52 195.159 23.741 194.762 24.183C194.377 24.625 194.184 25.254 194.184 26.07V31H192.79V22.5ZM205.565 30.099C206.097 30.099 206.534 29.9687 206.874 29.708C207.214 29.4473 207.446 29.062 207.571 28.552L208.778 28.892C208.596 29.64 208.228 30.2123 207.673 30.609C207.117 31.0057 206.415 31.204 205.565 31.204C204.375 31.204 203.445 30.8187 202.777 30.048C202.108 29.2773 201.774 28.1893 201.774 26.784C201.774 25.4127 202.114 24.3247 202.794 23.52C203.485 22.704 204.409 22.296 205.565 22.296C206.573 22.296 207.372 22.6247 207.962 23.282C208.562 23.928 208.863 24.7893 208.863 25.866C208.863 26.0813 208.846 26.291 208.812 26.495C208.778 26.699 208.738 26.869 208.693 27.005H203.117C203.151 27.991 203.377 28.756 203.797 29.3C204.227 29.8327 204.817 30.099 205.565 30.099ZM205.531 23.367C204.862 23.367 204.318 23.5937 203.899 24.047C203.491 24.5003 203.241 25.1463 203.151 25.985H207.469C207.48 25.9283 207.486 25.8717 207.486 25.815C207.486 25.747 207.486 25.6563 207.486 25.543C207.486 24.897 207.304 24.3757 206.942 23.979C206.59 23.571 206.12 23.367 205.531 23.367ZM217.712 31H216.607L216.437 29.385C216.244 29.9743 215.915 30.4277 215.451 30.745C214.986 31.051 214.419 31.204 213.751 31.204C212.969 31.204 212.334 30.9603 211.847 30.473C211.371 29.9857 211.133 29.3227 211.133 28.484V22.5H212.527V28.331C212.527 28.875 212.668 29.3057 212.952 29.623C213.235 29.929 213.632 30.082 214.142 30.082C214.81 30.082 215.337 29.8497 215.723 29.385C216.108 28.9203 216.301 28.2687 216.301 27.43V22.5H217.712V31ZM220.697 31V22.5H221.802L221.989 24.676C222.148 23.962 222.477 23.3897 222.975 22.959C223.474 22.517 224.046 22.296 224.692 22.296C224.772 22.296 224.851 22.3017 224.93 22.313C225.021 22.3243 225.106 22.3357 225.185 22.347L225.1 23.809C225.032 23.7977 224.936 23.7863 224.811 23.775C224.687 23.7637 224.556 23.758 224.42 23.758C223.718 23.758 223.151 24.0243 222.72 24.557C222.301 25.0897 222.091 25.8037 222.091 26.699V31H220.697ZM229.333 30.116C229.968 30.116 230.478 29.912 230.863 29.504C231.249 29.096 231.441 28.535 231.441 27.821V27.107C231.294 27.0957 231.152 27.09 231.016 27.09C230.88 27.0787 230.756 27.073 230.642 27.073C229.668 27.073 228.942 27.2147 228.466 27.498C227.99 27.77 227.752 28.1837 227.752 28.739C227.752 29.1697 227.894 29.5097 228.177 29.759C228.461 29.997 228.846 30.116 229.333 30.116ZM229.843 22.296C230.784 22.296 231.504 22.5227 232.002 22.976C232.501 23.418 232.75 24.064 232.75 24.914V29.334C232.75 29.5833 232.801 29.7703 232.903 29.895C233.005 30.0197 233.164 30.082 233.379 30.082C233.47 30.082 233.566 30.065 233.668 30.031C233.77 29.997 233.85 29.9517 233.906 29.895L233.991 30.932C233.889 31 233.748 31.0567 233.566 31.102C233.396 31.1473 233.226 31.17 233.056 31.17C232.739 31.17 232.461 31.1077 232.223 30.983C231.997 30.847 231.821 30.6543 231.696 30.405C231.651 30.3143 231.606 30.218 231.56 30.116C231.526 30.0027 231.498 29.878 231.475 29.742C231.317 30.184 231.011 30.5353 230.557 30.796C230.104 31.0567 229.588 31.187 229.01 31.187C228.217 31.187 227.577 30.9717 227.089 30.541C226.613 30.099 226.375 29.5153 226.375 28.79C226.375 27.906 226.738 27.226 227.463 26.75C228.2 26.274 229.26 26.036 230.642 26.036C230.71 26.036 230.795 26.0417 230.897 26.053C231.011 26.053 231.192 26.0587 231.441 26.07V25.067C231.441 24.5457 231.294 24.1433 230.999 23.86C230.716 23.5767 230.302 23.435 229.758 23.435C229.237 23.435 228.835 23.5653 228.551 23.826C228.268 24.0867 228.115 24.4663 228.092 24.965L226.732 24.727C226.823 23.979 227.146 23.3897 227.701 22.959C228.268 22.517 228.982 22.296 229.843 22.296ZM237.927 30.031C238.063 30.031 238.194 30.014 238.318 29.98C238.454 29.9347 238.579 29.8723 238.692 29.793L238.845 30.864C238.687 30.9547 238.488 31.0283 238.25 31.085C238.012 31.1417 237.78 31.17 237.553 31.17C236.964 31.17 236.516 31.0227 236.21 30.728C235.916 30.422 235.768 29.98 235.768 29.402V18.726H237.162V29.249C237.162 29.521 237.225 29.7193 237.349 29.844C237.474 29.9687 237.667 30.031 237.927 30.031ZM31.5886 52.204C30.4212 52.204 29.4976 51.8073 28.8176 51.014C28.1376 50.2207 27.7976 49.1327 27.7976 47.75C27.7976 46.3787 28.1376 45.2963 28.8176 44.503C29.4976 43.6983 30.4212 43.296 31.5886 43.296C32.4386 43.296 33.1469 43.534 33.7136 44.01C34.2802 44.486 34.6089 45.115 34.6996 45.897L33.4246 46.135C33.3792 45.625 33.1866 45.2113 32.8466 44.894C32.5179 44.5653 32.0986 44.401 31.5886 44.401C30.8406 44.401 30.2569 44.6957 29.8376 45.285C29.4182 45.8743 29.2086 46.696 29.2086 47.75C29.2086 48.804 29.4182 49.6257 29.8376 50.215C30.2569 50.8043 30.8406 51.099 31.5886 51.099C32.1099 51.099 32.5349 50.9403 32.8636 50.623C33.1922 50.2943 33.3792 49.8637 33.4246 49.331L34.6996 49.569C34.5749 50.3963 34.2406 51.0423 33.6966 51.507C33.1526 51.9717 32.4499 52.204 31.5886 52.204ZM40.1222 43.296C41.2895 43.296 42.2132 43.6927 42.8932 44.486C43.5845 45.2793 43.9302 46.3673 43.9302 47.75C43.9302 49.1327 43.5845 50.2207 42.8932 51.014C42.2132 51.8073 41.2895 52.204 40.1222 52.204C38.9548 52.204 38.0255 51.8073 37.3342 51.014C36.6542 50.2207 36.3142 49.1327 36.3142 47.75C36.3142 46.3673 36.6542 45.2793 37.3342 44.486C38.0255 43.6927 38.9548 43.296 40.1222 43.296ZM40.1222 51.116C40.9042 51.116 41.4992 50.8327 41.9072 50.266C42.3152 49.688 42.5192 48.8493 42.5192 47.75C42.5192 46.6507 42.3152 45.8177 41.9072 45.251C41.4992 44.673 40.9042 44.384 40.1222 44.384C39.3402 44.384 38.7452 44.673 38.3372 45.251C37.9292 45.8177 37.7252 46.6507 37.7252 47.75C37.7252 48.8493 37.9292 49.688 38.3372 50.266C38.7452 50.8327 39.3402 51.116 40.1222 51.116ZM46.3061 43.5H47.3431L47.5131 45.149C47.7511 44.5597 48.1194 44.1063 48.6181 43.789C49.1167 43.4603 49.7004 43.296 50.3691 43.296C51.1624 43.296 51.7971 43.5453 52.2731 44.044C52.7491 44.5313 52.9871 45.1943 52.9871 46.033V52H51.5931V46.322C51.5931 45.744 51.4457 45.302 51.1511 44.996C50.8677 44.6787 50.4597 44.52 49.9271 44.52C49.2244 44.52 48.6747 44.741 48.2781 45.183C47.8927 45.625 47.7001 46.254 47.7001 47.07V52H46.3061V43.5ZM55.9018 43.5H56.9388L57.1088 45.149C57.3468 44.5597 57.7151 44.1063 58.2138 43.789C58.7124 43.4603 59.2961 43.296 59.9648 43.296C60.7581 43.296 61.3928 43.5453 61.8688 44.044C62.3448 44.5313 62.5828 45.1943 62.5828 46.033V52H61.1888V46.322C61.1888 45.744 61.0414 45.302 60.7468 44.996C60.4634 44.6787 60.0554 44.52 59.5228 44.52C58.8201 44.52 58.2704 44.741 57.8738 45.183C57.4884 45.625 57.2958 46.254 57.2958 47.07V52H55.9018V43.5ZM68.6765 51.099C69.2091 51.099 69.6455 50.9687 69.9855 50.708C70.3255 50.4473 70.5578 50.062 70.6825 49.552L71.8895 49.892C71.7081 50.64 71.3398 51.2123 70.7845 51.609C70.2291 52.0057 69.5265 52.204 68.6765 52.204C67.4865 52.204 66.5571 51.8187 65.8885 51.048C65.2198 50.2773 64.8855 49.1893 64.8855 47.784C64.8855 46.4127 65.2255 45.3247 65.9055 44.52C66.5968 43.704 67.5205 43.296 68.6765 43.296C69.6851 43.296 70.4841 43.6247 71.0735 44.282C71.6741 44.928 71.9745 45.7893 71.9745 46.866C71.9745 47.0813 71.9575 47.291 71.9235 47.495C71.8895 47.699 71.8498 47.869 71.8045 48.005H66.2285C66.2625 48.991 66.4891 49.756 66.9085 50.3C67.3391 50.8327 67.9285 51.099 68.6765 51.099ZM68.6425 44.367C67.9738 44.367 67.4298 44.5937 67.0105 45.047C66.6025 45.5003 66.3531 46.1463 66.2625 46.985H70.5805C70.5918 46.9283 70.5975 46.8717 70.5975 46.815C70.5975 46.747 70.5975 46.6563 70.5975 46.543C70.5975 45.897 70.4161 45.3757 70.0535 44.979C69.7021 44.571 69.2318 44.367 68.6425 44.367ZM77.5915 52.204C76.4242 52.204 75.5005 51.8073 74.8205 51.014C74.1405 50.2207 73.8005 49.1327 73.8005 47.75C73.8005 46.3787 74.1405 45.2963 74.8205 44.503C75.5005 43.6983 76.4242 43.296 77.5915 43.296C78.4415 43.296 79.1498 43.534 79.7165 44.01C80.2832 44.486 80.6118 45.115 80.7025 45.897L79.4275 46.135C79.3822 45.625 79.1895 45.2113 78.8495 44.894C78.5208 44.5653 78.1015 44.401 77.5915 44.401C76.8435 44.401 76.2598 44.6957 75.8405 45.285C75.4212 45.8743 75.2115 46.696 75.2115 47.75C75.2115 48.804 75.4212 49.6257 75.8405 50.215C76.2598 50.8043 76.8435 51.099 77.5915 51.099C78.1128 51.099 78.5378 50.9403 78.8665 50.623C79.1952 50.2943 79.3822 49.8637 79.4275 49.331L80.7025 49.569C80.5778 50.3963 80.2435 51.0423 79.6995 51.507C79.1555 51.9717 78.4528 52.204 77.5915 52.204ZM85.7341 51.031C85.9948 51.031 86.2271 51.0027 86.4311 50.946C86.6351 50.878 86.8674 50.759 87.1281 50.589L87.3831 51.694C87.1338 51.8527 86.8504 51.9773 86.5331 52.068C86.2271 52.1587 85.9268 52.204 85.6321 52.204C84.8161 52.204 84.1871 52.0057 83.7451 51.609C83.3144 51.201 83.0991 50.6173 83.0991 49.858V44.571H81.8751V43.5H83.0991V41.698L84.4931 41.477V43.5H87.0431V44.571H84.4931V49.722C84.4931 50.1527 84.5951 50.4813 84.7991 50.708C85.0144 50.9233 85.3261 51.031 85.7341 51.031ZM90.1339 39.896C90.4173 39.896 90.6553 39.9923 90.8479 40.185C91.0406 40.3777 91.1369 40.6213 91.1369 40.916C91.1369 41.2107 91.0406 41.4543 90.8479 41.647C90.6553 41.8397 90.4173 41.936 90.1339 41.936C89.8506 41.936 89.6126 41.8397 89.4199 41.647C89.2273 41.4543 89.1309 41.2107 89.1309 40.916C89.1309 40.6213 89.2273 40.3777 89.4199 40.185C89.6126 39.9923 89.8506 39.896 90.1339 39.896ZM89.4369 52V43.5H90.8309V52H89.4369ZM97.0157 43.296C98.1831 43.296 99.1067 43.6927 99.7867 44.486C100.478 45.2793 100.824 46.3673 100.824 47.75C100.824 49.1327 100.478 50.2207 99.7867 51.014C99.1067 51.8073 98.1831 52.204 97.0157 52.204C95.8484 52.204 94.9191 51.8073 94.2277 51.014C93.5477 50.2207 93.2077 49.1327 93.2077 47.75C93.2077 46.3673 93.5477 45.2793 94.2277 44.486C94.9191 43.6927 95.8484 43.296 97.0157 43.296ZM97.0157 51.116C97.7977 51.116 98.3927 50.8327 98.8007 50.266C99.2087 49.688 99.4127 48.8493 99.4127 47.75C99.4127 46.6507 99.2087 45.8177 98.8007 45.251C98.3927 44.673 97.7977 44.384 97.0157 44.384C96.2337 44.384 95.6387 44.673 95.2307 45.251C94.8227 45.8177 94.6187 46.6507 94.6187 47.75C94.6187 48.8493 94.8227 49.688 95.2307 50.266C95.6387 50.8327 96.2337 51.116 97.0157 51.116ZM103.2 43.5H104.237L104.407 45.149C104.645 44.5597 105.013 44.1063 105.512 43.789C106.01 43.4603 106.594 43.296 107.263 43.296C108.056 43.296 108.691 43.5453 109.167 44.044C109.643 44.5313 109.881 45.1943 109.881 46.033V52H108.487V46.322C108.487 45.744 108.339 45.302 108.045 44.996C107.761 44.6787 107.353 44.52 106.821 44.52C106.118 44.52 105.568 44.741 105.172 45.183C104.786 45.625 104.594 46.254 104.594 47.07V52H103.2V43.5ZM115.311 52.204C114.405 52.204 113.645 51.9943 113.033 51.575C112.433 51.1557 112.07 50.5833 111.945 49.858L113.22 49.501C113.288 49.977 113.515 50.368 113.9 50.674C114.297 50.98 114.767 51.133 115.311 51.133C115.901 51.133 116.354 51.0197 116.671 50.793C117 50.555 117.164 50.2207 117.164 49.79C117.164 49.4273 117.034 49.1383 116.773 48.923C116.524 48.7077 115.969 48.5037 115.107 48.311C114.541 48.1863 114.121 48.073 113.849 47.971C113.589 47.869 113.362 47.7557 113.169 47.631C112.886 47.427 112.671 47.1777 112.523 46.883C112.387 46.5883 112.319 46.2427 112.319 45.846C112.319 45.0753 112.591 44.4577 113.135 43.993C113.691 43.5283 114.41 43.296 115.294 43.296C116.224 43.296 116.943 43.5 117.453 43.908C117.975 44.3047 118.281 44.8883 118.371 45.659L117.062 45.846C117.017 45.37 116.841 45.0073 116.535 44.758C116.241 44.4973 115.827 44.367 115.294 44.367C114.773 44.367 114.365 44.4917 114.07 44.741C113.776 44.979 113.628 45.3133 113.628 45.744C113.628 46.0953 113.753 46.3787 114.002 46.594C114.252 46.798 114.801 46.9907 115.651 47.172C116.229 47.2967 116.654 47.41 116.926 47.512C117.198 47.6027 117.431 47.716 117.623 47.852C117.907 48.056 118.116 48.311 118.252 48.617C118.4 48.9117 118.473 49.2687 118.473 49.688C118.473 50.4587 118.184 51.0707 117.606 51.524C117.028 51.9773 116.263 52.204 115.311 52.204ZM125.728 39.896C126.011 39.896 126.249 39.9923 126.442 40.185C126.634 40.3777 126.731 40.6213 126.731 40.916C126.731 41.2107 126.634 41.4543 126.442 41.647C126.249 41.8397 126.011 41.936 125.728 41.936C125.444 41.936 125.206 41.8397 125.014 41.647C124.821 41.4543 124.725 41.2107 124.725 40.916C124.725 40.6213 124.821 40.3777 125.014 40.185C125.206 39.9923 125.444 39.896 125.728 39.896ZM125.031 52V43.5H126.425V52H125.031ZM129.413 43.5H130.45L130.62 45.149C130.858 44.5597 131.227 44.1063 131.725 43.789C132.224 43.4603 132.808 43.296 133.476 43.296C134.27 43.296 134.904 43.5453 135.38 44.044C135.856 44.5313 136.094 45.1943 136.094 46.033V52H134.7V46.322C134.7 45.744 134.553 45.302 134.258 44.996C133.975 44.6787 133.567 44.52 133.034 44.52C132.332 44.52 131.782 44.741 131.385 45.183C131 45.625 130.807 46.254 130.807 47.07V52H129.413V43.5ZM146.438 51.099C146.971 51.099 147.407 50.9687 147.747 50.708C148.087 50.4473 148.32 50.062 148.444 49.552L149.651 49.892C149.47 50.64 149.102 51.2123 148.546 51.609C147.991 52.0057 147.288 52.204 146.438 52.204C145.248 52.204 144.319 51.8187 143.65 51.048C142.982 50.2773 142.647 49.1893 142.647 47.784C142.647 46.4127 142.987 45.3247 143.667 44.52C144.359 43.704 145.282 43.296 146.438 43.296C147.447 43.296 148.246 43.6247 148.835 44.282C149.436 44.928 149.736 45.7893 149.736 46.866C149.736 47.0813 149.719 47.291 149.685 47.495C149.651 47.699 149.612 47.869 149.566 48.005H143.99C144.024 48.991 144.251 49.756 144.67 50.3C145.101 50.8327 145.69 51.099 146.438 51.099ZM146.404 44.367C145.736 44.367 145.192 44.5937 144.772 45.047C144.364 45.5003 144.115 46.1463 144.024 46.985H148.342C148.354 46.9283 148.359 46.8717 148.359 46.815C148.359 46.747 148.359 46.6563 148.359 46.543C148.359 45.897 148.178 45.3757 147.815 44.979C147.464 44.571 146.994 44.367 146.404 44.367ZM154.352 51.116C154.987 51.116 155.497 50.912 155.882 50.504C156.268 50.096 156.46 49.535 156.46 48.821V48.107C156.313 48.0957 156.171 48.09 156.035 48.09C155.899 48.0787 155.775 48.073 155.661 48.073C154.687 48.073 153.961 48.2147 153.485 48.498C153.009 48.77 152.771 49.1837 152.771 49.739C152.771 50.1697 152.913 50.5097 153.196 50.759C153.48 50.997 153.865 51.116 154.352 51.116ZM154.862 43.296C155.803 43.296 156.523 43.5227 157.021 43.976C157.52 44.418 157.769 45.064 157.769 45.914V50.334C157.769 50.5833 157.82 50.7703 157.922 50.895C158.024 51.0197 158.183 51.082 158.398 51.082C158.489 51.082 158.585 51.065 158.687 51.031C158.789 50.997 158.869 50.9517 158.925 50.895L159.01 51.932C158.908 52 158.767 52.0567 158.585 52.102C158.415 52.1473 158.245 52.17 158.075 52.17C157.758 52.17 157.48 52.1077 157.242 51.983C157.016 51.847 156.84 51.6543 156.715 51.405C156.67 51.3143 156.625 51.218 156.579 51.116C156.545 51.0027 156.517 50.878 156.494 50.742C156.336 51.184 156.03 51.5353 155.576 51.796C155.123 52.0567 154.607 52.187 154.029 52.187C153.236 52.187 152.596 51.9717 152.108 51.541C151.632 51.099 151.394 50.5153 151.394 49.79C151.394 48.906 151.757 48.226 152.482 47.75C153.219 47.274 154.279 47.036 155.661 47.036C155.729 47.036 155.814 47.0417 155.916 47.053C156.03 47.053 156.211 47.0587 156.46 47.07V46.067C156.46 45.5457 156.313 45.1433 156.018 44.86C155.735 44.5767 155.321 44.435 154.777 44.435C154.256 44.435 153.854 44.5653 153.57 44.826C153.287 45.0867 153.134 45.4663 153.111 45.965L151.751 45.727C151.842 44.979 152.165 44.3897 152.72 43.959C153.287 43.517 154.001 43.296 154.862 43.296ZM160.923 52V43.5H162.028L162.215 45.676C162.374 44.962 162.703 44.3897 163.201 43.959C163.7 43.517 164.272 43.296 164.918 43.296C164.998 43.296 165.077 43.3017 165.156 43.313C165.247 43.3243 165.332 43.3357 165.411 43.347L165.326 44.809C165.258 44.7977 165.162 44.7863 165.037 44.775C164.913 44.7637 164.782 44.758 164.646 44.758C163.944 44.758 163.377 45.0243 162.946 45.557C162.527 46.0897 162.317 46.8037 162.317 47.699V52H160.923ZM169.321 51.031C169.457 51.031 169.588 51.014 169.712 50.98C169.848 50.9347 169.973 50.8723 170.086 50.793L170.239 51.864C170.081 51.9547 169.882 52.0283 169.644 52.085C169.406 52.1417 169.174 52.17 168.947 52.17C168.358 52.17 167.91 52.0227 167.604 51.728C167.31 51.422 167.162 50.98 167.162 50.402V39.726H168.556V50.249C168.556 50.521 168.619 50.7193 168.743 50.844C168.868 50.9687 169.061 51.031 169.321 51.031ZM174.884 50.674H174.918L177.315 43.5H178.709L175.479 52.459C175.071 53.581 174.64 54.38 174.187 54.856C173.734 55.332 173.161 55.57 172.47 55.57C172.266 55.57 172.062 55.5417 171.858 55.485C171.654 55.4283 171.461 55.349 171.28 55.247L171.484 54.091C171.711 54.227 171.886 54.312 172.011 54.346C172.147 54.3913 172.289 54.414 172.436 54.414C172.855 54.414 173.184 54.278 173.422 54.006C173.66 53.734 173.926 53.1843 174.221 52.357L171.059 43.5H172.538L174.884 50.674ZM188.092 52.204C186.924 52.204 186.001 51.8073 185.321 51.014C184.641 50.2207 184.301 49.1327 184.301 47.75C184.301 46.3787 184.641 45.2963 185.321 44.503C186.001 43.6983 186.924 43.296 188.092 43.296C188.942 43.296 189.65 43.534 190.217 44.01C190.783 44.486 191.112 45.115 191.203 45.897L189.928 46.135C189.882 45.625 189.69 45.2113 189.35 44.894C189.021 44.5653 188.602 44.401 188.092 44.401C187.344 44.401 186.76 44.6957 186.341 45.285C185.921 45.8743 185.712 46.696 185.712 47.75C185.712 48.804 185.921 49.6257 186.341 50.215C186.76 50.8043 187.344 51.099 188.092 51.099C188.613 51.099 189.038 50.9403 189.367 50.623C189.695 50.2943 189.882 49.8637 189.928 49.331L191.203 49.569C191.078 50.3963 190.744 51.0423 190.2 51.507C189.656 51.9717 188.953 52.204 188.092 52.204ZM193.429 39.726H194.823V44.843C195.084 44.3443 195.441 43.9647 195.894 43.704C196.359 43.432 196.891 43.296 197.492 43.296C198.285 43.296 198.92 43.5453 199.396 44.044C199.872 44.5313 200.11 45.1943 200.11 46.033V52H198.716V46.322C198.716 45.744 198.569 45.302 198.274 44.996C197.991 44.6787 197.583 44.52 197.05 44.52C196.347 44.52 195.798 44.741 195.401 45.183C195.016 45.625 194.823 46.254 194.823 47.07V52H193.429V39.726ZM203.722 39.896C204.005 39.896 204.243 39.9923 204.436 40.185C204.628 40.3777 204.725 40.6213 204.725 40.916C204.725 41.2107 204.628 41.4543 204.436 41.647C204.243 41.8397 204.005 41.936 203.722 41.936C203.438 41.936 203.2 41.8397 203.008 41.647C202.815 41.4543 202.719 41.2107 202.719 40.916C202.719 40.6213 202.815 40.3777 203.008 40.185C203.2 39.9923 203.438 39.896 203.722 39.896ZM203.025 52V43.5H204.419V52H203.025ZM209.431 51.031C209.567 51.031 209.697 51.014 209.822 50.98C209.958 50.9347 210.082 50.8723 210.196 50.793L210.349 51.864C210.19 51.9547 209.992 52.0283 209.754 52.085C209.516 52.1417 209.283 52.17 209.057 52.17C208.467 52.17 208.02 52.0227 207.714 51.728C207.419 51.422 207.272 50.98 207.272 50.402V39.726H208.666V50.249C208.666 50.521 208.728 50.7193 208.853 50.844C208.977 50.9687 209.17 51.031 209.431 51.031ZM215.567 51.082C216.236 51.082 216.78 50.844 217.199 50.368C217.619 49.8807 217.828 49.2177 217.828 48.379V46.798C217.828 46.0727 217.613 45.4947 217.182 45.064C216.752 44.622 216.219 44.401 215.584 44.401C214.825 44.401 214.23 44.7013 213.799 45.302C213.38 45.9027 213.17 46.7583 213.17 47.869C213.17 48.889 213.38 49.6823 213.799 50.249C214.219 50.8043 214.808 51.082 215.567 51.082ZM219.222 52H218.117L217.964 50.385C217.772 50.9743 217.437 51.4277 216.961 51.745C216.485 52.051 215.907 52.204 215.227 52.204C214.196 52.204 213.357 51.8187 212.711 51.048C212.077 50.266 211.759 49.212 211.759 47.886C211.759 46.458 212.077 45.336 212.711 44.52C213.357 43.704 214.241 43.296 215.363 43.296C215.953 43.296 216.468 43.4207 216.91 43.67C217.352 43.9193 217.658 44.248 217.828 44.656V39.726H219.222V52ZM222.216 39.726H223.61V44.843C223.871 44.3443 224.228 43.9647 224.681 43.704C225.146 43.432 225.679 43.296 226.279 43.296C227.073 43.296 227.707 43.5453 228.183 44.044C228.659 44.5313 228.897 45.1943 228.897 46.033V52H227.503V46.322C227.503 45.744 227.356 45.302 227.061 44.996C226.778 44.6787 226.37 44.52 225.837 44.52C225.135 44.52 224.585 44.741 224.188 45.183C223.803 45.625 223.61 46.254 223.61 47.07V52H222.216V39.726ZM235.008 43.296C236.175 43.296 237.099 43.6927 237.779 44.486C238.47 45.2793 238.816 46.3673 238.816 47.75C238.816 49.1327 238.47 50.2207 237.779 51.014C237.099 51.8073 236.175 52.204 235.008 52.204C233.841 52.204 232.911 51.8073 232.22 51.014C231.54 50.2207 231.2 49.1327 231.2 47.75C231.2 46.3673 231.54 45.2793 232.22 44.486C232.911 43.6927 233.841 43.296 235.008 43.296ZM235.008 51.116C235.79 51.116 236.385 50.8327 236.793 50.266C237.201 49.688 237.405 48.8493 237.405 47.75C237.405 46.6507 237.201 45.8177 236.793 45.251C236.385 44.673 235.79 44.384 235.008 44.384C234.226 44.384 233.631 44.673 233.223 45.251C232.815 45.8177 232.611 46.6507 232.611 47.75C232.611 48.8493 232.815 49.688 233.223 50.266C233.631 50.8327 234.226 51.116 235.008 51.116ZM244.471 43.296C245.638 43.296 246.562 43.6927 247.242 44.486C247.933 45.2793 248.279 46.3673 248.279 47.75C248.279 49.1327 247.933 50.2207 247.242 51.014C246.562 51.8073 245.638 52.204 244.471 52.204C243.303 52.204 242.374 51.8073 241.683 51.014C241.003 50.2207 240.663 49.1327 240.663 47.75C240.663 46.3673 241.003 45.2793 241.683 44.486C242.374 43.6927 243.303 43.296 244.471 43.296ZM244.471 51.116C245.253 51.116 245.848 50.8327 246.256 50.266C246.664 49.688 246.868 48.8493 246.868 47.75C246.868 46.6507 246.664 45.8177 246.256 45.251C245.848 44.673 245.253 44.384 244.471 44.384C243.689 44.384 243.094 44.673 242.686 45.251C242.278 45.8177 242.074 46.6507 242.074 47.75C242.074 48.8493 242.278 49.688 242.686 50.266C243.094 50.8327 243.689 51.116 244.471 51.116ZM253.934 51.082C254.602 51.082 255.146 50.844 255.566 50.368C255.985 49.8807 256.195 49.2177 256.195 48.379V46.798C256.195 46.0727 255.979 45.4947 255.549 45.064C255.118 44.622 254.585 44.401 253.951 44.401C253.191 44.401 252.596 44.7013 252.166 45.302C251.746 45.9027 251.537 46.7583 251.537 47.869C251.537 48.889 251.746 49.6823 252.166 50.249C252.585 50.8043 253.174 51.082 253.934 51.082ZM257.589 52H256.484L256.331 50.385C256.138 50.9743 255.804 51.4277 255.328 51.745C254.852 52.051 254.274 52.204 253.594 52.204C252.562 52.204 251.724 51.8187 251.078 51.048C250.443 50.266 250.126 49.212 250.126 47.886C250.126 46.458 250.443 45.336 251.078 44.52C251.724 43.704 252.608 43.296 253.73 43.296C254.319 43.296 254.835 43.4207 255.277 43.67C255.719 43.9193 256.025 44.248 256.195 44.656V39.726H257.589V52Z" fill="#F86EFF"/>
<path d="M347.353 20.902V31H345.925V20.902H342.032V19.644H351.246V20.902H347.353ZM353.294 18.726H354.688V23.843C354.949 23.3443 355.306 22.9647 355.759 22.704C356.224 22.432 356.756 22.296 357.357 22.296C358.15 22.296 358.785 22.5453 359.261 23.044C359.737 23.5313 359.975 24.1943 359.975 25.033V31H358.581V25.322C358.581 24.744 358.434 24.302 358.139 23.996C357.856 23.6787 357.448 23.52 356.915 23.52C356.212 23.52 355.663 23.741 355.266 24.183C354.881 24.625 354.688 25.254 354.688 26.07V31H353.294V18.726ZM366.069 30.099C366.601 30.099 367.038 29.9687 367.378 29.708C367.718 29.4473 367.95 29.062 368.075 28.552L369.282 28.892C369.1 29.64 368.732 30.2123 368.177 30.609C367.621 31.0057 366.919 31.204 366.069 31.204C364.879 31.204 363.949 30.8187 363.281 30.048C362.612 29.2773 362.278 28.1893 362.278 26.784C362.278 25.4127 362.618 24.3247 363.298 23.52C363.989 22.704 364.913 22.296 366.069 22.296C367.077 22.296 367.876 22.6247 368.466 23.282C369.066 23.928 369.367 24.7893 369.367 25.866C369.367 26.0813 369.35 26.291 369.316 26.495C369.282 26.699 369.242 26.869 369.197 27.005H363.621C363.655 27.991 363.881 28.756 364.301 29.3C364.731 29.8327 365.321 30.099 366.069 30.099ZM366.035 23.367C365.366 23.367 364.822 23.5937 364.403 24.047C363.995 24.5003 363.745 25.1463 363.655 25.985H367.973C367.984 25.9283 367.99 25.8717 367.99 25.815C367.99 25.747 367.99 25.6563 367.99 25.543C367.99 24.897 367.808 24.3757 367.446 23.979C367.094 23.571 366.624 23.367 366.035 23.367ZM371.722 22.5H372.759L372.929 24.149C373.167 23.5597 373.535 23.1063 374.034 22.789C374.532 22.4603 375.116 22.296 375.785 22.296C376.578 22.296 377.213 22.5453 377.689 23.044C378.165 23.5313 378.403 24.1943 378.403 25.033V31H377.009V25.322C377.009 24.744 376.861 24.302 376.567 23.996C376.283 23.6787 375.875 23.52 375.343 23.52C374.64 23.52 374.09 23.741 373.694 24.183C373.308 24.625 373.116 25.254 373.116 26.07V31H371.722V22.5ZM388.117 31.204C387.12 31.204 386.293 31 385.635 30.592C384.978 30.184 384.559 29.606 384.377 28.858L386.723 28.331C386.78 28.6483 386.939 28.9033 387.199 29.096C387.46 29.2887 387.772 29.385 388.134 29.385C388.508 29.385 388.797 29.317 389.001 29.181C389.205 29.0337 389.307 28.8297 389.307 28.569C389.307 28.3537 389.205 28.1837 389.001 28.059C388.809 27.923 388.361 27.787 387.658 27.651C387.069 27.5377 386.627 27.43 386.332 27.328C386.049 27.226 385.805 27.107 385.601 26.971C385.284 26.767 385.046 26.512 384.887 26.206C384.74 25.8887 384.666 25.5147 384.666 25.084C384.666 24.2 385.001 23.4973 385.669 22.976C386.338 22.4547 387.216 22.194 388.304 22.194C389.324 22.194 390.14 22.4093 390.752 22.84C391.376 23.2707 391.75 23.8883 391.874 24.693L389.545 24.965C389.511 24.659 389.387 24.421 389.171 24.251C388.956 24.0697 388.673 23.979 388.321 23.979C387.993 23.979 387.738 24.0527 387.556 24.2C387.375 24.3473 387.284 24.5457 387.284 24.795C387.284 25.0103 387.381 25.186 387.573 25.322C387.777 25.4467 388.225 25.5713 388.916 25.696C389.528 25.8093 389.982 25.917 390.276 26.019C390.571 26.121 390.82 26.2457 391.024 26.393C391.342 26.597 391.574 26.8633 391.721 27.192C391.88 27.5093 391.959 27.889 391.959 28.331C391.959 29.2263 391.614 29.929 390.922 30.439C390.231 30.949 389.296 31.204 388.117 31.204ZM397.572 28.96C397.799 28.96 398.014 28.926 398.218 28.858C398.422 28.79 398.638 28.6767 398.864 28.518L399.221 30.49C398.915 30.7167 398.558 30.8923 398.15 31.017C397.754 31.1417 397.329 31.204 396.875 31.204C395.889 31.204 395.13 30.9547 394.597 30.456C394.065 29.9573 393.798 29.2377 393.798 28.297V24.455H392.693V22.398H393.815V20.579L396.62 20.239V22.398H398.847V24.455H396.603V27.923C396.603 28.263 396.683 28.5237 396.841 28.705C397.011 28.875 397.255 28.96 397.572 28.96ZM400.547 31V22.398H402.978L403.301 24.353C403.46 23.6843 403.76 23.163 404.202 22.789C404.655 22.4037 405.205 22.211 405.851 22.211C405.942 22.211 406.032 22.2167 406.123 22.228C406.225 22.228 406.327 22.2393 406.429 22.262L406.293 25.101C406.157 25.0443 405.993 24.999 405.8 24.965C405.619 24.931 405.426 24.914 405.222 24.914C404.655 24.914 404.202 25.101 403.862 25.475C403.522 25.849 403.352 26.3703 403.352 27.039V31H400.547ZM411.411 29.13C411.773 29.13 412.074 29.0393 412.312 28.858C412.55 28.6653 412.72 28.3877 412.822 28.025L415.1 28.807C414.862 29.5663 414.408 30.1557 413.74 30.575C413.082 30.9943 412.289 31.204 411.36 31.204C410.045 31.204 409.008 30.813 408.249 30.031C407.489 29.2377 407.11 28.1553 407.11 26.784C407.11 25.3673 407.495 24.251 408.266 23.435C409.036 22.6077 410.09 22.194 411.428 22.194C412.584 22.194 413.496 22.5453 414.165 23.248C414.833 23.9507 415.168 24.8857 415.168 26.053C415.168 26.2343 415.151 26.4327 415.117 26.648C415.094 26.8633 415.06 27.0447 415.015 27.192H409.796C409.807 27.7927 409.954 28.2687 410.238 28.62C410.532 28.96 410.923 29.13 411.411 29.13ZM411.36 24.166C410.929 24.166 410.578 24.319 410.306 24.625C410.034 24.9197 409.875 25.3333 409.83 25.866H412.55C412.561 25.8207 412.567 25.7753 412.567 25.73C412.578 25.6733 412.584 25.5883 412.584 25.475C412.584 25.0897 412.47 24.778 412.244 24.54C412.028 24.2907 411.734 24.166 411.36 24.166ZM416.684 22.398H419.081L419.421 24.047C419.625 23.4577 419.97 23.0043 420.458 22.687C420.945 22.3583 421.517 22.194 422.175 22.194C423.002 22.194 423.654 22.4433 424.13 22.942C424.617 23.4293 424.861 24.1093 424.861 24.982V31H422.056V25.883C422.056 25.4183 421.959 25.0783 421.767 24.863C421.585 24.6363 421.308 24.523 420.934 24.523C420.48 24.523 420.123 24.6817 419.863 24.999C419.613 25.3163 419.489 25.764 419.489 26.342V31H416.684V22.398ZM430.381 23.809C430.007 23.809 429.718 23.9223 429.514 24.149C429.321 24.3643 429.225 24.676 429.225 25.084C429.225 25.4807 429.327 25.7923 429.531 26.019C429.735 26.2457 430.018 26.359 430.381 26.359C430.744 26.359 431.021 26.2513 431.214 26.036C431.418 25.8093 431.52 25.492 431.52 25.084C431.52 24.676 431.418 24.3643 431.214 24.149C431.021 23.9223 430.744 23.809 430.381 23.809ZM435.158 31.374C435.158 32.3827 434.699 33.1647 433.781 33.72C432.863 34.2867 431.633 34.57 430.092 34.57C428.811 34.57 427.797 34.383 427.049 34.009C426.301 33.635 425.927 33.108 425.927 32.428C425.927 31.9973 426.091 31.6347 426.42 31.34C426.749 31.0567 427.202 30.8753 427.78 30.796C427.395 30.6827 427.094 30.49 426.879 30.218C426.664 29.9347 426.556 29.5947 426.556 29.198C426.556 28.79 426.698 28.433 426.981 28.127C427.264 27.821 427.644 27.6113 428.12 27.498C427.587 27.26 427.179 26.937 426.896 26.529C426.624 26.121 426.488 25.645 426.488 25.101C426.488 24.1943 426.834 23.486 427.525 22.976C428.216 22.4547 429.168 22.194 430.381 22.194C430.812 22.194 431.225 22.2393 431.622 22.33C432.019 22.4093 432.387 22.534 432.727 22.704C432.84 22.568 432.937 22.381 433.016 22.143C433.095 21.905 433.152 21.6273 433.186 21.31L435.413 22.041C435.356 22.4377 435.181 22.7777 434.886 23.061C434.603 23.3443 434.251 23.537 433.832 23.639C433.979 23.8543 434.093 24.0867 434.172 24.336C434.251 24.574 434.291 24.829 434.291 25.101C434.291 25.9963 433.94 26.6933 433.237 27.192C432.534 27.6907 431.582 27.94 430.381 27.94C430.154 27.94 429.939 27.9343 429.735 27.923C429.531 27.9003 429.338 27.8663 429.157 27.821C429.021 27.889 428.919 27.9683 428.851 28.059C428.783 28.1497 428.749 28.2517 428.749 28.365C428.749 28.501 428.8 28.6087 428.902 28.688C429.004 28.756 429.151 28.79 429.344 28.79H431.622C432.789 28.79 433.668 29.011 434.257 29.453C434.858 29.8837 435.158 30.524 435.158 31.374ZM428.188 31.952C428.188 32.258 428.358 32.4903 428.698 32.649C429.049 32.819 429.548 32.904 430.194 32.904C431.01 32.904 431.633 32.8133 432.064 32.632C432.495 32.462 432.71 32.2127 432.71 31.884C432.71 31.6573 432.614 31.4873 432.421 31.374C432.24 31.2607 431.968 31.204 431.605 31.204H429.174C428.868 31.204 428.624 31.2663 428.443 31.391C428.273 31.527 428.188 31.714 428.188 31.952ZM440.504 28.96C440.731 28.96 440.946 28.926 441.15 28.858C441.354 28.79 441.569 28.6767 441.796 28.518L442.153 30.49C441.847 30.7167 441.49 30.8923 441.082 31.017C440.685 31.1417 440.26 31.204 439.807 31.204C438.821 31.204 438.062 30.9547 437.529 30.456C436.996 29.9573 436.73 29.2377 436.73 28.297V24.455H435.625V22.398H436.747V20.579L439.552 20.239V22.398H441.779V24.455H439.535V27.923C439.535 28.263 439.614 28.5237 439.773 28.705C439.943 28.875 440.187 28.96 440.504 28.96ZM443.479 18.726H446.284V23.928C446.51 23.3727 446.856 22.9477 447.321 22.653C447.797 22.347 448.346 22.194 448.97 22.194C449.797 22.194 450.449 22.4433 450.925 22.942C451.412 23.4293 451.656 24.1093 451.656 24.982V31H448.851V25.883C448.851 25.4183 448.754 25.0783 448.562 24.863C448.38 24.6363 448.103 24.523 447.729 24.523C447.275 24.523 446.918 24.6817 446.658 24.999C446.408 25.3163 446.284 25.764 446.284 26.342V31H443.479V18.726ZM457.397 29.13C457.76 29.13 458.06 29.0393 458.298 28.858C458.536 28.6653 458.706 28.3877 458.808 28.025L461.086 28.807C460.848 29.5663 460.395 30.1557 459.726 30.575C459.069 30.9943 458.275 31.204 457.346 31.204C456.031 31.204 454.994 30.813 454.235 30.031C453.476 29.2377 453.096 28.1553 453.096 26.784C453.096 25.3673 453.481 24.251 454.252 23.435C455.023 22.6077 456.077 22.194 457.414 22.194C458.57 22.194 459.482 22.5453 460.151 23.248C460.82 23.9507 461.154 24.8857 461.154 26.053C461.154 26.2343 461.137 26.4327 461.103 26.648C461.08 26.8633 461.046 27.0447 461.001 27.192H455.782C455.793 27.7927 455.941 28.2687 456.224 28.62C456.519 28.96 456.91 29.13 457.397 29.13ZM457.346 24.166C456.915 24.166 456.564 24.319 456.292 24.625C456.02 24.9197 455.861 25.3333 455.816 25.866H458.536C458.547 25.8207 458.553 25.7753 458.553 25.73C458.564 25.6733 458.57 25.5883 458.57 25.475C458.57 25.0897 458.457 24.778 458.23 24.54C458.015 24.2907 457.72 24.166 457.346 24.166ZM462.67 22.398H465.067L465.407 24.047C465.611 23.4577 465.957 23.0043 466.444 22.687C466.931 22.3583 467.504 22.194 468.161 22.194C468.988 22.194 469.64 22.4433 470.116 22.942C470.603 23.4293 470.847 24.1093 470.847 24.982V31H468.042V25.883C468.042 25.4183 467.946 25.0783 467.753 24.863C467.572 24.6363 467.294 24.523 466.92 24.523C466.467 24.523 466.11 24.6817 465.849 24.999C465.6 25.3163 465.475 25.764 465.475 26.342V31H462.67V22.398ZM475.823 31.204C474.826 31.204 473.999 31 473.341 30.592C472.684 30.184 472.265 29.606 472.083 28.858L474.429 28.331C474.486 28.6483 474.645 28.9033 474.905 29.096C475.166 29.2887 475.478 29.385 475.84 29.385C476.214 29.385 476.503 29.317 476.707 29.181C476.911 29.0337 477.013 28.8297 477.013 28.569C477.013 28.3537 476.911 28.1837 476.707 28.059C476.515 27.923 476.067 27.787 475.364 27.651C474.775 27.5377 474.333 27.43 474.038 27.328C473.755 27.226 473.511 27.107 473.307 26.971C472.99 26.767 472.752 26.512 472.593 26.206C472.446 25.8887 472.372 25.5147 472.372 25.084C472.372 24.2 472.707 23.4973 473.375 22.976C474.044 22.4547 474.922 22.194 476.01 22.194C477.03 22.194 477.846 22.4093 478.458 22.84C479.082 23.2707 479.456 23.8883 479.58 24.693L477.251 24.965C477.217 24.659 477.093 24.421 476.877 24.251C476.662 24.0697 476.379 23.979 476.027 23.979C475.699 23.979 475.444 24.0527 475.262 24.2C475.081 24.3473 474.99 24.5457 474.99 24.795C474.99 25.0103 475.087 25.186 475.279 25.322C475.483 25.4467 475.931 25.5713 476.622 25.696C477.234 25.8093 477.688 25.917 477.982 26.019C478.277 26.121 478.526 26.2457 478.73 26.393C479.048 26.597 479.28 26.8633 479.427 27.192C479.586 27.5093 479.665 27.889 479.665 28.331C479.665 29.2263 479.32 29.929 478.628 30.439C477.937 30.949 477.002 31.204 475.823 31.204ZM489.087 22.296C490.254 22.296 491.178 22.6927 491.858 23.486C492.549 24.2793 492.895 25.3673 492.895 26.75C492.895 28.1327 492.549 29.2207 491.858 30.014C491.178 30.8073 490.254 31.204 489.087 31.204C487.919 31.204 486.99 30.8073 486.299 30.014C485.619 29.2207 485.279 28.1327 485.279 26.75C485.279 25.3673 485.619 24.2793 486.299 23.486C486.99 22.6927 487.919 22.296 489.087 22.296ZM489.087 30.116C489.869 30.116 490.464 29.8327 490.872 29.266C491.28 28.688 491.484 27.8493 491.484 26.75C491.484 25.6507 491.28 24.8177 490.872 24.251C490.464 23.673 489.869 23.384 489.087 23.384C488.305 23.384 487.71 23.673 487.302 24.251C486.894 24.8177 486.69 25.6507 486.69 26.75C486.69 27.8493 486.894 28.688 487.302 29.266C487.71 29.8327 488.305 30.116 489.087 30.116ZM495.27 31V22.5H496.375L496.562 24.676C496.721 23.962 497.05 23.3897 497.548 22.959C498.047 22.517 498.619 22.296 499.265 22.296C499.345 22.296 499.424 22.3017 499.503 22.313C499.594 22.3243 499.679 22.3357 499.758 22.347L499.673 23.809C499.605 23.7977 499.509 23.7863 499.384 23.775C499.26 23.7637 499.129 23.758 498.993 23.758C498.291 23.758 497.724 24.0243 497.293 24.557C496.874 25.0897 496.664 25.8037 496.664 26.699V31H495.27ZM323.668 52.204C322.501 52.204 321.577 51.8073 320.897 51.014C320.217 50.2207 319.877 49.1327 319.877 47.75C319.877 46.3787 320.217 45.2963 320.897 44.503C321.577 43.6983 322.501 43.296 323.668 43.296C324.518 43.296 325.226 43.534 325.793 44.01C326.36 44.486 326.688 45.115 326.779 45.897L325.504 46.135C325.459 45.625 325.266 45.2113 324.926 44.894C324.597 44.5653 324.178 44.401 323.668 44.401C322.92 44.401 322.336 44.6957 321.917 45.285C321.498 45.8743 321.288 46.696 321.288 47.75C321.288 48.804 321.498 49.6257 321.917 50.215C322.336 50.8043 322.92 51.099 323.668 51.099C324.189 51.099 324.614 50.9403 324.943 50.623C325.272 50.2943 325.459 49.8637 325.504 49.331L326.779 49.569C326.654 50.3963 326.32 51.0423 325.776 51.507C325.232 51.9717 324.529 52.204 323.668 52.204ZM332.202 43.296C333.369 43.296 334.293 43.6927 334.973 44.486C335.664 45.2793 336.01 46.3673 336.01 47.75C336.01 49.1327 335.664 50.2207 334.973 51.014C334.293 51.8073 333.369 52.204 332.202 52.204C331.034 52.204 330.105 51.8073 329.414 51.014C328.734 50.2207 328.394 49.1327 328.394 47.75C328.394 46.3673 328.734 45.2793 329.414 44.486C330.105 43.6927 331.034 43.296 332.202 43.296ZM332.202 51.116C332.984 51.116 333.579 50.8327 333.987 50.266C334.395 49.688 334.599 48.8493 334.599 47.75C334.599 46.6507 334.395 45.8177 333.987 45.251C333.579 44.673 332.984 44.384 332.202 44.384C331.42 44.384 330.825 44.673 330.417 45.251C330.009 45.8177 329.805 46.6507 329.805 47.75C329.805 48.8493 330.009 49.688 330.417 50.266C330.825 50.8327 331.42 51.116 332.202 51.116ZM338.386 43.5H339.423L339.593 45.149C339.831 44.5597 340.199 44.1063 340.698 43.789C341.196 43.4603 341.78 43.296 342.449 43.296C343.242 43.296 343.877 43.5453 344.353 44.044C344.829 44.5313 345.067 45.1943 345.067 46.033V52H343.673V46.322C343.673 45.744 343.525 45.302 343.231 44.996C342.947 44.6787 342.539 44.52 342.007 44.52C341.304 44.52 340.754 44.741 340.358 45.183C339.972 45.625 339.78 46.254 339.78 47.07V52H338.386V43.5ZM347.981 43.5H349.018L349.188 45.149C349.426 44.5597 349.795 44.1063 350.293 43.789C350.792 43.4603 351.376 43.296 352.044 43.296C352.838 43.296 353.472 43.5453 353.948 44.044C354.424 44.5313 354.662 45.1943 354.662 46.033V52H353.268V46.322C353.268 45.744 353.121 45.302 352.826 44.996C352.543 44.6787 352.135 44.52 351.602 44.52C350.9 44.52 350.35 44.741 349.953 45.183C349.568 45.625 349.375 46.254 349.375 47.07V52H347.981V43.5ZM360.756 51.099C361.289 51.099 361.725 50.9687 362.065 50.708C362.405 50.4473 362.637 50.062 362.762 49.552L363.969 49.892C363.788 50.64 363.419 51.2123 362.864 51.609C362.309 52.0057 361.606 52.204 360.756 52.204C359.566 52.204 358.637 51.8187 357.968 51.048C357.299 50.2773 356.965 49.1893 356.965 47.784C356.965 46.4127 357.305 45.3247 357.985 44.52C358.676 43.704 359.6 43.296 360.756 43.296C361.765 43.296 362.564 43.6247 363.153 44.282C363.754 44.928 364.054 45.7893 364.054 46.866C364.054 47.0813 364.037 47.291 364.003 47.495C363.969 47.699 363.929 47.869 363.884 48.005H358.308C358.342 48.991 358.569 49.756 358.988 50.3C359.419 50.8327 360.008 51.099 360.756 51.099ZM360.722 44.367C360.053 44.367 359.509 44.5937 359.09 45.047C358.682 45.5003 358.433 46.1463 358.342 46.985H362.66C362.671 46.9283 362.677 46.8717 362.677 46.815C362.677 46.747 362.677 46.6563 362.677 46.543C362.677 45.897 362.496 45.3757 362.133 44.979C361.782 44.571 361.311 44.367 360.722 44.367ZM369.671 52.204C368.504 52.204 367.58 51.8073 366.9 51.014C366.22 50.2207 365.88 49.1327 365.88 47.75C365.88 46.3787 366.22 45.2963 366.9 44.503C367.58 43.6983 368.504 43.296 369.671 43.296C370.521 43.296 371.229 43.534 371.796 44.01C372.363 44.486 372.691 45.115 372.782 45.897L371.507 46.135C371.462 45.625 371.269 45.2113 370.929 44.894C370.6 44.5653 370.181 44.401 369.671 44.401C368.923 44.401 368.339 44.6957 367.92 45.285C367.501 45.8743 367.291 46.696 367.291 47.75C367.291 48.804 367.501 49.6257 367.92 50.215C368.339 50.8043 368.923 51.099 369.671 51.099C370.192 51.099 370.617 50.9403 370.946 50.623C371.275 50.2943 371.462 49.8637 371.507 49.331L372.782 49.569C372.657 50.3963 372.323 51.0423 371.779 51.507C371.235 51.9717 370.532 52.204 369.671 52.204ZM377.814 51.031C378.074 51.031 378.307 51.0027 378.511 50.946C378.715 50.878 378.947 50.759 379.208 50.589L379.463 51.694C379.213 51.8527 378.93 51.9773 378.613 52.068C378.307 52.1587 378.006 52.204 377.712 52.204C376.896 52.204 376.267 52.0057 375.825 51.609C375.394 51.201 375.179 50.6173 375.179 49.858V44.571H373.955V43.5H375.179V41.698L376.573 41.477V43.5H379.123V44.571H376.573V49.722C376.573 50.1527 376.675 50.4813 376.879 50.708C377.094 50.9233 377.406 51.031 377.814 51.031ZM382.214 39.896C382.497 39.896 382.735 39.9923 382.928 40.185C383.12 40.3777 383.217 40.6213 383.217 40.916C383.217 41.2107 383.12 41.4543 382.928 41.647C382.735 41.8397 382.497 41.936 382.214 41.936C381.93 41.936 381.692 41.8397 381.5 41.647C381.307 41.4543 381.211 41.2107 381.211 40.916C381.211 40.6213 381.307 40.3777 381.5 40.185C381.692 39.9923 381.93 39.896 382.214 39.896ZM381.517 52V43.5H382.911V52H381.517ZM389.095 43.296C390.263 43.296 391.186 43.6927 391.866 44.486C392.558 45.2793 392.903 46.3673 392.903 47.75C392.903 49.1327 392.558 50.2207 391.866 51.014C391.186 51.8073 390.263 52.204 389.095 52.204C387.928 52.204 386.999 51.8073 386.307 51.014C385.627 50.2207 385.287 49.1327 385.287 47.75C385.287 46.3673 385.627 45.2793 386.307 44.486C386.999 43.6927 387.928 43.296 389.095 43.296ZM389.095 51.116C389.877 51.116 390.472 50.8327 390.88 50.266C391.288 49.688 391.492 48.8493 391.492 47.75C391.492 46.6507 391.288 45.8177 390.88 45.251C390.472 44.673 389.877 44.384 389.095 44.384C388.313 44.384 387.718 44.673 387.31 45.251C386.902 45.8177 386.698 46.6507 386.698 47.75C386.698 48.8493 386.902 49.688 387.31 50.266C387.718 50.8327 388.313 51.116 389.095 51.116ZM395.279 43.5H396.316L396.486 45.149C396.724 44.5597 397.093 44.1063 397.591 43.789C398.09 43.4603 398.674 43.296 399.342 43.296C400.136 43.296 400.77 43.5453 401.246 44.044C401.722 44.5313 401.96 45.1943 401.96 46.033V52H400.566V46.322C400.566 45.744 400.419 45.302 400.124 44.996C399.841 44.6787 399.433 44.52 398.9 44.52C398.198 44.52 397.648 44.741 397.251 45.183C396.866 45.625 396.673 46.254 396.673 47.07V52H395.279V43.5ZM407.391 52.204C406.484 52.204 405.725 51.9943 405.113 51.575C404.512 51.1557 404.15 50.5833 404.025 49.858L405.3 49.501C405.368 49.977 405.595 50.368 405.98 50.674C406.377 50.98 406.847 51.133 407.391 51.133C407.98 51.133 408.434 51.0197 408.751 50.793C409.08 50.555 409.244 50.2207 409.244 49.79C409.244 49.4273 409.114 49.1383 408.853 48.923C408.604 48.7077 408.048 48.5037 407.187 48.311C406.62 48.1863 406.201 48.073 405.929 47.971C405.668 47.869 405.442 47.7557 405.249 47.631C404.966 47.427 404.75 47.1777 404.603 46.883C404.467 46.5883 404.399 46.2427 404.399 45.846C404.399 45.0753 404.671 44.4577 405.215 43.993C405.77 43.5283 406.49 43.296 407.374 43.296C408.303 43.296 409.023 43.5 409.533 43.908C410.054 44.3047 410.36 44.8883 410.451 45.659L409.142 45.846C409.097 45.37 408.921 45.0073 408.615 44.758C408.32 44.4973 407.907 44.367 407.374 44.367C406.853 44.367 406.445 44.4917 406.15 44.741C405.855 44.979 405.708 45.3133 405.708 45.744C405.708 46.0953 405.833 46.3787 406.082 46.594C406.331 46.798 406.881 46.9907 407.731 47.172C408.309 47.2967 408.734 47.41 409.006 47.512C409.278 47.6027 409.51 47.716 409.703 47.852C409.986 48.056 410.196 48.311 410.332 48.617C410.479 48.9117 410.553 49.2687 410.553 49.688C410.553 50.4587 410.264 51.0707 409.686 51.524C409.108 51.9773 408.343 52.204 407.391 52.204ZM417.11 39.726H418.504V44.894C418.663 44.418 418.975 44.0327 419.439 43.738C419.904 43.4433 420.425 43.296 421.003 43.296C422.125 43.296 422.998 43.6927 423.621 44.486C424.256 45.2793 424.573 46.3673 424.573 47.75C424.573 49.0647 424.239 50.1357 423.57 50.963C422.902 51.7903 422.018 52.204 420.918 52.204C420.261 52.204 419.7 52.0397 419.235 51.711C418.782 51.3823 418.487 50.9403 418.351 50.385L418.215 52H417.11V39.726ZM420.714 44.418C420.068 44.418 419.536 44.6673 419.116 45.166C418.708 45.6533 418.504 46.322 418.504 47.172V48.43C418.504 49.2687 418.703 49.926 419.099 50.402C419.507 50.8667 420.046 51.099 420.714 51.099C421.474 51.099 422.069 50.8043 422.499 50.215C422.941 49.6257 423.162 48.804 423.162 47.75C423.162 46.662 422.953 45.8347 422.533 45.268C422.114 44.7013 421.508 44.418 420.714 44.418ZM429.216 51.116C429.851 51.116 430.361 50.912 430.746 50.504C431.131 50.096 431.324 49.535 431.324 48.821V48.107C431.177 48.0957 431.035 48.09 430.899 48.09C430.763 48.0787 430.638 48.073 430.525 48.073C429.55 48.073 428.825 48.2147 428.349 48.498C427.873 48.77 427.635 49.1837 427.635 49.739C427.635 50.1697 427.777 50.5097 428.06 50.759C428.343 50.997 428.729 51.116 429.216 51.116ZM429.726 43.296C430.667 43.296 431.386 43.5227 431.885 43.976C432.384 44.418 432.633 45.064 432.633 45.914V50.334C432.633 50.5833 432.684 50.7703 432.786 50.895C432.888 51.0197 433.047 51.082 433.262 51.082C433.353 51.082 433.449 51.065 433.551 51.031C433.653 50.997 433.732 50.9517 433.789 50.895L433.874 51.932C433.772 52 433.63 52.0567 433.449 52.102C433.279 52.1473 433.109 52.17 432.939 52.17C432.622 52.17 432.344 52.1077 432.106 51.983C431.879 51.847 431.704 51.6543 431.579 51.405C431.534 51.3143 431.488 51.218 431.443 51.116C431.409 51.0027 431.381 50.878 431.358 50.742C431.199 51.184 430.893 51.5353 430.44 51.796C429.987 52.0567 429.471 52.187 428.893 52.187C428.1 52.187 427.459 51.9717 426.972 51.541C426.496 51.099 426.258 50.5153 426.258 49.79C426.258 48.906 426.621 48.226 427.346 47.75C428.083 47.274 429.142 47.036 430.525 47.036C430.593 47.036 430.678 47.0417 430.78 47.053C430.893 47.053 431.075 47.0587 431.324 47.07V46.067C431.324 45.5457 431.177 45.1433 430.882 44.86C430.599 44.5767 430.185 44.435 429.641 44.435C429.12 44.435 428.717 44.5653 428.434 44.826C428.151 45.0867 427.998 45.4663 427.975 45.965L426.615 45.727C426.706 44.979 427.029 44.3897 427.584 43.959C428.151 43.517 428.865 43.296 429.726 43.296ZM438.303 52.204C437.396 52.204 436.637 51.9943 436.025 51.575C435.424 51.1557 435.062 50.5833 434.937 49.858L436.212 49.501C436.28 49.977 436.507 50.368 436.892 50.674C437.289 50.98 437.759 51.133 438.303 51.133C438.892 51.133 439.346 51.0197 439.663 50.793C439.992 50.555 440.156 50.2207 440.156 49.79C440.156 49.4273 440.026 49.1383 439.765 48.923C439.516 48.7077 438.96 48.5037 438.099 48.311C437.532 48.1863 437.113 48.073 436.841 47.971C436.58 47.869 436.354 47.7557 436.161 47.631C435.878 47.427 435.662 47.1777 435.515 46.883C435.379 46.5883 435.311 46.2427 435.311 45.846C435.311 45.0753 435.583 44.4577 436.127 43.993C436.682 43.5283 437.402 43.296 438.286 43.296C439.215 43.296 439.935 43.5 440.445 43.908C440.966 44.3047 441.272 44.8883 441.363 45.659L440.054 45.846C440.009 45.37 439.833 45.0073 439.527 44.758C439.232 44.4973 438.819 44.367 438.286 44.367C437.765 44.367 437.357 44.4917 437.062 44.741C436.767 44.979 436.62 45.3133 436.62 45.744C436.62 46.0953 436.745 46.3787 436.994 46.594C437.243 46.798 437.793 46.9907 438.643 47.172C439.221 47.2967 439.646 47.41 439.918 47.512C440.19 47.6027 440.422 47.716 440.615 47.852C440.898 48.056 441.108 48.311 441.244 48.617C441.391 48.9117 441.465 49.2687 441.465 49.688C441.465 50.4587 441.176 51.0707 440.598 51.524C440.02 51.9773 439.255 52.204 438.303 52.204ZM446.951 51.099C447.484 51.099 447.92 50.9687 448.26 50.708C448.6 50.4473 448.833 50.062 448.957 49.552L450.164 49.892C449.983 50.64 449.615 51.2123 449.059 51.609C448.504 52.0057 447.801 52.204 446.951 52.204C445.761 52.204 444.832 51.8187 444.163 51.048C443.495 50.2773 443.16 49.1893 443.16 47.784C443.16 46.4127 443.5 45.3247 444.18 44.52C444.872 43.704 445.795 43.296 446.951 43.296C447.96 43.296 448.759 43.6247 449.348 44.282C449.949 44.928 450.249 45.7893 450.249 46.866C450.249 47.0813 450.232 47.291 450.198 47.495C450.164 47.699 450.125 47.869 450.079 48.005H444.503C444.537 48.991 444.764 49.756 445.183 50.3C445.614 50.8327 446.203 51.099 446.951 51.099ZM446.917 44.367C446.249 44.367 445.705 44.5937 445.285 45.047C444.877 45.5003 444.628 46.1463 444.537 46.985H448.855C448.867 46.9283 448.872 46.8717 448.872 46.815C448.872 46.747 448.872 46.6563 448.872 46.543C448.872 45.897 448.691 45.3757 448.328 44.979C447.977 44.571 447.507 44.367 446.917 44.367ZM455.883 51.082C456.552 51.082 457.096 50.844 457.515 50.368C457.935 49.8807 458.144 49.2177 458.144 48.379V46.798C458.144 46.0727 457.929 45.4947 457.498 45.064C457.068 44.622 456.535 44.401 455.9 44.401C455.141 44.401 454.546 44.7013 454.115 45.302C453.696 45.9027 453.486 46.7583 453.486 47.869C453.486 48.889 453.696 49.6823 454.115 50.249C454.535 50.8043 455.124 51.082 455.883 51.082ZM459.538 52H458.433L458.28 50.385C458.088 50.9743 457.753 51.4277 457.277 51.745C456.801 52.051 456.223 52.204 455.543 52.204C454.512 52.204 453.673 51.8187 453.027 51.048C452.393 50.266 452.075 49.212 452.075 47.886C452.075 46.458 452.393 45.336 453.027 44.52C453.673 43.704 454.557 43.296 455.679 43.296C456.269 43.296 456.784 43.4207 457.226 43.67C457.668 43.9193 457.974 44.248 458.144 44.656V39.726H459.538V52ZM469.978 43.296C471.145 43.296 472.069 43.6927 472.749 44.486C473.44 45.2793 473.786 46.3673 473.786 47.75C473.786 49.1327 473.44 50.2207 472.749 51.014C472.069 51.8073 471.145 52.204 469.978 52.204C468.811 52.204 467.881 51.8073 467.19 51.014C466.51 50.2207 466.17 49.1327 466.17 47.75C466.17 46.3673 466.51 45.2793 467.19 44.486C467.881 43.6927 468.811 43.296 469.978 43.296ZM469.978 51.116C470.76 51.116 471.355 50.8327 471.763 50.266C472.171 49.688 472.375 48.8493 472.375 47.75C472.375 46.6507 472.171 45.8177 471.763 45.251C471.355 44.673 470.76 44.384 469.978 44.384C469.196 44.384 468.601 44.673 468.193 45.251C467.785 45.8177 467.581 46.6507 467.581 47.75C467.581 48.8493 467.785 49.688 468.193 50.266C468.601 50.8327 469.196 51.116 469.978 51.116ZM476.162 43.5H477.199L477.369 45.149C477.607 44.5597 477.975 44.1063 478.474 43.789C478.973 43.4603 479.556 43.296 480.225 43.296C481.018 43.296 481.653 43.5453 482.129 44.044C482.605 44.5313 482.843 45.1943 482.843 46.033V52H481.449V46.322C481.449 45.744 481.302 45.302 481.007 44.996C480.724 44.6787 480.316 44.52 479.783 44.52C479.08 44.52 478.531 44.741 478.134 45.183C477.749 45.625 477.556 46.254 477.556 47.07V52H476.162V43.5ZM493.187 51.099C493.719 51.099 494.156 50.9687 494.496 50.708C494.836 50.4473 495.068 50.062 495.193 49.552L496.4 49.892C496.218 50.64 495.85 51.2123 495.295 51.609C494.739 52.0057 494.037 52.204 493.187 52.204C491.997 52.204 491.067 51.8187 490.399 51.048C489.73 50.2773 489.396 49.1893 489.396 47.784C489.396 46.4127 489.736 45.3247 490.416 44.52C491.107 43.704 492.031 43.296 493.187 43.296C494.195 43.296 494.994 43.6247 495.584 44.282C496.184 44.928 496.485 45.7893 496.485 46.866C496.485 47.0813 496.468 47.291 496.434 47.495C496.4 47.699 496.36 47.869 496.315 48.005H490.739C490.773 48.991 490.999 49.756 491.419 50.3C491.849 50.8327 492.439 51.099 493.187 51.099ZM493.153 44.367C492.484 44.367 491.94 44.5937 491.521 45.047C491.113 45.5003 490.863 46.1463 490.773 46.985H495.091C495.102 46.9283 495.108 46.8717 495.108 46.815C495.108 46.747 495.108 46.6563 495.108 46.543C495.108 45.897 494.926 45.3757 494.564 44.979C494.212 44.571 493.742 44.367 493.153 44.367ZM505.236 52H503.706L501.411 48.668H501.377L499.116 52H497.671L500.714 47.665L497.824 43.5H499.354L501.496 46.696H501.53L503.655 43.5H505.083L502.193 47.648L505.236 52ZM510.828 44.418C510.182 44.418 509.649 44.6673 509.23 45.166C508.822 45.6533 508.618 46.3163 508.618 47.155V48.668C508.618 49.416 508.822 50.011 509.23 50.453C509.649 50.8837 510.182 51.099 510.828 51.099C511.587 51.099 512.182 50.8043 512.613 50.215C513.055 49.6257 513.276 48.804 513.276 47.75C513.276 46.662 513.066 45.8347 512.647 45.268C512.227 44.7013 511.621 44.418 510.828 44.418ZM507.224 43.5H508.261L508.431 45.132C508.589 44.6107 508.918 44.1743 509.417 43.823C509.927 43.4717 510.493 43.296 511.117 43.296C512.239 43.296 513.111 43.6927 513.735 44.486C514.369 45.2793 514.687 46.3673 514.687 47.75C514.687 49.0647 514.352 50.1357 513.684 50.963C513.015 51.7903 512.131 52.204 511.032 52.204C510.465 52.204 509.961 52.085 509.519 51.847C509.088 51.5977 508.788 51.269 508.618 50.861V55.366H507.224V43.5ZM520.33 51.099C520.863 51.099 521.299 50.9687 521.639 50.708C521.979 50.4473 522.212 50.062 522.336 49.552L523.543 49.892C523.362 50.64 522.994 51.2123 522.438 51.609C521.883 52.0057 521.18 52.204 520.33 52.204C519.14 52.204 518.211 51.8187 517.542 51.048C516.874 50.2773 516.539 49.1893 516.539 47.784C516.539 46.4127 516.879 45.3247 517.559 44.52C518.251 43.704 519.174 43.296 520.33 43.296C521.339 43.296 522.138 43.6247 522.727 44.282C523.328 44.928 523.628 45.7893 523.628 46.866C523.628 47.0813 523.611 47.291 523.577 47.495C523.543 47.699 523.504 47.869 523.458 48.005H517.882C517.916 48.991 518.143 49.756 518.562 50.3C518.993 50.8327 519.582 51.099 520.33 51.099ZM520.296 44.367C519.628 44.367 519.084 44.5937 518.664 45.047C518.256 45.5003 518.007 46.1463 517.916 46.985H522.234C522.246 46.9283 522.251 46.8717 522.251 46.815C522.251 46.747 522.251 46.6563 522.251 46.543C522.251 45.897 522.07 45.3757 521.707 44.979C521.356 44.571 520.886 44.367 520.296 44.367ZM525.983 52V43.5H527.088L527.275 45.676C527.434 44.962 527.763 44.3897 528.261 43.959C528.76 43.517 529.332 43.296 529.978 43.296C530.058 43.296 530.137 43.3017 530.216 43.313C530.307 43.3243 530.392 43.3357 530.471 43.347L530.386 44.809C530.318 44.7977 530.222 44.7863 530.097 44.775C529.973 44.7637 529.842 44.758 529.706 44.758C529.004 44.758 528.437 45.0243 528.006 45.557C527.587 46.0897 527.377 46.8037 527.377 47.699V52H525.983ZM533.055 39.896C533.339 39.896 533.577 39.9923 533.769 40.185C533.962 40.3777 534.058 40.6213 534.058 40.916C534.058 41.2107 533.962 41.4543 533.769 41.647C533.577 41.8397 533.339 41.936 533.055 41.936C532.772 41.936 532.534 41.8397 532.341 41.647C532.149 41.4543 532.052 41.2107 532.052 40.916C532.052 40.6213 532.149 40.3777 532.341 40.185C532.534 39.9923 532.772 39.896 533.055 39.896ZM532.358 52V43.5H533.752V52H532.358ZM539.92 51.099C540.453 51.099 540.889 50.9687 541.229 50.708C541.569 50.4473 541.801 50.062 541.926 49.552L543.133 49.892C542.952 50.64 542.583 51.2123 542.028 51.609C541.473 52.0057 540.77 52.204 539.92 52.204C538.73 52.204 537.801 51.8187 537.132 51.048C536.463 50.2773 536.129 49.1893 536.129 47.784C536.129 46.4127 536.469 45.3247 537.149 44.52C537.84 43.704 538.764 43.296 539.92 43.296C540.929 43.296 541.728 43.6247 542.317 44.282C542.918 44.928 543.218 45.7893 543.218 46.866C543.218 47.0813 543.201 47.291 543.167 47.495C543.133 47.699 543.093 47.869 543.048 48.005H537.472C537.506 48.991 537.733 49.756 538.152 50.3C538.583 50.8327 539.172 51.099 539.92 51.099ZM539.886 44.367C539.217 44.367 538.673 44.5937 538.254 45.047C537.846 45.5003 537.597 46.1463 537.506 46.985H541.824C541.835 46.9283 541.841 46.8717 541.841 46.815C541.841 46.747 541.841 46.6563 541.841 46.543C541.841 45.897 541.66 45.3757 541.297 44.979C540.946 44.571 540.475 44.367 539.886 44.367ZM545.573 43.5H546.61L546.78 45.149C547.018 44.5597 547.386 44.1063 547.885 43.789C548.384 43.4603 548.967 43.296 549.636 43.296C550.429 43.296 551.064 43.5453 551.54 44.044C552.016 44.5313 552.254 45.1943 552.254 46.033V52H550.86V46.322C550.86 45.744 550.713 45.302 550.418 44.996C550.135 44.6787 549.727 44.52 549.194 44.52C548.491 44.52 547.942 44.741 547.545 45.183C547.16 45.625 546.967 46.254 546.967 47.07V52H545.573V43.5ZM558.348 52.204C557.181 52.204 556.257 51.8073 555.577 51.014C554.897 50.2207 554.557 49.1327 554.557 47.75C554.557 46.3787 554.897 45.2963 555.577 44.503C556.257 43.6983 557.181 43.296 558.348 43.296C559.198 43.296 559.906 43.534 560.473 44.01C561.04 44.486 561.368 45.115 561.459 45.897L560.184 46.135C560.139 45.625 559.946 45.2113 559.606 44.894C559.277 44.5653 558.858 44.401 558.348 44.401C557.6 44.401 557.016 44.6957 556.597 45.285C556.178 45.8743 555.968 46.696 555.968 47.75C555.968 48.804 556.178 49.6257 556.597 50.215C557.016 50.8043 557.6 51.099 558.348 51.099C558.869 51.099 559.294 50.9403 559.623 50.623C559.952 50.2943 560.139 49.8637 560.184 49.331L561.459 49.569C561.334 50.3963 561 51.0423 560.456 51.507C559.912 51.9717 559.209 52.204 558.348 52.204ZM566.864 51.099C567.397 51.099 567.833 50.9687 568.173 50.708C568.513 50.4473 568.746 50.062 568.87 49.552L570.077 49.892C569.896 50.64 569.528 51.2123 568.972 51.609C568.417 52.0057 567.714 52.204 566.864 52.204C565.674 52.204 564.745 51.8187 564.076 51.048C563.408 50.2773 563.073 49.1893 563.073 47.784C563.073 46.4127 563.413 45.3247 564.093 44.52C564.785 43.704 565.708 43.296 566.864 43.296C567.873 43.296 568.672 43.6247 569.261 44.282C569.862 44.928 570.162 45.7893 570.162 46.866C570.162 47.0813 570.145 47.291 570.111 47.495C570.077 47.699 570.038 47.869 569.992 48.005H564.416C564.45 48.991 564.677 49.756 565.096 50.3C565.527 50.8327 566.116 51.099 566.864 51.099ZM566.83 44.367C566.162 44.367 565.618 44.5937 565.198 45.047C564.79 45.5003 564.541 46.1463 564.45 46.985H568.768C568.78 46.9283 568.785 46.8717 568.785 46.815C568.785 46.747 568.785 46.6563 568.785 46.543C568.785 45.897 568.604 45.3757 568.241 44.979C567.89 44.571 567.42 44.367 566.83 44.367ZM575.033 52.204C574.127 52.204 573.367 51.9943 572.755 51.575C572.155 51.1557 571.792 50.5833 571.667 49.858L572.942 49.501C573.01 49.977 573.237 50.368 573.622 50.674C574.019 50.98 574.489 51.133 575.033 51.133C575.623 51.133 576.076 51.0197 576.393 50.793C576.722 50.555 576.886 50.2207 576.886 49.79C576.886 49.4273 576.756 49.1383 576.495 48.923C576.246 48.7077 575.691 48.5037 574.829 48.311C574.263 48.1863 573.843 48.073 573.571 47.971C573.311 47.869 573.084 47.7557 572.891 47.631C572.608 47.427 572.393 47.1777 572.245 46.883C572.109 46.5883 572.041 46.2427 572.041 45.846C572.041 45.0753 572.313 44.4577 572.857 43.993C573.413 43.5283 574.132 43.296 575.016 43.296C575.946 43.296 576.665 43.5 577.175 43.908C577.697 44.3047 578.003 44.8883 578.093 45.659L576.784 45.846C576.739 45.37 576.563 45.0073 576.257 44.758C575.963 44.4973 575.549 44.367 575.016 44.367C574.495 44.367 574.087 44.4917 573.792 44.741C573.498 44.979 573.35 45.3133 573.35 45.744C573.35 46.0953 573.475 46.3787 573.724 46.594C573.974 46.798 574.523 46.9907 575.373 47.172C575.951 47.2967 576.376 47.41 576.648 47.512C576.92 47.6027 577.153 47.716 577.345 47.852C577.629 48.056 577.838 48.311 577.974 48.617C578.122 48.9117 578.195 49.2687 578.195 49.688C578.195 50.4587 577.906 51.0707 577.328 51.524C576.75 51.9773 575.985 52.204 575.033 52.204Z" fill="#F86EFF"/>
<path d="M509.499 23.418C508.853 23.418 508.321 23.6673 507.901 24.166C507.493 24.6533 507.289 25.3163 507.289 26.155V27.668C507.289 28.416 507.493 29.011 507.901 29.453C508.321 29.8837 508.853 30.099 509.499 30.099C510.259 30.099 510.854 29.8043 511.284 29.215C511.726 28.6257 511.947 27.804 511.947 26.75C511.947 25.662 511.738 24.8347 511.318 24.268C510.899 23.7013 510.293 23.418 509.499 23.418ZM505.895 22.5H506.932L507.102 24.132C507.261 23.6107 507.59 23.1743 508.088 22.823C508.598 22.4717 509.165 22.296 509.788 22.296C510.91 22.296 511.783 22.6927 512.406 23.486C513.041 24.2793 513.358 25.3673 513.358 26.75C513.358 28.0647 513.024 29.1357 512.355 29.963C511.687 30.7903 510.803 31.204 509.703 31.204C509.137 31.204 508.632 31.085 508.19 30.847C507.76 30.5977 507.459 30.269 507.289 29.861V34.366H505.895V22.5ZM515.74 31V22.5H516.845L517.032 24.676C517.191 23.962 517.519 23.3897 518.018 22.959C518.517 22.517 519.089 22.296 519.735 22.296C519.814 22.296 519.894 22.3017 519.973 22.313C520.064 22.3243 520.149 22.3357 520.228 22.347L520.143 23.809C520.075 23.7977 519.979 23.7863 519.854 23.775C519.729 23.7637 519.599 23.758 519.463 23.758C518.76 23.758 518.194 24.0243 517.763 24.557C517.344 25.0897 517.134 25.8037 517.134 26.699V31H515.74ZM528.609 31H527.504L527.334 29.385C527.141 29.9743 526.813 30.4277 526.348 30.745C525.883 31.051 525.317 31.204 524.648 31.204C523.866 31.204 523.231 30.9603 522.744 30.473C522.268 29.9857 522.03 29.3227 522.03 28.484V22.5H523.424V28.331C523.424 28.875 523.566 29.3057 523.849 29.623C524.132 29.929 524.529 30.082 525.039 30.082C525.708 30.082 526.235 29.8497 526.62 29.385C527.005 28.9203 527.198 28.2687 527.198 27.43V22.5H528.609V31ZM531.595 22.5H532.632L532.802 24.149C533.04 23.5597 533.408 23.1063 533.907 22.789C534.405 22.4603 534.989 22.296 535.658 22.296C536.451 22.296 537.086 22.5453 537.562 23.044C538.038 23.5313 538.276 24.1943 538.276 25.033V31H536.882V25.322C536.882 24.744 536.734 24.302 536.44 23.996C536.156 23.6787 535.748 23.52 535.216 23.52C534.513 23.52 533.963 23.741 533.567 24.183C533.181 24.625 532.989 25.254 532.989 26.07V31H531.595V22.5ZM544.369 30.099C544.902 30.099 545.338 29.9687 545.678 29.708C546.018 29.4473 546.251 29.062 546.375 28.552L547.582 28.892C547.401 29.64 547.033 30.2123 546.477 30.609C545.922 31.0057 545.219 31.204 544.369 31.204C543.179 31.204 542.25 30.8187 541.581 30.048C540.913 29.2773 540.578 28.1893 540.578 26.784C540.578 25.4127 540.918 24.3247 541.598 23.52C542.29 22.704 543.213 22.296 544.369 22.296C545.378 22.296 546.177 22.6247 546.766 23.282C547.367 23.928 547.667 24.7893 547.667 25.866C547.667 26.0813 547.65 26.291 547.616 26.495C547.582 26.699 547.543 26.869 547.497 27.005H541.921C541.955 27.991 542.182 28.756 542.601 29.3C543.032 29.8327 543.621 30.099 544.369 30.099ZM544.335 23.367C543.667 23.367 543.123 23.5937 542.703 24.047C542.295 24.5003 542.046 25.1463 541.955 25.985H546.273C546.285 25.9283 546.29 25.8717 546.29 25.815C546.29 25.747 546.29 25.6563 546.29 25.543C546.29 24.897 546.109 24.3757 545.746 23.979C545.395 23.571 544.925 23.367 544.335 23.367ZM552.538 31.204C551.632 31.204 550.872 30.9943 550.26 30.575C549.66 30.1557 549.297 29.5833 549.172 28.858L550.447 28.501C550.515 28.977 550.742 29.368 551.127 29.674C551.524 29.98 551.994 30.133 552.538 30.133C553.128 30.133 553.581 30.0197 553.898 29.793C554.227 29.555 554.391 29.2207 554.391 28.79C554.391 28.4273 554.261 28.1383 554 27.923C553.751 27.7077 553.196 27.5037 552.334 27.311C551.768 27.1863 551.348 27.073 551.076 26.971C550.816 26.869 550.589 26.7557 550.396 26.631C550.113 26.427 549.898 26.1777 549.75 25.883C549.614 25.5883 549.546 25.2427 549.546 24.846C549.546 24.0753 549.818 23.4577 550.362 22.993C550.918 22.5283 551.637 22.296 552.521 22.296C553.451 22.296 554.17 22.5 554.68 22.908C555.202 23.3047 555.508 23.8883 555.598 24.659L554.289 24.846C554.244 24.37 554.068 24.0073 553.762 23.758C553.468 23.4973 553.054 23.367 552.521 23.367C552 23.367 551.592 23.4917 551.297 23.741C551.003 23.979 550.855 24.3133 550.855 24.744C550.855 25.0953 550.98 25.3787 551.229 25.594C551.479 25.798 552.028 25.9907 552.878 26.172C553.456 26.2967 553.881 26.41 554.153 26.512C554.425 26.6027 554.658 26.716 554.85 26.852C555.134 27.056 555.343 27.311 555.479 27.617C555.627 27.9117 555.7 28.2687 555.7 28.688C555.7 29.4587 555.411 30.0707 554.833 30.524C554.255 30.9773 553.49 31.204 552.538 31.204Z" fill="#A600FF"/>
</svg>
