<svg width="600" height="120" viewBox="0 0 600 120" fill="none" xmlns="http://www.w3.org/2000/svg">
<g clip-path="url(#clip0_1_157)">
<rect width="600" height="120" fill="#1F0C1D"/>
<rect x="430" y="64" width="31" height="8" fill="#F5D786"/>
<rect x="467" y="64" width="29" height="8" fill="#F5D786"/>
<rect x="504" y="64" width="30" height="8" fill="#F5D786"/>
<rect x="541" y="64" width="30" height="8" fill="#BA32AD"/>
<rect x="24" y="64" width="30" height="8" fill="#F5D786"/>
<rect x="61" y="64" width="30" height="8" fill="#F5D786"/>
<rect x="97" y="64" width="31" height="8" fill="#F5D786"/>
<rect x="134" y="64" width="30" height="8" fill="#BA32AD"/>
<rect x="172" y="64" width="29" height="8" fill="#BA32AD"/>
<rect x="209" y="64" width="29" height="8" fill="#BA32AD"/>
<rect x="246" y="64" width="30" height="8" fill="#BA32AD"/>
<rect x="282" y="64" width="29" height="8" fill="#BA32AD"/>
<rect x="319" y="64" width="30" height="8" fill="#BA32AD"/>
<rect x="357" y="64" width="29" height="8" fill="#BA32AD"/>
<rect x="394" y="64" width="29" height="8" fill="#F5D786"/>
<path d="M40.1825 78.2727V87H39.1257V79.3807H39.0746L36.9439 80.7955V79.7216L39.1257 78.2727H40.1825Z" fill="#F5D786"/>
<path d="M73.2706 87V86.233L76.1513 83.0795C76.4893 82.7102 76.7678 82.3892 76.9865 82.1165C77.2053 81.8409 77.3672 81.5824 77.4723 81.3409C77.5803 81.0966 77.6342 80.8409 77.6342 80.5739C77.6342 80.267 77.5604 80.0014 77.4126 79.777C77.2678 79.5526 77.0689 79.3793 76.8161 79.2571C76.5632 79.1349 76.2791 79.0739 75.9638 79.0739C75.6286 79.0739 75.3359 79.1435 75.0859 79.2827C74.8388 79.419 74.647 79.6108 74.5107 79.858C74.3771 80.1051 74.3104 80.3949 74.3104 80.7273H73.3047C73.3047 80.2159 73.4226 79.767 73.6584 79.3807C73.8942 78.9943 74.2152 78.6932 74.6214 78.4773C75.0305 78.2614 75.4893 78.1534 75.9979 78.1534C76.5092 78.1534 76.9624 78.2614 77.3572 78.4773C77.7521 78.6932 78.0618 78.9844 78.2862 79.3509C78.5107 79.7173 78.6229 80.125 78.6229 80.5739C78.6229 80.8949 78.5646 81.2088 78.4482 81.5156C78.3345 81.8196 78.1357 82.1591 77.8516 82.5341C77.5703 82.9062 77.1797 83.3608 76.6797 83.8977L74.7195 85.9943V86.0625H78.7763V87H73.2706Z" fill="#F5D786"/>
<path d="M113.532 87.1193C112.969 87.1193 112.468 87.0227 112.028 86.8295C111.59 86.6364 111.242 86.3679 110.984 86.0241C110.728 85.6776 110.589 85.2756 110.566 84.8182H111.64C111.663 85.0994 111.759 85.3423 111.93 85.5469C112.1 85.7486 112.323 85.9048 112.599 86.0156C112.874 86.1264 113.18 86.1818 113.515 86.1818C113.89 86.1818 114.222 86.1165 114.512 85.9858C114.802 85.8551 115.029 85.6733 115.194 85.4403C115.359 85.2074 115.441 84.9375 115.441 84.6307C115.441 84.3097 115.362 84.027 115.202 83.7827C115.043 83.5355 114.81 83.3423 114.504 83.2031C114.197 83.0639 113.822 82.9943 113.379 82.9943H112.68V82.0568H113.379C113.725 82.0568 114.029 81.9943 114.29 81.8693C114.555 81.7443 114.761 81.5682 114.908 81.3409C115.059 81.1136 115.134 80.8466 115.134 80.5398C115.134 80.2443 115.069 79.9872 114.938 79.7685C114.808 79.5497 114.623 79.3793 114.384 79.2571C114.148 79.1349 113.87 79.0739 113.549 79.0739C113.248 79.0739 112.964 79.1293 112.697 79.2401C112.433 79.348 112.217 79.5057 112.049 79.7131C111.881 79.9176 111.79 80.1648 111.776 80.4545H110.754C110.771 79.9972 110.908 79.5966 111.167 79.2528C111.425 78.9062 111.763 78.6364 112.181 78.4432C112.602 78.25 113.063 78.1534 113.566 78.1534C114.106 78.1534 114.569 78.2628 114.955 78.4815C115.342 78.6974 115.638 78.983 115.846 79.3381C116.053 79.6932 116.157 80.0767 116.157 80.4886C116.157 80.9801 116.028 81.3991 115.769 81.7457C115.513 82.0923 115.165 82.3324 114.725 82.4659V82.5341C115.276 82.625 115.707 82.8594 116.016 83.2372C116.326 83.6122 116.481 84.0767 116.481 84.6307C116.481 85.1051 116.352 85.5312 116.093 85.9091C115.837 86.2841 115.488 86.5795 115.045 86.7955C114.602 87.0114 114.097 87.1193 113.532 87.1193Z" fill="#F5D786"/>
<path d="M145.849 85.2102V84.3409L149.684 78.2727H150.315V79.6193H149.889L146.991 84.2045V84.2727H152.156V85.2102H145.849ZM149.957 87V84.946V84.5412V78.2727H150.963V87H149.957Z" fill="#BA32AD"/>
<path d="M186.48 87.1193C185.98 87.1193 185.53 87.0199 185.129 86.821C184.729 86.6222 184.408 86.3494 184.166 86.0028C183.925 85.6562 183.793 85.2614 183.77 84.8182H184.793C184.833 85.2131 185.012 85.5398 185.33 85.7983C185.651 86.054 186.034 86.1818 186.48 86.1818C186.838 86.1818 187.156 86.098 187.435 85.9304C187.716 85.7628 187.936 85.5327 188.095 85.2401C188.257 84.9446 188.338 84.6108 188.338 84.2386C188.338 83.858 188.254 83.5185 188.087 83.2202C187.922 82.919 187.695 82.6818 187.405 82.5085C187.115 82.3352 186.784 82.2472 186.412 82.2443C186.145 82.2415 185.871 82.2827 185.59 82.3679C185.308 82.4503 185.077 82.5568 184.895 82.6875L183.906 82.5682L184.435 78.2727H188.969V79.2102H185.321L185.014 81.7841H185.066C185.244 81.642 185.469 81.5241 185.739 81.4304C186.009 81.3366 186.29 81.2898 186.583 81.2898C187.117 81.2898 187.593 81.4176 188.01 81.6733C188.431 81.9261 188.76 82.2727 188.999 82.7131C189.24 83.1534 189.361 83.6562 189.361 84.2216C189.361 84.7784 189.236 85.2756 188.986 85.7131C188.739 86.1477 188.398 86.4915 187.963 86.7443C187.529 86.9943 187.034 87.1193 186.48 87.1193Z" fill="#BA32AD"/>
<path d="M223.557 87.1193C223.199 87.1136 222.841 87.0455 222.483 86.9148C222.125 86.7841 221.798 86.5639 221.503 86.2543C221.208 85.9418 220.97 85.5199 220.791 84.9886C220.612 84.4545 220.523 83.7841 220.523 82.9773C220.523 82.2045 220.595 81.5199 220.74 80.9233C220.885 80.3239 221.095 79.8196 221.371 79.4105C221.646 78.9986 221.979 78.6861 222.368 78.473C222.76 78.2599 223.202 78.1534 223.693 78.1534C224.182 78.1534 224.617 78.2514 224.997 78.4474C225.381 78.6406 225.693 78.9105 225.935 79.2571C226.176 79.6037 226.333 80.0028 226.404 80.4545H225.364C225.267 80.0625 225.08 79.7372 224.801 79.4787C224.523 79.2202 224.154 79.0909 223.693 79.0909C223.017 79.0909 222.485 79.3849 222.095 79.973C221.709 80.5611 221.514 81.3864 221.512 82.4489H221.58C221.739 82.2074 221.928 82.0014 222.146 81.831C222.368 81.6577 222.612 81.5241 222.879 81.4304C223.146 81.3366 223.429 81.2898 223.727 81.2898C224.227 81.2898 224.685 81.4148 225.1 81.6648C225.514 81.9119 225.847 82.2543 226.097 82.6918C226.347 83.1264 226.472 83.625 226.472 84.1875C226.472 84.7273 226.351 85.2216 226.11 85.6705C225.868 86.1165 225.529 86.4716 225.091 86.7358C224.656 86.9972 224.145 87.125 223.557 87.1193ZM223.557 86.1818C223.915 86.1818 224.236 86.0923 224.52 85.9134C224.807 85.7344 225.033 85.4943 225.198 85.1932C225.365 84.892 225.449 84.5568 225.449 84.1875C225.449 83.8267 225.368 83.4986 225.206 83.2031C225.047 82.9048 224.827 82.6676 224.546 82.4915C224.267 82.3153 223.949 82.2273 223.591 82.2273C223.321 82.2273 223.07 82.2812 222.837 82.3892C222.604 82.4943 222.399 82.6392 222.223 82.8239C222.05 83.0085 221.914 83.2202 221.814 83.4588C221.715 83.6946 221.665 83.9432 221.665 84.2045C221.665 84.5511 221.746 84.875 221.908 85.1761C222.073 85.4773 222.297 85.7202 222.581 85.9048C222.868 86.0895 223.193 86.1818 223.557 86.1818Z" fill="#BA32AD"/>
<path d="M258.748 87L262.652 79.2784V79.2102H258.152V78.2727H263.743V79.2614L259.856 87H258.748Z" fill="#BA32AD"/>
<path d="M298.502 87.1193C297.916 87.1193 297.399 87.0156 296.95 86.8082C296.504 86.598 296.156 86.3097 295.906 85.9432C295.656 85.5739 295.533 85.1534 295.536 84.6818C295.533 84.3125 295.605 83.9716 295.753 83.6591C295.901 83.3437 296.102 83.081 296.358 82.8707C296.617 82.6577 296.905 82.5227 297.223 82.4659V82.4148C296.806 82.3068 296.473 82.0724 296.226 81.7116C295.979 81.348 295.857 80.9347 295.86 80.4716C295.857 80.0284 295.969 79.6321 296.196 79.2827C296.423 78.9332 296.736 78.6577 297.134 78.456C297.534 78.2543 297.99 78.1534 298.502 78.1534C299.007 78.1534 299.459 78.2543 299.857 78.456C300.254 78.6577 300.567 78.9332 300.794 79.2827C301.024 79.6321 301.141 80.0284 301.144 80.4716C301.141 80.9347 301.014 81.348 300.764 81.7116C300.517 82.0724 300.189 82.3068 299.78 82.4148V82.4659C300.095 82.5227 300.379 82.6577 300.632 82.8707C300.885 83.081 301.087 83.3437 301.237 83.6591C301.388 83.9716 301.465 84.3125 301.468 84.6818C301.465 85.1534 301.337 85.5739 301.084 85.9432C300.834 86.3097 300.486 86.598 300.04 86.8082C299.597 87.0156 299.084 87.1193 298.502 87.1193ZM298.502 86.1818C298.896 86.1818 299.237 86.1179 299.524 85.9901C299.811 85.8622 300.033 85.6818 300.189 85.4489C300.345 85.2159 300.425 84.9432 300.428 84.6307C300.425 84.3011 300.34 84.0099 300.172 83.7571C300.004 83.5043 299.776 83.3054 299.486 83.1605C299.199 83.0156 298.871 82.9432 298.502 82.9432C298.129 82.9432 297.797 83.0156 297.504 83.1605C297.215 83.3054 296.986 83.5043 296.818 83.7571C296.654 84.0099 296.573 84.3011 296.575 84.6307C296.573 84.9432 296.648 85.2159 296.801 85.4489C296.958 85.6818 297.181 85.8622 297.47 85.9901C297.76 86.1179 298.104 86.1818 298.502 86.1818ZM298.502 82.0398C298.814 82.0398 299.091 81.9773 299.333 81.8523C299.577 81.7273 299.769 81.5526 299.908 81.3281C300.047 81.1037 300.118 80.8409 300.121 80.5398C300.118 80.2443 300.048 79.9872 299.912 79.7685C299.776 79.5469 299.587 79.3764 299.345 79.2571C299.104 79.1349 298.823 79.0739 298.502 79.0739C298.175 79.0739 297.889 79.1349 297.645 79.2571C297.401 79.3764 297.212 79.5469 297.078 79.7685C296.945 79.9872 296.879 80.2443 296.882 80.5398C296.879 80.8409 296.946 81.1037 297.083 81.3281C297.222 81.5526 297.414 81.7273 297.658 81.8523C297.902 81.9773 298.183 82.0398 298.502 82.0398Z" fill="#BA32AD"/>
<path d="M335.438 78.1534C335.796 78.1562 336.154 78.2244 336.512 78.358C336.869 78.4915 337.196 78.7131 337.492 79.0227C337.787 79.3295 338.024 79.7486 338.203 80.2798C338.382 80.8111 338.472 81.4773 338.472 82.2784C338.472 83.054 338.398 83.7429 338.25 84.3452C338.105 84.9446 337.895 85.4503 337.619 85.8622C337.347 86.2741 337.014 86.5866 336.622 86.7997C336.233 87.0128 335.793 87.1193 335.301 87.1193C334.813 87.1193 334.377 87.0227 333.993 86.8295C333.612 86.6335 333.3 86.3622 333.056 86.0156C332.814 85.6662 332.659 85.2614 332.591 84.8011H333.631C333.725 85.2017 333.911 85.5327 334.189 85.794C334.47 86.0526 334.841 86.1818 335.301 86.1818C335.975 86.1818 336.506 85.8878 336.895 85.2997C337.287 84.7116 337.483 83.8807 337.483 82.8068H337.415C337.256 83.0455 337.067 83.2514 336.848 83.4247C336.629 83.598 336.387 83.7315 336.119 83.8253C335.852 83.919 335.568 83.9659 335.267 83.9659C334.767 83.9659 334.308 83.8423 333.891 83.5952C333.476 83.3452 333.144 83.0028 332.894 82.5682C332.646 82.1307 332.523 81.6307 332.523 81.0682C332.523 80.5341 332.642 80.0455 332.881 79.6023C333.122 79.1562 333.46 78.8011 333.895 78.5369C334.333 78.2727 334.847 78.1449 335.438 78.1534ZM335.438 79.0909C335.08 79.0909 334.757 79.1804 334.47 79.3594C334.186 79.5355 333.96 79.7741 333.793 80.0753C333.628 80.3736 333.546 80.7045 333.546 81.0682C333.546 81.4318 333.625 81.7628 333.784 82.0611C333.946 82.3565 334.166 82.5923 334.445 82.7685C334.726 82.9418 335.046 83.0284 335.404 83.0284C335.673 83.0284 335.925 82.9759 336.158 82.8707C336.391 82.7628 336.594 82.6165 336.767 82.4318C336.943 82.2443 337.081 82.0327 337.181 81.7969C337.28 81.5582 337.33 81.3097 337.33 81.0511C337.33 80.7102 337.247 80.3906 337.083 80.0923C336.921 79.794 336.696 79.5526 336.409 79.3679C336.125 79.1832 335.801 79.0909 335.438 79.0909Z" fill="#BA32AD"/>
<path d="M368.933 78.2727V87H367.876V79.3807H367.825L365.694 80.7955V79.7216L367.876 78.2727H368.933ZM374.289 87.1193C373.647 87.1193 373.1 86.9446 372.648 86.5952C372.197 86.2429 371.852 85.733 371.613 85.0653C371.374 84.3949 371.255 83.5852 371.255 82.6364C371.255 81.6932 371.374 80.8878 371.613 80.2202C371.854 79.5497 372.201 79.0384 372.653 78.6861C373.107 78.331 373.653 78.1534 374.289 78.1534C374.925 78.1534 375.469 78.331 375.921 78.6861C376.376 79.0384 376.722 79.5497 376.961 80.2202C377.202 80.8878 377.323 81.6932 377.323 82.6364C377.323 83.5852 377.204 84.3949 376.965 85.0653C376.727 85.733 376.381 86.2429 375.93 86.5952C375.478 86.9446 374.931 87.1193 374.289 87.1193ZM374.289 86.1818C374.925 86.1818 375.42 85.875 375.772 85.2614C376.124 84.6477 376.3 83.7727 376.3 82.6364C376.3 81.8807 376.219 81.2372 376.058 80.706C375.898 80.1747 375.668 79.7699 375.367 79.4915C375.069 79.2131 374.71 79.0739 374.289 79.0739C373.658 79.0739 373.165 79.3849 372.81 80.0071C372.455 80.6264 372.278 81.5028 372.278 82.6364C372.278 83.392 372.357 84.0341 372.516 84.5625C372.675 85.0909 372.904 85.4929 373.202 85.7685C373.504 86.044 373.866 86.1818 374.289 86.1818Z" fill="#BA32AD"/>
<path d="M406.893 78.2727V87H405.837V79.3807H405.786L403.655 80.7955V79.7216L405.837 78.2727H406.893ZM412.472 78.2727V87H411.415V79.3807H411.364L409.233 80.7955V79.7216L411.415 78.2727H412.472Z" fill="#F5D786"/>
<path d="M443.55 78.2727V87H442.493V79.3807H442.442L440.311 80.7955V79.7216L442.493 78.2727H443.55ZM446.06 87V86.233L448.94 83.0795C449.278 82.7102 449.557 82.3892 449.776 82.1165C449.994 81.8409 450.156 81.5824 450.261 81.3409C450.369 81.0966 450.423 80.8409 450.423 80.5739C450.423 80.267 450.349 80.0014 450.202 79.777C450.057 79.5526 449.858 79.3793 449.605 79.2571C449.352 79.1349 449.068 79.0739 448.753 79.0739C448.418 79.0739 448.125 79.1435 447.875 79.2827C447.628 79.419 447.436 79.6108 447.3 79.858C447.166 80.1051 447.099 80.3949 447.099 80.7273H446.094C446.094 80.2159 446.212 79.767 446.447 79.3807C446.683 78.9943 447.004 78.6932 447.411 78.4773C447.82 78.2614 448.278 78.1534 448.787 78.1534C449.298 78.1534 449.751 78.2614 450.146 78.4773C450.541 78.6932 450.851 78.9844 451.075 79.3509C451.3 79.7173 451.412 80.125 451.412 80.5739C451.412 80.8949 451.354 81.2088 451.237 81.5156C451.124 81.8196 450.925 82.1591 450.641 82.5341C450.359 82.9062 449.969 83.3608 449.469 83.8977L447.509 85.9943V86.0625H451.565V87H446.06Z" fill="#F5D786"/>
<path d="M478.862 78.2727V87H477.805V79.3807H477.754L475.624 80.7955V79.7216L477.805 78.2727H478.862ZM484.321 87.1193C483.759 87.1193 483.257 87.0227 482.817 86.8295C482.379 86.6364 482.031 86.3679 481.773 86.0241C481.517 85.6776 481.378 85.2756 481.355 84.8182H482.429C482.452 85.0994 482.548 85.3423 482.719 85.5469C482.889 85.7486 483.112 85.9048 483.388 86.0156C483.663 86.1264 483.969 86.1818 484.304 86.1818C484.679 86.1818 485.011 86.1165 485.301 85.9858C485.591 85.8551 485.818 85.6733 485.983 85.4403C486.148 85.2074 486.23 84.9375 486.23 84.6307C486.23 84.3097 486.151 84.027 485.991 83.7827C485.832 83.5355 485.599 83.3423 485.293 83.2031C484.986 83.0639 484.611 82.9943 484.168 82.9943H483.469V82.0568H484.168C484.514 82.0568 484.818 81.9943 485.08 81.8693C485.344 81.7443 485.55 81.5682 485.697 81.3409C485.848 81.1136 485.923 80.8466 485.923 80.5398C485.923 80.2443 485.858 79.9872 485.727 79.7685C485.597 79.5497 485.412 79.3793 485.173 79.2571C484.938 79.1349 484.659 79.0739 484.338 79.0739C484.037 79.0739 483.753 79.1293 483.486 79.2401C483.222 79.348 483.006 79.5057 482.838 79.7131C482.67 79.9176 482.58 80.1648 482.565 80.4545H481.543C481.56 79.9972 481.697 79.5966 481.956 79.2528C482.214 78.9062 482.553 78.6364 482.97 78.4432C483.391 78.25 483.852 78.1534 484.355 78.1534C484.895 78.1534 485.358 78.2628 485.744 78.4815C486.131 78.6974 486.428 78.983 486.635 79.3381C486.842 79.6932 486.946 80.0767 486.946 80.4886C486.946 80.9801 486.817 81.3991 486.558 81.7457C486.303 82.0923 485.955 82.3324 485.514 82.4659V82.5341C486.065 82.625 486.496 82.8594 486.805 83.2372C487.115 83.6122 487.27 84.0767 487.27 84.6307C487.27 85.1051 487.141 85.5312 486.882 85.9091C486.626 86.2841 486.277 86.5795 485.834 86.7955C485.391 87.0114 484.886 87.1193 484.321 87.1193Z" fill="#F5D786"/>
<path d="M516.333 78.2727V87H515.276V79.3807H515.225L513.094 80.7955V79.7216L515.276 78.2727H516.333ZM518.638 85.2102V84.3409L522.474 78.2727H523.104V79.6193H522.678L519.78 84.2045V84.2727H524.945V85.2102H518.638ZM522.746 87V84.946V84.5412V78.2727H523.752V87H522.746Z" fill="#F5D786"/>
<path d="M553.532 78.2727V87H552.475V79.3807H552.424L550.294 80.7955V79.7216L552.475 78.2727H553.532ZM558.769 87.1193C558.269 87.1193 557.819 87.0199 557.419 86.821C557.018 86.6222 556.697 86.3494 556.455 86.0028C556.214 85.6562 556.082 85.2614 556.059 84.8182H557.082C557.122 85.2131 557.301 85.5398 557.619 85.7983C557.94 86.054 558.323 86.1818 558.769 86.1818C559.127 86.1818 559.445 86.098 559.724 85.9304C560.005 85.7628 560.225 85.5327 560.384 85.2401C560.546 84.9446 560.627 84.6108 560.627 84.2386C560.627 83.858 560.544 83.5185 560.376 83.2202C560.211 82.919 559.984 82.6818 559.694 82.5085C559.404 82.3352 559.073 82.2472 558.701 82.2443C558.434 82.2415 558.16 82.2827 557.879 82.3679C557.597 82.4503 557.366 82.5568 557.184 82.6875L556.195 82.5682L556.724 78.2727H561.258V79.2102H557.61L557.303 81.7841H557.355C557.534 81.642 557.758 81.5241 558.028 81.4304C558.298 81.3366 558.579 81.2898 558.872 81.2898C559.406 81.2898 559.882 81.4176 560.299 81.6733C560.72 81.9261 561.049 82.2727 561.288 82.7131C561.529 83.1534 561.65 83.6562 561.65 84.2216C561.65 84.7784 561.525 85.2756 561.275 85.7131C561.028 86.1477 560.687 86.4915 560.252 86.7443C559.818 86.9943 559.323 87.1193 558.769 87.1193Z" fill="#BA32AD"/>
<path d="M59.0274 28V15.6364H63.3499C64.2111 15.6364 64.9215 15.7853 65.4809 16.0831C66.0403 16.3769 66.4569 16.7733 66.7306 17.2724C67.0042 17.7674 67.1411 18.3168 67.1411 18.9205C67.1411 19.4517 67.0465 19.8904 66.8573 20.2365C66.6722 20.5826 66.4267 20.8563 66.1208 21.0575C65.819 21.2588 65.491 21.4077 65.1368 21.5043V21.625C65.5151 21.6491 65.8954 21.782 66.2778 22.0234C66.6601 22.2649 66.9801 22.611 67.2377 23.0618C67.4952 23.5125 67.624 24.0639 67.624 24.7159C67.624 25.3357 67.4832 25.8931 67.2014 26.3881C66.9197 26.8832 66.475 27.2756 65.8673 27.5653C65.2596 27.8551 64.4687 28 63.4948 28H59.0274ZM60.5246 26.6719H63.4948C64.4727 26.6719 65.167 26.4827 65.5775 26.1044C65.992 25.7221 66.1993 25.2592 66.1993 24.7159C66.1993 24.2973 66.0927 23.911 65.8794 23.5568C65.666 23.1986 65.3622 22.9129 64.9678 22.6996C64.5734 22.4822 64.1065 22.3736 63.5672 22.3736H60.5246V26.6719ZM60.5246 21.0696H63.3016C63.7523 21.0696 64.1588 20.9811 64.521 20.804C64.8873 20.6269 65.1771 20.3774 65.3904 20.0554C65.6077 19.7334 65.7164 19.3551 65.7164 18.9205C65.7164 18.3771 65.5272 17.9163 65.1489 17.538C64.7706 17.1557 64.1709 16.9645 63.3499 16.9645H60.5246V21.0696ZM69.8909 28V18.7273H71.2673V20.1278H71.3639C71.5329 19.669 71.8388 19.2968 72.2815 19.011C72.7242 18.7253 73.2233 18.5824 73.7787 18.5824C73.8833 18.5824 74.0141 18.5844 74.1711 18.5884C74.328 18.5924 74.4468 18.5985 74.5273 18.6065V20.0554C74.479 20.0433 74.3683 20.0252 74.1952 20.0011C74.0262 19.9729 73.8471 19.9588 73.6579 19.9588C73.2072 19.9588 72.8047 20.0534 72.4506 20.2425C72.1004 20.4277 71.8227 20.6853 71.6175 21.0153C71.4162 21.3413 71.3156 21.7135 71.3156 22.1321V28H69.8909ZM78.9448 28.2173C78.3572 28.2173 77.8239 28.1067 77.345 27.8853C76.8661 27.6599 76.4857 27.3359 76.204 26.9134C75.9223 26.4867 75.7814 25.9716 75.7814 25.3679C75.7814 24.8366 75.8861 24.406 76.0953 24.076C76.3046 23.742 76.5843 23.4804 76.9345 23.2912C77.2846 23.102 77.671 22.9612 78.0936 22.8686C78.5202 22.772 78.9488 22.6955 79.3794 22.6392C79.9429 22.5668 80.3997 22.5124 80.7498 22.4762C81.104 22.436 81.3616 22.3696 81.5225 22.277C81.6876 22.1844 81.7701 22.0234 81.7701 21.794V21.7457C81.7701 21.1501 81.6071 20.6873 81.2811 20.3572C80.9591 20.0272 80.4701 19.8622 79.8141 19.8622C79.1339 19.8622 78.6007 20.0111 78.2143 20.3089C77.8279 20.6068 77.5563 20.9247 77.3993 21.2628L76.0471 20.7798C76.2885 20.2164 76.6105 19.7777 77.013 19.4638C77.4194 19.1458 77.8622 18.9245 78.3411 18.7997C78.824 18.6709 79.2989 18.6065 79.7658 18.6065C80.0636 18.6065 80.4057 18.6428 80.7921 18.7152C81.1825 18.7836 81.5588 18.9265 81.921 19.1438C82.2872 19.3612 82.5911 19.6892 82.8326 20.1278C83.074 20.5665 83.1948 21.1541 83.1948 21.8906V28H81.7701V26.7443H81.6976C81.601 26.9455 81.44 27.1609 81.2147 27.3903C80.9893 27.6197 80.6895 27.8149 80.3152 27.9759C79.9409 28.1368 79.4841 28.2173 78.9448 28.2173ZM79.1621 26.9375C79.7256 26.9375 80.2005 26.8268 80.5868 26.6055C80.9772 26.3841 81.271 26.0984 81.4682 25.7482C81.6694 25.3981 81.7701 25.0298 81.7701 24.6435V23.3395C81.7097 23.4119 81.5769 23.4783 81.3716 23.5387C81.1704 23.5951 80.937 23.6454 80.6713 23.6896C80.4097 23.7299 80.1542 23.7661 79.9047 23.7983C79.6592 23.8265 79.4599 23.8506 79.307 23.8707C78.9367 23.919 78.5906 23.9975 78.2686 24.1062C77.9507 24.2108 77.6931 24.3698 77.4959 24.5831C77.3027 24.7924 77.2061 25.0781 77.2061 25.4403C77.2061 25.9354 77.3893 26.3097 77.7555 26.5632C78.1258 26.8127 78.5946 26.9375 79.1621 26.9375ZM85.7952 28V18.7273H87.2199V28H85.7952ZM86.5196 17.1818C86.2419 17.1818 86.0025 17.0872 85.8012 16.8981C85.604 16.7089 85.5054 16.4815 85.5054 16.2159C85.5054 15.9503 85.604 15.7229 85.8012 15.5337C86.0025 15.3446 86.2419 15.25 86.5196 15.25C86.7973 15.25 87.0348 15.3446 87.232 15.5337C87.4332 15.7229 87.5338 15.9503 87.5338 16.2159C87.5338 16.4815 87.4332 16.7089 87.232 16.8981C87.0348 17.0872 86.7973 17.1818 86.5196 17.1818ZM91.2541 22.4219V28H89.8294V18.7273H91.2058V20.1761H91.3265C91.5439 19.7053 91.8739 19.3269 92.3166 19.0412C92.7593 18.7514 93.3308 18.6065 94.0311 18.6065C94.6589 18.6065 95.2083 18.7353 95.6792 18.9929C96.15 19.2464 96.5163 19.6328 96.7779 20.152C97.0395 20.6671 97.1703 21.3191 97.1703 22.108V28H95.7456V22.2045C95.7456 21.4761 95.5564 20.9086 95.1781 20.5021C94.7998 20.0916 94.2806 19.8864 93.6206 19.8864C93.1658 19.8864 92.7593 19.985 92.4011 20.1822C92.0469 20.3794 91.7672 20.6671 91.562 21.0455C91.3567 21.4238 91.2541 21.8826 91.2541 22.4219ZM54.8159 52.6705C54.1277 52.6705 53.5361 52.5819 53.0411 52.4048C52.546 52.2318 52.1335 52.0024 51.8035 51.7166C51.4775 51.4349 51.2179 51.133 51.0247 50.8111L52.1597 50.0142C52.2885 50.1832 52.4515 50.3764 52.6487 50.5938C52.8459 50.8151 53.1155 51.0063 53.4576 51.1673C53.8037 51.3323 54.2565 51.4148 54.8159 51.4148C55.5645 51.4148 56.1823 51.2337 56.6693 50.8714C57.1562 50.5092 57.3997 49.9418 57.3997 49.169V47.2855H57.279C57.1743 47.4545 57.0254 47.6638 56.8323 47.9134C56.6431 48.1589 56.3694 48.3782 56.0112 48.5714C55.6571 48.7605 55.1781 48.8551 54.5744 48.8551C53.8259 48.8551 53.1537 48.678 52.5581 48.3239C51.9665 47.9697 51.4976 47.4545 51.1515 46.7784C50.8094 46.1023 50.6384 45.2812 50.6384 44.3153C50.6384 43.3655 50.8054 42.5385 51.1394 41.8342C51.4735 41.1258 51.9383 40.5785 52.534 40.1921C53.1296 39.8017 53.8178 39.6065 54.5986 39.6065C55.2023 39.6065 55.6812 39.7071 56.0354 39.9084C56.3936 40.1056 56.6672 40.331 56.8564 40.5845C57.0496 40.834 57.1985 41.0393 57.3031 41.2003H57.448V39.7273H58.8244V49.2656C58.8244 50.0625 58.6433 50.7105 58.2811 51.2095C57.9229 51.7126 57.44 52.0808 56.8323 52.3143C56.2286 52.5517 55.5564 52.6705 54.8159 52.6705ZM54.7676 47.5753C55.3391 47.5753 55.8221 47.4445 56.2165 47.1829C56.6109 46.9213 56.9107 46.545 57.116 46.054C57.3212 45.563 57.4239 44.9754 57.4239 44.2912C57.4239 43.6231 57.3233 43.0335 57.122 42.5224C56.9208 42.0112 56.623 41.6108 56.2286 41.321C55.8341 41.0312 55.3472 40.8864 54.7676 40.8864C54.1639 40.8864 53.6609 41.0393 53.2584 41.3452C52.86 41.651 52.5601 42.0616 52.3589 42.5767C52.1617 43.0919 52.0631 43.6634 52.0631 44.2912C52.0631 44.9351 52.1637 45.5046 52.3649 45.9996C52.5702 46.4906 52.872 46.877 53.2705 47.1587C53.6729 47.4364 54.172 47.5753 54.7676 47.5753ZM61.4324 49V39.7273H62.8088V41.1278H62.9054C63.0744 40.669 63.3803 40.2968 63.823 40.011C64.2657 39.7253 64.7648 39.5824 65.3202 39.5824C65.4248 39.5824 65.5556 39.5844 65.7126 39.5884C65.8695 39.5924 65.9883 39.5985 66.0688 39.6065V41.0554C66.0205 41.0433 65.9098 41.0252 65.7367 41.0011C65.5677 40.9729 65.3886 40.9588 65.1994 40.9588C64.7487 40.9588 64.3462 41.0534 63.9921 41.2425C63.6419 41.4277 63.3642 41.6853 63.159 42.0153C62.9577 42.3413 62.8571 42.7135 62.8571 43.1321V49H61.4324ZM71.2424 49.1932C70.4053 49.1932 69.6708 48.994 69.0389 48.5955C68.4111 48.1971 67.9201 47.6397 67.5659 46.9233C67.2158 46.2069 67.0407 45.3698 67.0407 44.4119C67.0407 43.446 67.2158 42.6029 67.5659 41.8825C67.9201 41.162 68.4111 40.6026 69.0389 40.2042C69.6708 39.8058 70.4053 39.6065 71.2424 39.6065C72.0795 39.6065 72.812 39.8058 73.4399 40.2042C74.0717 40.6026 74.5627 41.162 74.9129 41.8825C75.267 42.6029 75.4441 43.446 75.4441 44.4119C75.4441 45.3698 75.267 46.2069 74.9129 46.9233C74.5627 47.6397 74.0717 48.1971 73.4399 48.5955C72.812 48.994 72.0795 49.1932 71.2424 49.1932ZM71.2424 47.9134C71.8783 47.9134 72.4015 47.7504 72.812 47.4244C73.2225 47.0984 73.5264 46.6697 73.7236 46.1385C73.9208 45.6072 74.0194 45.0317 74.0194 44.4119C74.0194 43.7921 73.9208 43.2146 73.7236 42.6793C73.5264 42.1441 73.2225 41.7114 72.812 41.3814C72.4015 41.0514 71.8783 40.8864 71.2424 40.8864C70.6065 40.8864 70.0833 41.0514 69.6728 41.3814C69.2623 41.7114 68.9584 42.1441 68.7612 42.6793C68.564 43.2146 68.4654 43.7921 68.4654 44.4119C68.4654 45.0317 68.564 45.6072 68.7612 46.1385C68.9584 46.6697 69.2623 47.0984 69.6728 47.4244C70.0833 47.7504 70.6065 47.9134 71.2424 47.9134ZM79.4043 49L76.5791 39.7273H78.0762L80.0805 46.8267H80.1771L82.1572 39.7273H83.6785L85.6345 46.8026H85.731L87.7353 39.7273H89.2325L86.4072 49H85.0066L82.9782 41.8764H82.8333L80.8049 49H79.4043ZM95.1487 39.7273V40.9347H90.3433V39.7273H95.1487ZM91.7438 37.5057H93.1685V46.3438C93.1685 46.7462 93.2269 47.0481 93.3436 47.2493C93.4644 47.4465 93.6173 47.5793 93.8024 47.6477C93.9916 47.7121 94.1908 47.7443 94.4001 47.7443C94.557 47.7443 94.6858 47.7363 94.7864 47.7202C94.8871 47.7 94.9676 47.6839 95.0279 47.6719L95.3177 48.9517C95.2211 48.9879 95.0863 49.0241 94.9132 49.0604C94.7402 49.1006 94.5208 49.1207 94.2552 49.1207C93.8527 49.1207 93.4583 49.0342 93.072 48.8612C92.6896 48.6881 92.3717 48.4245 92.1181 48.0703C91.8686 47.7161 91.7438 47.2694 91.7438 46.7301V37.5057ZM98.9157 43.4219V49H97.491V36.6364H98.9157V41.1761H99.0364C99.2538 40.6972 99.5798 40.3169 100.014 40.0352C100.453 39.7494 101.037 39.6065 101.765 39.6065C102.397 39.6065 102.95 39.7333 103.425 39.9869C103.9 40.2364 104.268 40.6207 104.53 41.1399C104.796 41.6551 104.928 42.3111 104.928 43.108V49H103.504V43.2045C103.504 42.468 103.313 41.8986 102.93 41.4961C102.552 41.0896 102.027 40.8864 101.355 40.8864C100.888 40.8864 100.469 40.985 100.099 41.1822C99.7327 41.3794 99.4429 41.6671 99.2296 42.0455C99.0203 42.4238 98.9157 42.8826 98.9157 43.4219Z" fill="#F5D786"/>
<path d="M449.027 26V13.6364H453.35C454.211 13.6364 454.921 13.7853 455.481 14.0831C456.04 14.3769 456.457 14.7733 456.731 15.2724C457.004 15.7674 457.141 16.3168 457.141 16.9205C457.141 17.4517 457.046 17.8904 456.857 18.2365C456.672 18.5826 456.427 18.8563 456.121 19.0575C455.819 19.2588 455.491 19.4077 455.137 19.5043V19.625C455.515 19.6491 455.895 19.782 456.278 20.0234C456.66 20.2649 456.98 20.611 457.238 21.0618C457.495 21.5125 457.624 22.0639 457.624 22.7159C457.624 23.3357 457.483 23.8931 457.201 24.3881C456.92 24.8832 456.475 25.2756 455.867 25.5653C455.26 25.8551 454.469 26 453.495 26H449.027ZM450.525 24.6719H453.495C454.473 24.6719 455.167 24.4827 455.578 24.1044C455.992 23.7221 456.199 23.2592 456.199 22.7159C456.199 22.2973 456.093 21.911 455.879 21.5568C455.666 21.1986 455.362 20.9129 454.968 20.6996C454.573 20.4822 454.107 20.3736 453.567 20.3736H450.525V24.6719ZM450.525 19.0696H453.302C453.752 19.0696 454.159 18.9811 454.521 18.804C454.887 18.6269 455.177 18.3774 455.39 18.0554C455.608 17.7334 455.716 17.3551 455.716 16.9205C455.716 16.3771 455.527 15.9163 455.149 15.538C454.771 15.1557 454.171 14.9645 453.35 14.9645H450.525V19.0696ZM459.891 26V16.7273H461.267V18.1278H461.364C461.533 17.669 461.839 17.2968 462.282 17.011C462.724 16.7253 463.223 16.5824 463.779 16.5824C463.883 16.5824 464.014 16.5844 464.171 16.5884C464.328 16.5924 464.447 16.5985 464.527 16.6065V18.0554C464.479 18.0433 464.368 18.0252 464.195 18.0011C464.026 17.9729 463.847 17.9588 463.658 17.9588C463.207 17.9588 462.805 18.0534 462.451 18.2425C462.1 18.4277 461.823 18.6853 461.617 19.0153C461.416 19.3413 461.316 19.7135 461.316 20.1321V26H459.891ZM468.945 26.2173C468.357 26.2173 467.824 26.1067 467.345 25.8853C466.866 25.6599 466.486 25.3359 466.204 24.9134C465.922 24.4867 465.781 23.9716 465.781 23.3679C465.781 22.8366 465.886 22.406 466.095 22.076C466.305 21.742 466.584 21.4804 466.934 21.2912C467.285 21.102 467.671 20.9612 468.094 20.8686C468.52 20.772 468.949 20.6955 469.379 20.6392C469.943 20.5668 470.4 20.5124 470.75 20.4762C471.104 20.436 471.362 20.3696 471.523 20.277C471.688 20.1844 471.77 20.0234 471.77 19.794V19.7457C471.77 19.1501 471.607 18.6873 471.281 18.3572C470.959 18.0272 470.47 17.8622 469.814 17.8622C469.134 17.8622 468.601 18.0111 468.214 18.3089C467.828 18.6068 467.556 18.9247 467.399 19.2628L466.047 18.7798C466.289 18.2164 466.61 17.7777 467.013 17.4638C467.419 17.1458 467.862 16.9245 468.341 16.7997C468.824 16.6709 469.299 16.6065 469.766 16.6065C470.064 16.6065 470.406 16.6428 470.792 16.7152C471.182 16.7836 471.559 16.9265 471.921 17.1438C472.287 17.3612 472.591 17.6892 472.833 18.1278C473.074 18.5665 473.195 19.1541 473.195 19.8906V26H471.77V24.7443H471.698C471.601 24.9455 471.44 25.1609 471.215 25.3903C470.989 25.6197 470.689 25.8149 470.315 25.9759C469.941 26.1368 469.484 26.2173 468.945 26.2173ZM469.162 24.9375C469.726 24.9375 470.2 24.8268 470.587 24.6055C470.977 24.3841 471.271 24.0984 471.468 23.7482C471.669 23.3981 471.77 23.0298 471.77 22.6435V21.3395C471.71 21.4119 471.577 21.4783 471.372 21.5387C471.17 21.5951 470.937 21.6454 470.671 21.6896C470.41 21.7299 470.154 21.7661 469.905 21.7983C469.659 21.8265 469.46 21.8506 469.307 21.8707C468.937 21.919 468.591 21.9975 468.269 22.1062C467.951 22.2108 467.693 22.3698 467.496 22.5831C467.303 22.7924 467.206 23.0781 467.206 23.4403C467.206 23.9354 467.389 24.3097 467.756 24.5632C468.126 24.8127 468.595 24.9375 469.162 24.9375ZM475.795 26V16.7273H477.22V26H475.795ZM476.52 15.1818C476.242 15.1818 476.002 15.0872 475.801 14.8981C475.604 14.7089 475.505 14.4815 475.505 14.2159C475.505 13.9503 475.604 13.7229 475.801 13.5337C476.002 13.3446 476.242 13.25 476.52 13.25C476.797 13.25 477.035 13.3446 477.232 13.5337C477.433 13.7229 477.534 13.9503 477.534 14.2159C477.534 14.4815 477.433 14.7089 477.232 14.8981C477.035 15.0872 476.797 15.1818 476.52 15.1818ZM481.254 20.4219V26H479.829V16.7273H481.206V18.1761H481.327C481.544 17.7053 481.874 17.3269 482.317 17.0412C482.759 16.7514 483.331 16.6065 484.031 16.6065C484.659 16.6065 485.208 16.7353 485.679 16.9929C486.15 17.2464 486.516 17.6328 486.778 18.152C487.039 18.6671 487.17 19.3191 487.17 20.108V26H485.746V20.2045C485.746 19.4761 485.556 18.9086 485.178 18.5021C484.8 18.0916 484.281 17.8864 483.621 17.8864C483.166 17.8864 482.759 17.985 482.401 18.1822C482.047 18.3794 481.767 18.6671 481.562 19.0455C481.357 19.4238 481.254 19.8826 481.254 20.4219ZM411.746 47V37.7273H413.123V39.1278H413.219C413.388 38.669 413.694 38.2968 414.137 38.011C414.58 37.7253 415.079 37.5824 415.634 37.5824C415.739 37.5824 415.87 37.5844 416.027 37.5884C416.184 37.5924 416.302 37.5985 416.383 37.6065V39.0554C416.334 39.0433 416.224 39.0252 416.051 39.0011C415.882 38.9729 415.703 38.9588 415.513 38.9588C415.063 38.9588 414.66 39.0534 414.306 39.2425C413.956 39.4277 413.678 39.6853 413.473 40.0153C413.272 40.3413 413.171 40.7135 413.171 41.1321V47H411.746ZM421.677 47.1932C420.784 47.1932 420.013 46.996 419.365 46.6016C418.721 46.2031 418.224 45.6477 417.874 44.9354C417.528 44.219 417.355 43.3859 417.355 42.4361C417.355 41.4863 417.528 40.6491 417.874 39.9247C418.224 39.1963 418.711 38.6288 419.335 38.2223C419.963 37.8118 420.695 37.6065 421.532 37.6065C422.015 37.6065 422.492 37.687 422.963 37.848C423.434 38.009 423.862 38.2706 424.249 38.6328C424.635 38.991 424.943 39.4659 425.172 40.0575C425.402 40.6491 425.517 41.3776 425.517 42.2429V42.8466H418.369V41.6151H424.068C424.068 41.0919 423.963 40.625 423.754 40.2145C423.549 39.804 423.255 39.48 422.872 39.2425C422.494 39.0051 422.047 38.8864 421.532 38.8864C420.965 38.8864 420.474 39.0272 420.059 39.3089C419.649 39.5866 419.333 39.9489 419.111 40.3956C418.89 40.8423 418.779 41.3213 418.779 41.8324V42.6534C418.779 43.3537 418.9 43.9473 419.142 44.4343C419.387 44.9173 419.727 45.2855 420.162 45.5391C420.597 45.7886 421.102 45.9134 421.677 45.9134C422.051 45.9134 422.389 45.861 422.691 45.7564C422.997 45.6477 423.261 45.4867 423.482 45.2734C423.704 45.0561 423.875 44.7865 423.995 44.4645L425.372 44.8509C425.227 45.3177 424.983 45.7282 424.641 46.0824C424.299 46.4325 423.877 46.7062 423.373 46.9034C422.87 47.0966 422.305 47.1932 421.677 47.1932ZM431.451 47.1932C430.614 47.1932 429.879 46.994 429.247 46.5955C428.62 46.1971 428.129 45.6397 427.774 44.9233C427.424 44.2069 427.249 43.3698 427.249 42.4119C427.249 41.446 427.424 40.6029 427.774 39.8825C428.129 39.162 428.62 38.6026 429.247 38.2042C429.879 37.8058 430.614 37.6065 431.451 37.6065C432.288 37.6065 433.021 37.8058 433.648 38.2042C434.28 38.6026 434.771 39.162 435.121 39.8825C435.476 40.6029 435.653 41.446 435.653 42.4119C435.653 43.3698 435.476 44.2069 435.121 44.9233C434.771 45.6397 434.28 46.1971 433.648 46.5955C433.021 46.994 432.288 47.1932 431.451 47.1932ZM431.451 45.9134C432.087 45.9134 432.61 45.7504 433.021 45.4244C433.431 45.0984 433.735 44.6697 433.932 44.1385C434.129 43.6072 434.228 43.0317 434.228 42.4119C434.228 41.7921 434.129 41.2146 433.932 40.6793C433.735 40.1441 433.431 39.7114 433.021 39.3814C432.61 39.0514 432.087 38.8864 431.451 38.8864C430.815 38.8864 430.292 39.0514 429.881 39.3814C429.471 39.7114 429.167 40.1441 428.97 40.6793C428.773 41.2146 428.674 41.7921 428.674 42.4119C428.674 43.0317 428.773 43.6072 428.97 44.1385C429.167 44.6697 429.471 45.0984 429.881 45.4244C430.292 45.7504 430.815 45.9134 431.451 45.9134ZM437.827 47V37.7273H439.204V39.1278H439.3C439.469 38.669 439.775 38.2968 440.218 38.011C440.661 37.7253 441.16 37.5824 441.715 37.5824C441.82 37.5824 441.951 37.5844 442.108 37.5884C442.265 37.5924 442.383 37.5985 442.464 37.6065V39.0554C442.415 39.0433 442.305 39.0252 442.132 39.0011C441.963 38.9729 441.784 38.9588 441.594 38.9588C441.144 38.9588 440.741 39.0534 440.387 39.2425C440.037 39.4277 439.759 39.6853 439.554 40.0153C439.353 40.3413 439.252 40.7135 439.252 41.1321V47H437.827ZM447.613 50.6705C446.925 50.6705 446.333 50.5819 445.838 50.4048C445.343 50.2318 444.931 50.0024 444.601 49.7166C444.275 49.4349 444.015 49.133 443.822 48.8111L444.957 48.0142C445.086 48.1832 445.249 48.3764 445.446 48.5938C445.643 48.8151 445.913 49.0063 446.255 49.1673C446.601 49.3323 447.054 49.4148 447.613 49.4148C448.362 49.4148 448.98 49.2337 449.467 48.8714C449.954 48.5092 450.197 47.9418 450.197 47.169V45.2855H450.076C449.972 45.4545 449.823 45.6638 449.63 45.9134C449.44 46.1589 449.167 46.3782 448.809 46.5714C448.454 46.7605 447.975 46.8551 447.372 46.8551C446.623 46.8551 445.951 46.678 445.355 46.3239C444.764 45.9697 444.295 45.4545 443.949 44.7784C443.607 44.1023 443.436 43.2812 443.436 42.3153C443.436 41.3655 443.603 40.5385 443.937 39.8342C444.271 39.1258 444.736 38.5785 445.331 38.1921C445.927 37.8017 446.615 37.6065 447.396 37.6065C448 37.6065 448.479 37.7071 448.833 37.9084C449.191 38.1056 449.465 38.331 449.654 38.5845C449.847 38.834 449.996 39.0393 450.1 39.2003H450.245V37.7273H451.622V47.2656C451.622 48.0625 451.441 48.7105 451.078 49.2095C450.72 49.7126 450.237 50.0808 449.63 50.3143C449.026 50.5517 448.354 50.6705 447.613 50.6705ZM447.565 45.5753C448.136 45.5753 448.619 45.4445 449.014 45.1829C449.408 44.9213 449.708 44.545 449.913 44.054C450.119 43.563 450.221 42.9754 450.221 42.2912C450.221 41.6231 450.121 41.0335 449.919 40.5224C449.718 40.0112 449.42 39.6108 449.026 39.321C448.632 39.0312 448.145 38.8864 447.565 38.8864C446.961 38.8864 446.458 39.0393 446.056 39.3452C445.657 39.651 445.357 40.0616 445.156 40.5767C444.959 41.0919 444.86 41.6634 444.86 42.2912C444.86 42.9351 444.961 43.5046 445.162 43.9996C445.368 44.4906 445.669 44.877 446.068 45.1587C446.47 45.4364 446.969 45.5753 447.565 45.5753ZM456.958 47.2173C456.371 47.2173 455.838 47.1067 455.359 46.8853C454.88 46.6599 454.499 46.3359 454.218 45.9134C453.936 45.4867 453.795 44.9716 453.795 44.3679C453.795 43.8366 453.9 43.406 454.109 43.076C454.318 42.742 454.598 42.4804 454.948 42.2912C455.298 42.102 455.685 41.9612 456.107 41.8686C456.534 41.772 456.962 41.6955 457.393 41.6392C457.957 41.5668 458.413 41.5124 458.763 41.4762C459.118 41.436 459.375 41.3696 459.536 41.277C459.701 41.1844 459.784 41.0234 459.784 40.794V40.7457C459.784 40.1501 459.621 39.6873 459.295 39.3572C458.973 39.0272 458.484 38.8622 457.828 38.8622C457.148 38.8622 456.614 39.0111 456.228 39.3089C455.842 39.6068 455.57 39.9247 455.413 40.2628L454.061 39.7798C454.302 39.2164 454.624 38.7777 455.027 38.4638C455.433 38.1458 455.876 37.9245 456.355 37.7997C456.838 37.6709 457.313 37.6065 457.779 37.6065C458.077 37.6065 458.419 37.6428 458.806 37.7152C459.196 37.7836 459.572 37.9265 459.935 38.1438C460.301 38.3612 460.605 38.6892 460.846 39.1278C461.088 39.5665 461.208 40.1541 461.208 40.8906V47H459.784V45.7443H459.711C459.615 45.9455 459.454 46.1609 459.228 46.3903C459.003 46.6197 458.703 46.8149 458.329 46.9759C457.955 47.1368 457.498 47.2173 456.958 47.2173ZM457.176 45.9375C457.739 45.9375 458.214 45.8268 458.6 45.6055C458.991 45.3841 459.285 45.0984 459.482 44.7482C459.683 44.3981 459.784 44.0298 459.784 43.6435V42.3395C459.723 42.4119 459.591 42.4783 459.385 42.5387C459.184 42.5951 458.951 42.6454 458.685 42.6896C458.423 42.7299 458.168 42.7661 457.918 42.7983C457.673 42.8265 457.474 42.8506 457.321 42.8707C456.95 42.919 456.604 42.9975 456.282 43.1062C455.964 43.2108 455.707 43.3698 455.51 43.5831C455.316 43.7924 455.22 44.0781 455.22 44.4403C455.22 44.9354 455.403 45.3097 455.769 45.5632C456.139 45.8127 456.608 45.9375 457.176 45.9375ZM465.234 41.4219V47H463.809V37.7273H465.185V39.1761H465.306C465.523 38.7053 465.853 38.3269 466.296 38.0412C466.739 37.7514 467.31 37.6065 468.011 37.6065C468.638 37.6065 469.188 37.7353 469.659 37.9929C470.13 38.2464 470.496 38.6328 470.757 39.152C471.019 39.6671 471.15 40.3191 471.15 41.108V47H469.725V41.2045C469.725 40.4761 469.536 39.9086 469.158 39.5021C468.779 39.0916 468.26 38.8864 467.6 38.8864C467.145 38.8864 466.739 38.985 466.381 39.1822C466.026 39.3794 465.747 39.6671 465.541 40.0455C465.336 40.4238 465.234 40.8826 465.234 41.4219ZM473.753 47V37.7273H475.178V47H473.753ZM474.478 36.1818C474.2 36.1818 473.96 36.0872 473.759 35.8981C473.562 35.7089 473.463 35.4815 473.463 35.2159C473.463 34.9503 473.562 34.7229 473.759 34.5337C473.96 34.3446 474.2 34.25 474.478 34.25C474.755 34.25 474.993 34.3446 475.19 34.5337C475.391 34.7229 475.492 34.9503 475.492 35.2159C475.492 35.4815 475.391 35.7089 475.19 35.8981C474.993 36.0872 474.755 36.1818 474.478 36.1818ZM477.522 47V45.9134L482.786 39.152V39.0554H477.691V37.7273H484.621V38.8622L479.502 45.5753V45.6719H484.79V47H477.522ZM489.713 47.2173C489.126 47.2173 488.592 47.1067 488.114 46.8853C487.635 46.6599 487.254 46.3359 486.973 45.9134C486.691 45.4867 486.55 44.9716 486.55 44.3679C486.55 43.8366 486.655 43.406 486.864 43.076C487.073 42.742 487.353 42.4804 487.703 42.2912C488.053 42.102 488.44 41.9612 488.862 41.8686C489.289 41.772 489.717 41.6955 490.148 41.6392C490.711 41.5668 491.168 41.5124 491.518 41.4762C491.873 41.436 492.13 41.3696 492.291 41.277C492.456 41.1844 492.539 41.0234 492.539 40.794V40.7457C492.539 40.1501 492.376 39.6873 492.05 39.3572C491.728 39.0272 491.239 38.8622 490.583 38.8622C489.902 38.8622 489.369 39.0111 488.983 39.3089C488.597 39.6068 488.325 39.9247 488.168 40.2628L486.816 39.7798C487.057 39.2164 487.379 38.7777 487.782 38.4638C488.188 38.1458 488.631 37.9245 489.11 37.7997C489.593 37.6709 490.068 37.6065 490.534 37.6065C490.832 37.6065 491.174 37.6428 491.561 37.7152C491.951 37.7836 492.327 37.9265 492.69 38.1438C493.056 38.3612 493.36 38.6892 493.601 39.1278C493.843 39.5665 493.963 40.1541 493.963 40.8906V47H492.539V45.7443H492.466C492.37 45.9455 492.209 46.1609 491.983 46.3903C491.758 46.6197 491.458 46.8149 491.084 46.9759C490.709 47.1368 490.253 47.2173 489.713 47.2173ZM489.931 45.9375C490.494 45.9375 490.969 45.8268 491.355 45.6055C491.746 45.3841 492.04 45.0984 492.237 44.7482C492.438 44.3981 492.539 44.0298 492.539 43.6435V42.3395C492.478 42.4119 492.345 42.4783 492.14 42.5387C491.939 42.5951 491.706 42.6454 491.44 42.6896C491.178 42.7299 490.923 42.7661 490.673 42.7983C490.428 42.8265 490.228 42.8506 490.076 42.8707C489.705 42.919 489.359 42.9975 489.037 43.1062C488.719 43.2108 488.462 43.3698 488.264 43.5831C488.071 43.7924 487.975 44.0781 487.975 44.4403C487.975 44.9354 488.158 45.3097 488.524 45.5632C488.894 45.8127 489.363 45.9375 489.931 45.9375ZM500.596 37.7273V38.9347H495.791V37.7273H500.596ZM497.192 35.5057H498.616V44.3438C498.616 44.7462 498.675 45.0481 498.791 45.2493C498.912 45.4465 499.065 45.5793 499.25 45.6477C499.439 45.7121 499.639 45.7443 499.848 45.7443C500.005 45.7443 500.134 45.7363 500.234 45.7202C500.335 45.7 500.415 45.6839 500.476 45.6719L500.765 46.9517C500.669 46.9879 500.534 47.0241 500.361 47.0604C500.188 47.1006 499.969 47.1207 499.703 47.1207C499.3 47.1207 498.906 47.0342 498.52 46.8612C498.137 46.6881 497.819 46.4245 497.566 46.0703C497.316 45.7161 497.192 45.2694 497.192 44.7301V35.5057ZM502.74 47V37.7273H504.164V47H502.74ZM503.464 36.1818C503.186 36.1818 502.947 36.0872 502.746 35.8981C502.548 35.7089 502.45 35.4815 502.45 35.2159C502.45 34.9503 502.548 34.7229 502.746 34.5337C502.947 34.3446 503.186 34.25 503.464 34.25C503.742 34.25 503.979 34.3446 504.176 34.5337C504.378 34.7229 504.478 34.9503 504.478 35.2159C504.478 35.4815 504.378 35.7089 504.176 35.8981C503.979 36.0872 503.742 36.1818 503.464 36.1818ZM510.541 47.1932C509.704 47.1932 508.969 46.994 508.337 46.5955C507.709 46.1971 507.218 45.6397 506.864 44.9233C506.514 44.2069 506.339 43.3698 506.339 42.4119C506.339 41.446 506.514 40.6029 506.864 39.8825C507.218 39.162 507.709 38.6026 508.337 38.2042C508.969 37.8058 509.704 37.6065 510.541 37.6065C511.378 37.6065 512.11 37.8058 512.738 38.2042C513.37 38.6026 513.861 39.162 514.211 39.8825C514.565 40.6029 514.742 41.446 514.742 42.4119C514.742 43.3698 514.565 44.2069 514.211 44.9233C513.861 45.6397 513.37 46.1971 512.738 46.5955C512.11 46.994 511.378 47.1932 510.541 47.1932ZM510.541 45.9134C511.177 45.9134 511.7 45.7504 512.11 45.4244C512.521 45.0984 512.825 44.6697 513.022 44.1385C513.219 43.6072 513.318 43.0317 513.318 42.4119C513.318 41.7921 513.219 41.2146 513.022 40.6793C512.825 40.1441 512.521 39.7114 512.11 39.3814C511.7 39.0514 511.177 38.8864 510.541 38.8864C509.905 38.8864 509.382 39.0514 508.971 39.3814C508.561 39.7114 508.257 40.1441 508.06 40.6793C507.862 41.2146 507.764 41.7921 507.764 42.4119C507.764 43.0317 507.862 43.6072 508.06 44.1385C508.257 44.6697 508.561 45.0984 508.971 45.4244C509.382 45.7504 509.905 45.9134 510.541 45.9134ZM518.342 41.4219V47H516.917V37.7273H518.294V39.1761H518.414C518.632 38.7053 518.962 38.3269 519.404 38.0412C519.847 37.7514 520.419 37.6065 521.119 37.6065C521.747 37.6065 522.296 37.7353 522.767 37.9929C523.238 38.2464 523.604 38.6328 523.866 39.152C524.127 39.6671 524.258 40.3191 524.258 41.108V47H522.833V41.2045C522.833 40.4761 522.644 39.9086 522.266 39.5021C521.888 39.0916 521.368 38.8864 520.708 38.8864C520.254 38.8864 519.847 38.985 519.489 39.1822C519.135 39.3794 518.855 39.6671 518.65 40.0455C518.445 40.4238 518.342 40.8826 518.342 41.4219Z" fill="#F5D786"/>
<path d="M284.949 110H283.472L287.744 98.3636H289.199L293.472 110H291.994L288.517 100.205H288.426L284.949 110ZM285.494 105.455H291.449V106.705H285.494V105.455ZM298.625 113.455C297.977 113.455 297.42 113.371 296.955 113.205C296.489 113.042 296.1 112.826 295.79 112.557C295.483 112.292 295.239 112.008 295.057 111.705L296.125 110.955C296.246 111.114 296.4 111.295 296.585 111.5C296.771 111.708 297.025 111.888 297.347 112.04C297.672 112.195 298.098 112.273 298.625 112.273C299.33 112.273 299.911 112.102 300.369 111.761C300.828 111.42 301.057 110.886 301.057 110.159V108.386H300.943C300.845 108.545 300.705 108.742 300.523 108.977C300.345 109.208 300.087 109.415 299.75 109.597C299.417 109.775 298.966 109.864 298.398 109.864C297.693 109.864 297.061 109.697 296.5 109.364C295.943 109.03 295.502 108.545 295.176 107.909C294.854 107.273 294.693 106.5 294.693 105.591C294.693 104.697 294.85 103.919 295.165 103.256C295.479 102.589 295.917 102.074 296.477 101.71C297.038 101.343 297.686 101.159 298.42 101.159C298.989 101.159 299.439 101.254 299.773 101.443C300.11 101.629 300.367 101.841 300.545 102.08C300.727 102.314 300.867 102.508 300.966 102.659H301.102V101.273H302.398V110.25C302.398 111 302.227 111.61 301.886 112.08C301.549 112.553 301.095 112.9 300.523 113.119C299.955 113.343 299.322 113.455 298.625 113.455ZM298.58 108.659C299.117 108.659 299.572 108.536 299.943 108.29C300.314 108.044 300.597 107.689 300.79 107.227C300.983 106.765 301.08 106.212 301.08 105.568C301.08 104.939 300.985 104.384 300.795 103.903C300.606 103.422 300.326 103.045 299.955 102.773C299.583 102.5 299.125 102.364 298.58 102.364C298.011 102.364 297.538 102.508 297.159 102.795C296.784 103.083 296.502 103.47 296.312 103.955C296.127 104.439 296.034 104.977 296.034 105.568C296.034 106.174 296.129 106.71 296.318 107.176C296.511 107.638 296.795 108.002 297.17 108.267C297.549 108.528 298.019 108.659 298.58 108.659ZM308.511 110.182C307.67 110.182 306.945 109.996 306.335 109.625C305.729 109.25 305.261 108.727 304.932 108.057C304.606 107.383 304.443 106.598 304.443 105.705C304.443 104.811 304.606 104.023 304.932 103.341C305.261 102.655 305.72 102.121 306.307 101.739C306.898 101.352 307.587 101.159 308.375 101.159C308.83 101.159 309.278 101.235 309.722 101.386C310.165 101.538 310.568 101.784 310.932 102.125C311.295 102.462 311.585 102.909 311.801 103.466C312.017 104.023 312.125 104.708 312.125 105.523V106.091H305.398V104.932H310.761C310.761 104.439 310.663 104 310.466 103.614C310.273 103.227 309.996 102.922 309.636 102.699C309.28 102.475 308.86 102.364 308.375 102.364C307.841 102.364 307.379 102.496 306.989 102.761C306.602 103.023 306.305 103.364 306.097 103.784C305.888 104.205 305.784 104.655 305.784 105.136V105.909C305.784 106.568 305.898 107.127 306.125 107.585C306.356 108.04 306.676 108.386 307.085 108.625C307.494 108.86 307.97 108.977 308.511 108.977C308.864 108.977 309.182 108.928 309.466 108.83C309.754 108.727 310.002 108.576 310.21 108.375C310.419 108.17 310.58 107.917 310.693 107.614L311.989 107.977C311.852 108.417 311.623 108.803 311.301 109.136C310.979 109.466 310.581 109.723 310.108 109.909C309.634 110.091 309.102 110.182 308.511 110.182Z" fill="#BA32AD"/>
</g>
<defs>
<clipPath id="clip0_1_157">
<rect width="600" height="120" fill="white"/>
</clipPath>
</defs>
</svg>
