<svg width="400" height="120" viewBox="0 0 400 120" fill="none" xmlns="http://www.w3.org/2000/svg">
<g clip-path="url(#clip0_1_2)">
<rect width="400" height="120" fill="#1F0C1D"/>
<rect x="285" y="64" width="20" height="8" fill="#F5D786"/>
<rect x="309" y="64" width="19" height="8" fill="#F5D786"/>
<rect x="333" y="64" width="19" height="8" fill="#F5D786"/>
<rect x="357" y="64" width="19" height="8" fill="#BA32AD"/>
<rect x="24" y="64" width="19" height="8" fill="#F5D786"/>
<rect x="48" y="64" width="19" height="8" fill="#F5D786"/>
<rect x="71" y="64" width="20" height="8" fill="#F5D786"/>
<rect x="95" y="64" width="19" height="8" fill="#BA32AD"/>
<rect x="119" y="64" width="19" height="8" fill="#BA32AD"/>
<rect x="143" y="64" width="19" height="8" fill="#BA32AD"/>
<rect x="167" y="64" width="19" height="8" fill="#BA32AD"/>
<rect x="190" y="64" width="19" height="8" fill="#BA32AD"/>
<rect x="214" y="64" width="19" height="8" fill="#BA32AD"/>
<rect x="238" y="64" width="19" height="8" fill="#BA32AD"/>
<rect x="262" y="64" width="19" height="8" fill="#F5D786"/>
<path d="M34.6825 78.2727V87H33.6257V79.3807H33.5746L31.4439 80.7955V79.7216L33.6257 78.2727H34.6825Z" fill="#F5D786"/>
<path d="M54.7706 87V86.233L57.6513 83.0795C57.9893 82.7102 58.2678 82.3892 58.4865 82.1165C58.7053 81.8409 58.8672 81.5824 58.9723 81.3409C59.0803 81.0966 59.1342 80.8409 59.1342 80.5739C59.1342 80.267 59.0604 80.0014 58.9126 79.777C58.7678 79.5526 58.5689 79.3793 58.3161 79.2571C58.0632 79.1349 57.7791 79.0739 57.4638 79.0739C57.1286 79.0739 56.8359 79.1435 56.5859 79.2827C56.3388 79.419 56.147 79.6108 56.0107 79.858C55.8771 80.1051 55.8104 80.3949 55.8104 80.7273H54.8047C54.8047 80.2159 54.9226 79.767 55.1584 79.3807C55.3942 78.9943 55.7152 78.6932 56.1214 78.4773C56.5305 78.2614 56.9893 78.1534 57.4979 78.1534C58.0092 78.1534 58.4624 78.2614 58.8572 78.4773C59.2521 78.6932 59.5618 78.9844 59.7862 79.3509C60.0107 79.7173 60.1229 80.125 60.1229 80.5739C60.1229 80.8949 60.0646 81.2088 59.9482 81.5156C59.8345 81.8196 59.6357 82.1591 59.3516 82.5341C59.0703 82.9062 58.6797 83.3608 58.1797 83.8977L56.2195 85.9943V86.0625H60.2763V87H54.7706Z" fill="#F5D786"/>
<path d="M81.532 87.1193C80.9695 87.1193 80.468 87.0227 80.0277 86.8295C79.5902 86.6364 79.2422 86.3679 78.9837 86.0241C78.728 85.6776 78.5888 85.2756 78.5661 84.8182H79.6399C79.6626 85.0994 79.7592 85.3423 79.9297 85.5469C80.1001 85.7486 80.3232 85.9048 80.5987 86.0156C80.8743 86.1264 81.1797 86.1818 81.5149 86.1818C81.8899 86.1818 82.2223 86.1165 82.5121 85.9858C82.8018 85.8551 83.0291 85.6733 83.1939 85.4403C83.3587 85.2074 83.4411 84.9375 83.4411 84.6307C83.4411 84.3097 83.3615 84.027 83.2024 83.7827C83.0433 83.5355 82.8104 83.3423 82.5036 83.2031C82.1967 83.0639 81.8217 82.9943 81.3786 82.9943H80.6797V82.0568H81.3786C81.7251 82.0568 82.0291 81.9943 82.2905 81.8693C82.5547 81.7443 82.7607 81.5682 82.9084 81.3409C83.0589 81.1136 83.1342 80.8466 83.1342 80.5398C83.1342 80.2443 83.0689 79.9872 82.9382 79.7685C82.8075 79.5497 82.6229 79.3793 82.3842 79.2571C82.1484 79.1349 81.87 79.0739 81.549 79.0739C81.2479 79.0739 80.9638 79.1293 80.6967 79.2401C80.4325 79.348 80.2166 79.5057 80.049 79.7131C79.8814 79.9176 79.7905 80.1648 79.7763 80.4545H78.7536C78.7706 79.9972 78.9084 79.5966 79.1669 79.2528C79.4254 78.9062 79.7635 78.6364 80.1811 78.4432C80.6016 78.25 81.0632 78.1534 81.5661 78.1534C82.1058 78.1534 82.5689 78.2628 82.9553 78.4815C83.3416 78.6974 83.6385 78.983 83.8459 79.3381C84.0533 79.6932 84.157 80.0767 84.157 80.4886C84.157 80.9801 84.0277 81.3991 83.7692 81.7457C83.5135 82.0923 83.1655 82.3324 82.7251 82.4659V82.5341C83.2763 82.625 83.7067 82.8594 84.0163 83.2372C84.326 83.6122 84.4808 84.0767 84.4808 84.6307C84.4808 85.1051 84.3516 85.5312 84.093 85.9091C83.8374 86.2841 83.4879 86.5795 83.0447 86.7955C82.6016 87.0114 82.0973 87.1193 81.532 87.1193Z" fill="#F5D786"/>
<path d="M101.349 85.2102V84.3409L105.184 78.2727H105.815V79.6193H105.389L102.491 84.2045V84.2727H107.656V85.2102H101.349ZM105.457 87V84.946V84.5412V78.2727H106.463V87H105.457Z" fill="#BA32AD"/>
<path d="M128.48 87.1193C127.98 87.1193 127.53 87.0199 127.129 86.821C126.729 86.6222 126.408 86.3494 126.166 86.0028C125.925 85.6562 125.793 85.2614 125.77 84.8182H126.793C126.833 85.2131 127.012 85.5398 127.33 85.7983C127.651 86.054 128.034 86.1818 128.48 86.1818C128.838 86.1818 129.156 86.098 129.435 85.9304C129.716 85.7628 129.936 85.5327 130.095 85.2401C130.257 84.9446 130.338 84.6108 130.338 84.2386C130.338 83.858 130.254 83.5185 130.087 83.2202C129.922 82.919 129.695 82.6818 129.405 82.5085C129.115 82.3352 128.784 82.2472 128.412 82.2443C128.145 82.2415 127.871 82.2827 127.59 82.3679C127.308 82.4503 127.077 82.5568 126.895 82.6875L125.906 82.5682L126.435 78.2727H130.969V79.2102H127.321L127.014 81.7841H127.066C127.244 81.642 127.469 81.5241 127.739 81.4304C128.009 81.3366 128.29 81.2898 128.583 81.2898C129.117 81.2898 129.593 81.4176 130.01 81.6733C130.431 81.9261 130.76 82.2727 130.999 82.7131C131.24 83.1534 131.361 83.6562 131.361 84.2216C131.361 84.7784 131.236 85.2756 130.986 85.7131C130.739 86.1477 130.398 86.4915 129.963 86.7443C129.529 86.9943 129.034 87.1193 128.48 87.1193Z" fill="#BA32AD"/>
<path d="M152.557 87.1193C152.199 87.1136 151.841 87.0455 151.483 86.9148C151.125 86.7841 150.798 86.5639 150.503 86.2543C150.208 85.9418 149.97 85.5199 149.791 84.9886C149.612 84.4545 149.523 83.7841 149.523 82.9773C149.523 82.2045 149.595 81.5199 149.74 80.9233C149.885 80.3239 150.095 79.8196 150.371 79.4105C150.646 78.9986 150.979 78.6861 151.368 78.473C151.76 78.2599 152.202 78.1534 152.693 78.1534C153.182 78.1534 153.617 78.2514 153.997 78.4474C154.381 78.6406 154.693 78.9105 154.935 79.2571C155.176 79.6037 155.333 80.0028 155.404 80.4545H154.364C154.267 80.0625 154.08 79.7372 153.801 79.4787C153.523 79.2202 153.154 79.0909 152.693 79.0909C152.017 79.0909 151.485 79.3849 151.095 79.973C150.709 80.5611 150.514 81.3864 150.512 82.4489H150.58C150.739 82.2074 150.928 82.0014 151.146 81.831C151.368 81.6577 151.612 81.5241 151.879 81.4304C152.146 81.3366 152.429 81.2898 152.727 81.2898C153.227 81.2898 153.685 81.4148 154.1 81.6648C154.514 81.9119 154.847 82.2543 155.097 82.6918C155.347 83.1264 155.472 83.625 155.472 84.1875C155.472 84.7273 155.351 85.2216 155.11 85.6705C154.868 86.1165 154.529 86.4716 154.091 86.7358C153.656 86.9972 153.145 87.125 152.557 87.1193ZM152.557 86.1818C152.915 86.1818 153.236 86.0923 153.52 85.9134C153.807 85.7344 154.033 85.4943 154.198 85.1932C154.365 84.892 154.449 84.5568 154.449 84.1875C154.449 83.8267 154.368 83.4986 154.206 83.2031C154.047 82.9048 153.827 82.6676 153.546 82.4915C153.267 82.3153 152.949 82.2273 152.591 82.2273C152.321 82.2273 152.07 82.2812 151.837 82.3892C151.604 82.4943 151.399 82.6392 151.223 82.8239C151.05 83.0085 150.914 83.2202 150.814 83.4588C150.715 83.6946 150.665 83.9432 150.665 84.2045C150.665 84.5511 150.746 84.875 150.908 85.1761C151.073 85.4773 151.297 85.7202 151.581 85.9048C151.868 86.0895 152.193 86.1818 152.557 86.1818Z" fill="#BA32AD"/>
<path d="M174.248 87L178.152 79.2784V79.2102H173.652V78.2727H179.243V79.2614L175.356 87H174.248Z" fill="#BA32AD"/>
<path d="M200.502 87.1193C199.916 87.1193 199.399 87.0156 198.95 86.8082C198.504 86.598 198.156 86.3097 197.906 85.9432C197.656 85.5739 197.533 85.1534 197.536 84.6818C197.533 84.3125 197.605 83.9716 197.753 83.6591C197.901 83.3437 198.102 83.081 198.358 82.8707C198.617 82.6577 198.905 82.5227 199.223 82.4659V82.4148C198.806 82.3068 198.473 82.0724 198.226 81.7116C197.979 81.348 197.857 80.9347 197.86 80.4716C197.857 80.0284 197.969 79.6321 198.196 79.2827C198.423 78.9332 198.736 78.6577 199.134 78.456C199.534 78.2543 199.99 78.1534 200.502 78.1534C201.007 78.1534 201.459 78.2543 201.857 78.456C202.254 78.6577 202.567 78.9332 202.794 79.2827C203.024 79.6321 203.141 80.0284 203.144 80.4716C203.141 80.9347 203.014 81.348 202.764 81.7116C202.517 82.0724 202.189 82.3068 201.78 82.4148V82.4659C202.095 82.5227 202.379 82.6577 202.632 82.8707C202.885 83.081 203.087 83.3437 203.237 83.6591C203.388 83.9716 203.465 84.3125 203.468 84.6818C203.465 85.1534 203.337 85.5739 203.084 85.9432C202.834 86.3097 202.486 86.598 202.04 86.8082C201.597 87.0156 201.084 87.1193 200.502 87.1193ZM200.502 86.1818C200.896 86.1818 201.237 86.1179 201.524 85.9901C201.811 85.8622 202.033 85.6818 202.189 85.4489C202.345 85.2159 202.425 84.9432 202.428 84.6307C202.425 84.3011 202.34 84.0099 202.172 83.7571C202.004 83.5043 201.776 83.3054 201.486 83.1605C201.199 83.0156 200.871 82.9432 200.502 82.9432C200.129 82.9432 199.797 83.0156 199.504 83.1605C199.215 83.3054 198.986 83.5043 198.818 83.7571C198.654 84.0099 198.573 84.3011 198.575 84.6307C198.573 84.9432 198.648 85.2159 198.801 85.4489C198.958 85.6818 199.181 85.8622 199.47 85.9901C199.76 86.1179 200.104 86.1818 200.502 86.1818ZM200.502 82.0398C200.814 82.0398 201.091 81.9773 201.333 81.8523C201.577 81.7273 201.769 81.5526 201.908 81.3281C202.047 81.1037 202.118 80.8409 202.121 80.5398C202.118 80.2443 202.048 79.9872 201.912 79.7685C201.776 79.5469 201.587 79.3764 201.345 79.2571C201.104 79.1349 200.823 79.0739 200.502 79.0739C200.175 79.0739 199.889 79.1349 199.645 79.2571C199.401 79.3764 199.212 79.5469 199.078 79.7685C198.945 79.9872 198.879 80.2443 198.882 80.5398C198.879 80.8409 198.946 81.1037 199.083 81.3281C199.222 81.5526 199.414 81.7273 199.658 81.8523C199.902 81.9773 200.183 82.0398 200.502 82.0398Z" fill="#BA32AD"/>
<path d="M224.438 78.1534C224.796 78.1562 225.154 78.2244 225.512 78.358C225.869 78.4915 226.196 78.7131 226.492 79.0227C226.787 79.3295 227.024 79.7486 227.203 80.2798C227.382 80.8111 227.472 81.4773 227.472 82.2784C227.472 83.054 227.398 83.7429 227.25 84.3452C227.105 84.9446 226.895 85.4503 226.619 85.8622C226.347 86.2741 226.014 86.5866 225.622 86.7997C225.233 87.0128 224.793 87.1193 224.301 87.1193C223.813 87.1193 223.377 87.0227 222.993 86.8295C222.612 86.6335 222.3 86.3622 222.056 86.0156C221.814 85.6662 221.659 85.2614 221.591 84.8011H222.631C222.725 85.2017 222.911 85.5327 223.189 85.794C223.47 86.0526 223.841 86.1818 224.301 86.1818C224.975 86.1818 225.506 85.8878 225.895 85.2997C226.287 84.7116 226.483 83.8807 226.483 82.8068H226.415C226.256 83.0455 226.067 83.2514 225.848 83.4247C225.629 83.598 225.387 83.7315 225.119 83.8253C224.852 83.919 224.568 83.9659 224.267 83.9659C223.767 83.9659 223.308 83.8423 222.891 83.5952C222.476 83.3452 222.144 83.0028 221.894 82.5682C221.646 82.1307 221.523 81.6307 221.523 81.0682C221.523 80.5341 221.642 80.0455 221.881 79.6023C222.122 79.1562 222.46 78.8011 222.895 78.5369C223.333 78.2727 223.847 78.1449 224.438 78.1534ZM224.438 79.0909C224.08 79.0909 223.757 79.1804 223.47 79.3594C223.186 79.5355 222.96 79.7741 222.793 80.0753C222.628 80.3736 222.546 80.7045 222.546 81.0682C222.546 81.4318 222.625 81.7628 222.784 82.0611C222.946 82.3565 223.166 82.5923 223.445 82.7685C223.726 82.9418 224.046 83.0284 224.404 83.0284C224.673 83.0284 224.925 82.9759 225.158 82.8707C225.391 82.7628 225.594 82.6165 225.767 82.4318C225.943 82.2443 226.081 82.0327 226.181 81.7969C226.28 81.5582 226.33 81.3097 226.33 81.0511C226.33 80.7102 226.247 80.3906 226.083 80.0923C225.921 79.794 225.696 79.5526 225.409 79.3679C225.125 79.1832 224.801 79.0909 224.438 79.0909Z" fill="#BA32AD"/>
<path d="M244.933 78.2727V87H243.876V79.3807H243.825L241.694 80.7955V79.7216L243.876 78.2727H244.933ZM250.289 87.1193C249.647 87.1193 249.1 86.9446 248.648 86.5952C248.197 86.2429 247.852 85.733 247.613 85.0653C247.374 84.3949 247.255 83.5852 247.255 82.6364C247.255 81.6932 247.374 80.8878 247.613 80.2202C247.854 79.5497 248.201 79.0384 248.653 78.6861C249.107 78.331 249.653 78.1534 250.289 78.1534C250.925 78.1534 251.469 78.331 251.921 78.6861C252.376 79.0384 252.722 79.5497 252.961 80.2202C253.202 80.8878 253.323 81.6932 253.323 82.6364C253.323 83.5852 253.204 84.3949 252.965 85.0653C252.727 85.733 252.381 86.2429 251.93 86.5952C251.478 86.9446 250.931 87.1193 250.289 87.1193ZM250.289 86.1818C250.925 86.1818 251.42 85.875 251.772 85.2614C252.124 84.6477 252.3 83.7727 252.3 82.6364C252.3 81.8807 252.219 81.2372 252.058 80.706C251.898 80.1747 251.668 79.7699 251.367 79.4915C251.069 79.2131 250.71 79.0739 250.289 79.0739C249.658 79.0739 249.165 79.3849 248.81 80.0071C248.455 80.6264 248.278 81.5028 248.278 82.6364C248.278 83.392 248.357 84.0341 248.516 84.5625C248.675 85.0909 248.904 85.4929 249.202 85.7685C249.504 86.044 249.866 86.1818 250.289 86.1818Z" fill="#BA32AD"/>
<path d="M269.893 78.2727V87H268.837V79.3807H268.786L266.655 80.7955V79.7216L268.837 78.2727H269.893ZM275.472 78.2727V87H274.415V79.3807H274.364L272.233 80.7955V79.7216L274.415 78.2727H275.472Z" fill="#F5D786"/>
<path d="M293.05 78.2727V87H291.993V79.3807H291.942L289.811 80.7955V79.7216L291.993 78.2727H293.05ZM295.56 87V86.233L298.44 83.0795C298.778 82.7102 299.057 82.3892 299.276 82.1165C299.494 81.8409 299.656 81.5824 299.761 81.3409C299.869 81.0966 299.923 80.8409 299.923 80.5739C299.923 80.267 299.849 80.0014 299.702 79.777C299.557 79.5526 299.358 79.3793 299.105 79.2571C298.852 79.1349 298.568 79.0739 298.253 79.0739C297.918 79.0739 297.625 79.1435 297.375 79.2827C297.128 79.419 296.936 79.6108 296.8 79.858C296.666 80.1051 296.599 80.3949 296.599 80.7273H295.594C295.594 80.2159 295.712 79.767 295.947 79.3807C296.183 78.9943 296.504 78.6932 296.911 78.4773C297.32 78.2614 297.778 78.1534 298.287 78.1534C298.798 78.1534 299.251 78.2614 299.646 78.4773C300.041 78.6932 300.351 78.9844 300.575 79.3509C300.8 79.7173 300.912 80.125 300.912 80.5739C300.912 80.8949 300.854 81.2088 300.737 81.5156C300.624 81.8196 300.425 82.1591 300.141 82.5341C299.859 82.9062 299.469 83.3608 298.969 83.8977L297.009 85.9943V86.0625H301.065V87H295.56Z" fill="#F5D786"/>
<path d="M315.862 78.2727V87H314.805V79.3807H314.754L312.624 80.7955V79.7216L314.805 78.2727H315.862ZM321.321 87.1193C320.759 87.1193 320.257 87.0227 319.817 86.8295C319.379 86.6364 319.031 86.3679 318.773 86.0241C318.517 85.6776 318.378 85.2756 318.355 84.8182H319.429C319.452 85.0994 319.548 85.3423 319.719 85.5469C319.889 85.7486 320.112 85.9048 320.388 86.0156C320.663 86.1264 320.969 86.1818 321.304 86.1818C321.679 86.1818 322.011 86.1165 322.301 85.9858C322.591 85.8551 322.818 85.6733 322.983 85.4403C323.148 85.2074 323.23 84.9375 323.23 84.6307C323.23 84.3097 323.151 84.027 322.991 83.7827C322.832 83.5355 322.599 83.3423 322.293 83.2031C321.986 83.0639 321.611 82.9943 321.168 82.9943H320.469V82.0568H321.168C321.514 82.0568 321.818 81.9943 322.08 81.8693C322.344 81.7443 322.55 81.5682 322.697 81.3409C322.848 81.1136 322.923 80.8466 322.923 80.5398C322.923 80.2443 322.858 79.9872 322.727 79.7685C322.597 79.5497 322.412 79.3793 322.173 79.2571C321.938 79.1349 321.659 79.0739 321.338 79.0739C321.037 79.0739 320.753 79.1293 320.486 79.2401C320.222 79.348 320.006 79.5057 319.838 79.7131C319.67 79.9176 319.58 80.1648 319.565 80.4545H318.543C318.56 79.9972 318.697 79.5966 318.956 79.2528C319.214 78.9062 319.553 78.6364 319.97 78.4432C320.391 78.25 320.852 78.1534 321.355 78.1534C321.895 78.1534 322.358 78.2628 322.744 78.4815C323.131 78.6974 323.428 78.983 323.635 79.3381C323.842 79.6932 323.946 80.0767 323.946 80.4886C323.946 80.9801 323.817 81.3991 323.558 81.7457C323.303 82.0923 322.955 82.3324 322.514 82.4659V82.5341C323.065 82.625 323.496 82.8594 323.805 83.2372C324.115 83.6122 324.27 84.0767 324.27 84.6307C324.27 85.1051 324.141 85.5312 323.882 85.9091C323.626 86.2841 323.277 86.5795 322.834 86.7955C322.391 87.0114 321.886 87.1193 321.321 87.1193Z" fill="#F5D786"/>
<path d="M339.833 78.2727V87H338.776V79.3807H338.725L336.594 80.7955V79.7216L338.776 78.2727H339.833ZM342.138 85.2102V84.3409L345.974 78.2727H346.604V79.6193H346.178L343.28 84.2045V84.2727H348.445V85.2102H342.138ZM346.246 87V84.946V84.5412V78.2727H347.252V87H346.246Z" fill="#F5D786"/>
<path d="M364.032 78.2727V87H362.975V79.3807H362.924L360.794 80.7955V79.7216L362.975 78.2727H364.032ZM369.269 87.1193C368.769 87.1193 368.319 87.0199 367.919 86.821C367.518 86.6222 367.197 86.3494 366.955 86.0028C366.714 85.6562 366.582 85.2614 366.559 84.8182H367.582C367.622 85.2131 367.801 85.5398 368.119 85.7983C368.44 86.054 368.823 86.1818 369.269 86.1818C369.627 86.1818 369.945 86.098 370.224 85.9304C370.505 85.7628 370.725 85.5327 370.884 85.2401C371.046 84.9446 371.127 84.6108 371.127 84.2386C371.127 83.858 371.044 83.5185 370.876 83.2202C370.711 82.919 370.484 82.6818 370.194 82.5085C369.904 82.3352 369.573 82.2472 369.201 82.2443C368.934 82.2415 368.66 82.2827 368.379 82.3679C368.097 82.4503 367.866 82.5568 367.684 82.6875L366.695 82.5682L367.224 78.2727H371.758V79.2102H368.11L367.803 81.7841H367.855C368.034 81.642 368.258 81.5241 368.528 81.4304C368.798 81.3366 369.079 81.2898 369.372 81.2898C369.906 81.2898 370.382 81.4176 370.799 81.6733C371.22 81.9261 371.549 82.2727 371.788 82.7131C372.029 83.1534 372.15 83.6562 372.15 84.2216C372.15 84.7784 372.025 85.2756 371.775 85.7131C371.528 86.1477 371.187 86.4915 370.752 86.7443C370.318 86.9943 369.823 87.1193 369.269 87.1193Z" fill="#BA32AD"/>
<path d="M39.1435 25V13.3636H43.2116C44.0223 13.3636 44.6908 13.5038 45.2173 13.7841C45.7438 14.0606 46.1359 14.4337 46.3935 14.9034C46.651 15.3693 46.7798 15.8864 46.7798 16.4545C46.7798 16.9545 46.6908 17.3674 46.5128 17.6932C46.3385 18.0189 46.1075 18.2765 45.8196 18.4659C45.5355 18.6553 45.2268 18.7955 44.8935 18.8864V19C45.2495 19.0227 45.6075 19.1477 45.9673 19.375C46.3272 19.6023 46.6283 19.928 46.8707 20.3523C47.1132 20.7765 47.2344 21.2955 47.2344 21.9091C47.2344 22.4924 47.1018 23.017 46.8366 23.483C46.5715 23.9489 46.1529 24.3182 45.581 24.5909C45.009 24.8636 44.2647 25 43.348 25H39.1435ZM40.5526 23.75H43.348C44.2685 23.75 44.9219 23.572 45.3082 23.2159C45.6984 22.8561 45.8935 22.4205 45.8935 21.9091C45.8935 21.5152 45.7931 21.1515 45.5923 20.8182C45.3916 20.4811 45.1056 20.2121 44.7344 20.0114C44.3632 19.8068 43.9238 19.7045 43.4162 19.7045H40.5526V23.75ZM40.5526 18.4773H43.1662C43.5904 18.4773 43.973 18.3939 44.3139 18.2273C44.6586 18.0606 44.9313 17.8258 45.1321 17.5227C45.3366 17.2197 45.4389 16.8636 45.4389 16.4545C45.4389 15.9432 45.2609 15.5095 44.9048 15.1534C44.5488 14.7936 43.9844 14.6136 43.2116 14.6136H40.5526V18.4773ZM49.3679 25V16.2727H50.6634V17.5909H50.7543C50.9134 17.1591 51.2012 16.8087 51.6179 16.5398C52.0346 16.2708 52.5043 16.1364 53.027 16.1364C53.1255 16.1364 53.2486 16.1383 53.3963 16.142C53.544 16.1458 53.6558 16.1515 53.7315 16.1591V17.5227C53.6861 17.5114 53.5819 17.4943 53.419 17.4716C53.2599 17.4451 53.0914 17.4318 52.9134 17.4318C52.4891 17.4318 52.1103 17.5208 51.777 17.6989C51.4474 17.8731 51.1861 18.1155 50.9929 18.4261C50.8035 18.733 50.7088 19.0833 50.7088 19.4773V25H49.3679ZM57.8892 25.2045C57.3362 25.2045 56.8343 25.1004 56.3835 24.892C55.9328 24.6799 55.5748 24.375 55.3097 23.9773C55.0445 23.5758 54.9119 23.0909 54.9119 22.5227C54.9119 22.0227 55.0104 21.6174 55.2074 21.3068C55.4044 20.9924 55.6676 20.7462 55.9972 20.5682C56.3267 20.3902 56.6903 20.2576 57.0881 20.1705C57.4896 20.0795 57.893 20.0076 58.2983 19.9545C58.8286 19.8864 59.2585 19.8352 59.5881 19.8011C59.9214 19.7633 60.1638 19.7008 60.3153 19.6136C60.4706 19.5265 60.5483 19.375 60.5483 19.1591V19.1136C60.5483 18.553 60.3949 18.1174 60.0881 17.8068C59.785 17.4962 59.3248 17.3409 58.7074 17.3409C58.0672 17.3409 57.5653 17.4811 57.2017 17.7614C56.8381 18.0417 56.5824 18.3409 56.4347 18.6591L55.1619 18.2045C55.3892 17.6742 55.6922 17.2614 56.071 16.9659C56.4536 16.6667 56.8703 16.4583 57.321 16.3409C57.7756 16.2197 58.2225 16.1591 58.6619 16.1591C58.9422 16.1591 59.2642 16.1932 59.6278 16.2614C59.9953 16.3258 60.3494 16.4602 60.6903 16.6648C61.035 16.8693 61.321 17.178 61.5483 17.5909C61.7756 18.0038 61.8892 18.5568 61.8892 19.25V25H60.5483V23.8182H60.4801C60.3892 24.0076 60.2377 24.2102 60.0256 24.4261C59.8134 24.642 59.5313 24.8258 59.179 24.9773C58.8267 25.1288 58.3968 25.2045 57.8892 25.2045ZM58.0938 24C58.6241 24 59.071 23.8958 59.4347 23.6875C59.8021 23.4792 60.0786 23.2102 60.2642 22.8807C60.4536 22.5511 60.5483 22.2045 60.5483 21.8409V20.6136C60.4915 20.6818 60.3665 20.7443 60.1733 20.8011C59.9839 20.8542 59.7642 20.9015 59.5142 20.9432C59.268 20.9811 59.0275 21.0152 58.7926 21.0455C58.5616 21.072 58.3741 21.0947 58.2301 21.1136C57.8816 21.1591 57.5559 21.233 57.2528 21.3352C56.9536 21.4337 56.7112 21.5833 56.5256 21.7841C56.3438 21.9811 56.2528 22.25 56.2528 22.5909C56.2528 23.0568 56.4252 23.4091 56.7699 23.6477C57.1184 23.8826 57.5597 24 58.0938 24ZM64.3366 25V16.2727H65.6776V25H64.3366ZM65.0185 14.8182C64.7571 14.8182 64.5317 14.7292 64.3423 14.5511C64.1567 14.3731 64.0639 14.1591 64.0639 13.9091C64.0639 13.6591 64.1567 13.4451 64.3423 13.267C64.5317 13.089 64.7571 13 65.0185 13C65.2798 13 65.5033 13.089 65.6889 13.267C65.8783 13.4451 65.973 13.6591 65.973 13.9091C65.973 14.1591 65.8783 14.3731 65.6889 14.5511C65.5033 14.7292 65.2798 14.8182 65.0185 14.8182ZM69.4744 19.75V25H68.1335V16.2727H69.429V17.6364H69.5426C69.7472 17.1932 70.0578 16.8371 70.4744 16.5682C70.8911 16.2955 71.429 16.1591 72.0881 16.1591C72.679 16.1591 73.196 16.2803 73.6392 16.5227C74.0824 16.7614 74.4271 17.125 74.6733 17.6136C74.9195 18.0985 75.0426 18.7121 75.0426 19.4545V25H73.7017V19.5455C73.7017 18.8598 73.5237 18.3258 73.1676 17.9432C72.8116 17.5568 72.3229 17.3636 71.7017 17.3636C71.2737 17.3636 70.8911 17.4564 70.554 17.642C70.2206 17.8277 69.9574 18.0985 69.7642 18.4545C69.571 18.8106 69.4744 19.2424 69.4744 19.75ZM35.1797 47.4545C34.532 47.4545 33.9751 47.3712 33.5092 47.2045C33.0433 47.0417 32.6551 46.8258 32.3445 46.5568C32.0376 46.2917 31.7933 46.0076 31.6115 45.7045L32.6797 44.9545C32.8009 45.1136 32.9543 45.2955 33.1399 45.5C33.3255 45.7083 33.5793 45.8883 33.9013 46.0398C34.227 46.1951 34.6532 46.2727 35.1797 46.2727C35.8842 46.2727 36.4657 46.1023 36.924 45.7614C37.3823 45.4205 37.6115 44.8864 37.6115 44.1591V42.3864H37.4979C37.3994 42.5455 37.2592 42.7424 37.0774 42.9773C36.8994 43.2083 36.6418 43.4148 36.3047 43.5966C35.9714 43.7746 35.5206 43.8636 34.9524 43.8636C34.2479 43.8636 33.6153 43.697 33.0547 43.3636C32.4979 43.0303 32.0566 42.5455 31.7308 41.9091C31.4089 41.2727 31.2479 40.5 31.2479 39.5909C31.2479 38.697 31.4051 37.9186 31.7195 37.2557C32.0339 36.589 32.4714 36.0739 33.032 35.7102C33.5926 35.3428 34.2403 35.1591 34.9751 35.1591C35.5433 35.1591 35.9941 35.2538 36.3274 35.4432C36.6645 35.6288 36.9221 35.8409 37.1001 36.0795C37.282 36.3144 37.4221 36.5076 37.5206 36.6591H37.657V35.2727H38.9524V44.25C38.9524 45 38.782 45.6098 38.4411 46.0795C38.1039 46.553 37.6494 46.8996 37.0774 47.1193C36.5092 47.3428 35.8767 47.4545 35.1797 47.4545ZM35.1342 42.6591C35.6721 42.6591 36.1267 42.536 36.4979 42.2898C36.8691 42.0436 37.1513 41.6894 37.3445 41.2273C37.5376 40.7652 37.6342 40.2121 37.6342 39.5682C37.6342 38.9394 37.5395 38.3845 37.3501 37.9034C37.1607 37.4223 36.8804 37.0455 36.5092 36.7727C36.138 36.5 35.6797 36.3636 35.1342 36.3636C34.5661 36.3636 34.0926 36.5076 33.7138 36.7955C33.3388 37.0833 33.0566 37.4697 32.8672 37.9545C32.6816 38.4394 32.5888 38.9773 32.5888 39.5682C32.5888 40.1742 32.6835 40.7102 32.8729 41.1761C33.0661 41.6383 33.3501 42.0019 33.7251 42.267C34.1039 42.5284 34.5736 42.6591 35.1342 42.6591ZM41.407 44V35.2727H42.7024V36.5909H42.7933C42.9524 36.1591 43.2403 35.8087 43.657 35.5398C44.0736 35.2708 44.5433 35.1364 45.0661 35.1364C45.1645 35.1364 45.2876 35.1383 45.4354 35.142C45.5831 35.1458 45.6948 35.1515 45.7706 35.1591V36.5227C45.7251 36.5114 45.621 36.4943 45.4581 36.4716C45.299 36.4451 45.1304 36.4318 44.9524 36.4318C44.5282 36.4318 44.1494 36.5208 43.8161 36.6989C43.4865 36.8731 43.2251 37.1155 43.032 37.4261C42.8426 37.733 42.7479 38.0833 42.7479 38.4773V44H41.407ZM50.6399 44.1818C49.852 44.1818 49.1607 43.9943 48.5661 43.6193C47.9751 43.2443 47.513 42.7197 47.1797 42.0455C46.8501 41.3712 46.6854 40.5833 46.6854 39.6818C46.6854 38.7727 46.8501 37.9792 47.1797 37.3011C47.513 36.6231 47.9751 36.0966 48.5661 35.7216C49.1607 35.3466 49.852 35.1591 50.6399 35.1591C51.4278 35.1591 52.1172 35.3466 52.7081 35.7216C53.3028 36.0966 53.7649 36.6231 54.0945 37.3011C54.4278 37.9792 54.5945 38.7727 54.5945 39.6818C54.5945 40.5833 54.4278 41.3712 54.0945 42.0455C53.7649 42.7197 53.3028 43.2443 52.7081 43.6193C52.1172 43.9943 51.4278 44.1818 50.6399 44.1818ZM50.6399 42.9773C51.2384 42.9773 51.7308 42.8239 52.1172 42.517C52.5036 42.2102 52.7895 41.8068 52.9751 41.3068C53.1607 40.8068 53.2536 40.2652 53.2536 39.6818C53.2536 39.0985 53.1607 38.5549 52.9751 38.0511C52.7895 37.5473 52.5036 37.1402 52.1172 36.8295C51.7308 36.5189 51.2384 36.3636 50.6399 36.3636C50.0414 36.3636 49.549 36.5189 49.1626 36.8295C48.7763 37.1402 48.4903 37.5473 48.3047 38.0511C48.1191 38.5549 48.0263 39.0985 48.0263 39.6818C48.0263 40.2652 48.1191 40.8068 48.3047 41.3068C48.4903 41.8068 48.7763 42.2102 49.1626 42.517C49.549 42.8239 50.0414 42.9773 50.6399 42.9773ZM58.3217 44L55.6626 35.2727H57.0717L58.9581 41.9545H59.049L60.9126 35.2727H62.3445L64.1854 41.9318H64.2763L66.1626 35.2727H67.5717L64.9126 44H63.5945L61.6854 37.2955H61.549L59.6399 44H58.3217ZM73.1399 35.2727V36.4091H68.6172V35.2727H73.1399ZM69.9354 33.1818H71.2763V41.5C71.2763 41.8788 71.3312 42.1629 71.4411 42.3523C71.5547 42.5379 71.6986 42.6629 71.8729 42.7273C72.0509 42.7879 72.2384 42.8182 72.4354 42.8182C72.5831 42.8182 72.7043 42.8106 72.799 42.7955C72.8937 42.7765 72.9695 42.7614 73.0263 42.75L73.299 43.9545C73.2081 43.9886 73.0812 44.0227 72.9183 44.0568C72.7554 44.0947 72.549 44.1136 72.299 44.1136C71.9202 44.1136 71.549 44.0322 71.1854 43.8693C70.8255 43.7064 70.5263 43.4583 70.2876 43.125C70.0528 42.7917 69.9354 42.3712 69.9354 41.8636V33.1818ZM76.6854 38.75V44H75.3445V32.3636H76.6854V36.6364H76.799C77.0036 36.1856 77.3104 35.8277 77.7195 35.5625C78.1323 35.2936 78.6816 35.1591 79.3672 35.1591C79.9619 35.1591 80.4827 35.2784 80.9297 35.517C81.3767 35.7519 81.7232 36.1136 81.9695 36.6023C82.2195 37.0871 82.3445 37.7045 82.3445 38.4545V44H81.0036V38.5455C81.0036 37.8523 80.8236 37.3163 80.4638 36.9375C80.1077 36.5549 79.6134 36.3636 78.9808 36.3636C78.5414 36.3636 78.1475 36.4564 77.799 36.642C77.4543 36.8277 77.1816 37.0985 76.9808 37.4545C76.7839 37.8106 76.6854 38.2424 76.6854 38.75Z" fill="#F5D786"/>
<path d="M291.143 25V13.3636H295.212C296.022 13.3636 296.691 13.5038 297.217 13.7841C297.744 14.0606 298.136 14.4337 298.393 14.9034C298.651 15.3693 298.78 15.8864 298.78 16.4545C298.78 16.9545 298.691 17.3674 298.513 17.6932C298.339 18.0189 298.107 18.2765 297.82 18.4659C297.536 18.6553 297.227 18.7955 296.893 18.8864V19C297.25 19.0227 297.607 19.1477 297.967 19.375C298.327 19.6023 298.628 19.928 298.871 20.3523C299.113 20.7765 299.234 21.2955 299.234 21.9091C299.234 22.4924 299.102 23.017 298.837 23.483C298.571 23.9489 298.153 24.3182 297.581 24.5909C297.009 24.8636 296.265 25 295.348 25H291.143ZM292.553 23.75H295.348C296.268 23.75 296.922 23.572 297.308 23.2159C297.698 22.8561 297.893 22.4205 297.893 21.9091C297.893 21.5152 297.793 21.1515 297.592 20.8182C297.392 20.4811 297.106 20.2121 296.734 20.0114C296.363 19.8068 295.924 19.7045 295.416 19.7045H292.553V23.75ZM292.553 18.4773H295.166C295.59 18.4773 295.973 18.3939 296.314 18.2273C296.659 18.0606 296.931 17.8258 297.132 17.5227C297.337 17.2197 297.439 16.8636 297.439 16.4545C297.439 15.9432 297.261 15.5095 296.905 15.1534C296.549 14.7936 295.984 14.6136 295.212 14.6136H292.553V18.4773ZM301.368 25V16.2727H302.663V17.5909H302.754C302.913 17.1591 303.201 16.8087 303.618 16.5398C304.035 16.2708 304.504 16.1364 305.027 16.1364C305.125 16.1364 305.249 16.1383 305.396 16.142C305.544 16.1458 305.656 16.1515 305.732 16.1591V17.5227C305.686 17.5114 305.582 17.4943 305.419 17.4716C305.26 17.4451 305.091 17.4318 304.913 17.4318C304.489 17.4318 304.11 17.5208 303.777 17.6989C303.447 17.8731 303.186 18.1155 302.993 18.4261C302.804 18.733 302.709 19.0833 302.709 19.4773V25H301.368ZM309.889 25.2045C309.336 25.2045 308.834 25.1004 308.384 24.892C307.933 24.6799 307.575 24.375 307.31 23.9773C307.045 23.5758 306.912 23.0909 306.912 22.5227C306.912 22.0227 307.01 21.6174 307.207 21.3068C307.404 20.9924 307.668 20.7462 307.997 20.5682C308.327 20.3902 308.69 20.2576 309.088 20.1705C309.49 20.0795 309.893 20.0076 310.298 19.9545C310.829 19.8864 311.259 19.8352 311.588 19.8011C311.921 19.7633 312.164 19.7008 312.315 19.6136C312.471 19.5265 312.548 19.375 312.548 19.1591V19.1136C312.548 18.553 312.395 18.1174 312.088 17.8068C311.785 17.4962 311.325 17.3409 310.707 17.3409C310.067 17.3409 309.565 17.4811 309.202 17.7614C308.838 18.0417 308.582 18.3409 308.435 18.6591L307.162 18.2045C307.389 17.6742 307.692 17.2614 308.071 16.9659C308.454 16.6667 308.87 16.4583 309.321 16.3409C309.776 16.2197 310.223 16.1591 310.662 16.1591C310.942 16.1591 311.264 16.1932 311.628 16.2614C311.995 16.3258 312.349 16.4602 312.69 16.6648C313.035 16.8693 313.321 17.178 313.548 17.5909C313.776 18.0038 313.889 18.5568 313.889 19.25V25H312.548V23.8182H312.48C312.389 24.0076 312.238 24.2102 312.026 24.4261C311.813 24.642 311.531 24.8258 311.179 24.9773C310.827 25.1288 310.397 25.2045 309.889 25.2045ZM310.094 24C310.624 24 311.071 23.8958 311.435 23.6875C311.802 23.4792 312.079 23.2102 312.264 22.8807C312.454 22.5511 312.548 22.2045 312.548 21.8409V20.6136C312.491 20.6818 312.366 20.7443 312.173 20.8011C311.984 20.8542 311.764 20.9015 311.514 20.9432C311.268 20.9811 311.027 21.0152 310.793 21.0455C310.562 21.072 310.374 21.0947 310.23 21.1136C309.882 21.1591 309.556 21.233 309.253 21.3352C308.954 21.4337 308.711 21.5833 308.526 21.7841C308.344 21.9811 308.253 22.25 308.253 22.5909C308.253 23.0568 308.425 23.4091 308.77 23.6477C309.118 23.8826 309.56 24 310.094 24ZM316.337 25V16.2727H317.678V25H316.337ZM317.018 14.8182C316.757 14.8182 316.532 14.7292 316.342 14.5511C316.157 14.3731 316.064 14.1591 316.064 13.9091C316.064 13.6591 316.157 13.4451 316.342 13.267C316.532 13.089 316.757 13 317.018 13C317.28 13 317.503 13.089 317.689 13.267C317.878 13.4451 317.973 13.6591 317.973 13.9091C317.973 14.1591 317.878 14.3731 317.689 14.5511C317.503 14.7292 317.28 14.8182 317.018 14.8182ZM321.474 19.75V25H320.134V16.2727H321.429V17.6364H321.543C321.747 17.1932 322.058 16.8371 322.474 16.5682C322.891 16.2955 323.429 16.1591 324.088 16.1591C324.679 16.1591 325.196 16.2803 325.639 16.5227C326.082 16.7614 326.427 17.125 326.673 17.6136C326.92 18.0985 327.043 18.7121 327.043 19.4545V25H325.702V19.5455C325.702 18.8598 325.524 18.3258 325.168 17.9432C324.812 17.5568 324.323 17.3636 323.702 17.3636C323.274 17.3636 322.891 17.4564 322.554 17.642C322.221 17.8277 321.957 18.0985 321.764 18.4545C321.571 18.8106 321.474 19.2424 321.474 19.75ZM256.055 44V35.2727H257.351V36.5909H257.442C257.601 36.1591 257.889 35.8087 258.305 35.5398C258.722 35.2708 259.192 35.1364 259.714 35.1364C259.813 35.1364 259.936 35.1383 260.084 35.142C260.232 35.1458 260.343 35.1515 260.419 35.1591V36.5227C260.374 36.5114 260.269 36.4943 260.107 36.4716C259.947 36.4451 259.779 36.4318 259.601 36.4318C259.177 36.4318 258.798 36.5208 258.464 36.6989C258.135 36.8731 257.874 37.1155 257.68 37.4261C257.491 37.733 257.396 38.0833 257.396 38.4773V44H256.055ZM265.402 44.1818C264.561 44.1818 263.836 43.9962 263.226 43.625C262.62 43.25 262.152 42.7273 261.822 42.0568C261.497 41.3826 261.334 40.5985 261.334 39.7045C261.334 38.8106 261.497 38.0227 261.822 37.3409C262.152 36.6553 262.61 36.1212 263.197 35.7386C263.788 35.3523 264.478 35.1591 265.266 35.1591C265.72 35.1591 266.169 35.2348 266.612 35.3864C267.055 35.5379 267.459 35.7841 267.822 36.125C268.186 36.4621 268.476 36.9091 268.692 37.4659C268.908 38.0227 269.016 38.7083 269.016 39.5227V40.0909H262.288V38.9318H267.652C267.652 38.4394 267.554 38 267.357 37.6136C267.163 37.2273 266.887 36.9223 266.527 36.6989C266.171 36.4754 265.75 36.3636 265.266 36.3636C264.732 36.3636 264.269 36.4962 263.879 36.7614C263.493 37.0227 263.196 37.3636 262.987 37.7841C262.779 38.2045 262.675 38.6553 262.675 39.1364V39.9091C262.675 40.5682 262.788 41.1269 263.016 41.5852C263.247 42.0398 263.567 42.3864 263.976 42.625C264.385 42.8598 264.86 42.9773 265.402 42.9773C265.754 42.9773 266.072 42.928 266.357 42.8295C266.644 42.7273 266.893 42.5758 267.101 42.375C267.309 42.1705 267.47 41.9167 267.584 41.6136L268.879 41.9773C268.743 42.4167 268.514 42.803 268.192 43.1364C267.87 43.4659 267.472 43.7235 266.999 43.9091C266.525 44.0909 265.993 44.1818 265.402 44.1818ZM274.601 44.1818C273.813 44.1818 273.122 43.9943 272.527 43.6193C271.936 43.2443 271.474 42.7197 271.141 42.0455C270.811 41.3712 270.646 40.5833 270.646 39.6818C270.646 38.7727 270.811 37.9792 271.141 37.3011C271.474 36.6231 271.936 36.0966 272.527 35.7216C273.122 35.3466 273.813 35.1591 274.601 35.1591C275.389 35.1591 276.078 35.3466 276.669 35.7216C277.264 36.0966 277.726 36.6231 278.055 37.3011C278.389 37.9792 278.555 38.7727 278.555 39.6818C278.555 40.5833 278.389 41.3712 278.055 42.0455C277.726 42.7197 277.264 43.2443 276.669 43.6193C276.078 43.9943 275.389 44.1818 274.601 44.1818ZM274.601 42.9773C275.199 42.9773 275.692 42.8239 276.078 42.517C276.464 42.2102 276.75 41.8068 276.936 41.3068C277.122 40.8068 277.214 40.2652 277.214 39.6818C277.214 39.0985 277.122 38.5549 276.936 38.0511C276.75 37.5473 276.464 37.1402 276.078 36.8295C275.692 36.5189 275.199 36.3636 274.601 36.3636C274.002 36.3636 273.51 36.5189 273.124 36.8295C272.737 37.1402 272.451 37.5473 272.266 38.0511C272.08 38.5549 271.987 39.0985 271.987 39.6818C271.987 40.2652 272.08 40.8068 272.266 41.3068C272.451 41.8068 272.737 42.2102 273.124 42.517C273.51 42.8239 274.002 42.9773 274.601 42.9773ZM280.602 44V35.2727H281.898V36.5909H281.989C282.148 36.1591 282.436 35.8087 282.852 35.5398C283.269 35.2708 283.739 35.1364 284.261 35.1364C284.36 35.1364 284.483 35.1383 284.631 35.142C284.778 35.1458 284.89 35.1515 284.966 35.1591V36.5227C284.92 36.5114 284.816 36.4943 284.653 36.4716C284.494 36.4451 284.326 36.4318 284.148 36.4318C283.723 36.4318 283.345 36.5208 283.011 36.6989C282.682 36.8731 282.42 37.1155 282.227 37.4261C282.038 37.733 281.943 38.0833 281.943 38.4773V44H280.602ZM289.812 47.4545C289.165 47.4545 288.608 47.3712 288.142 47.2045C287.676 47.0417 287.288 46.8258 286.977 46.5568C286.67 46.2917 286.426 46.0076 286.244 45.7045L287.312 44.9545C287.434 45.1136 287.587 45.2955 287.773 45.5C287.958 45.7083 288.212 45.8883 288.534 46.0398C288.86 46.1951 289.286 46.2727 289.812 46.2727C290.517 46.2727 291.098 46.1023 291.557 45.7614C292.015 45.4205 292.244 44.8864 292.244 44.1591V42.3864H292.131C292.032 42.5455 291.892 42.7424 291.71 42.9773C291.532 43.2083 291.275 43.4148 290.938 43.5966C290.604 43.7746 290.153 43.8636 289.585 43.8636C288.881 43.8636 288.248 43.697 287.688 43.3636C287.131 43.0303 286.689 42.5455 286.364 41.9091C286.042 41.2727 285.881 40.5 285.881 39.5909C285.881 38.697 286.038 37.9186 286.352 37.2557C286.667 36.589 287.104 36.0739 287.665 35.7102C288.225 35.3428 288.873 35.1591 289.608 35.1591C290.176 35.1591 290.627 35.2538 290.96 35.4432C291.297 35.6288 291.555 35.8409 291.733 36.0795C291.915 36.3144 292.055 36.5076 292.153 36.6591H292.29V35.2727H293.585V44.25C293.585 45 293.415 45.6098 293.074 46.0795C292.737 46.553 292.282 46.8996 291.71 47.1193C291.142 47.3428 290.509 47.4545 289.812 47.4545ZM289.767 42.6591C290.305 42.6591 290.759 42.536 291.131 42.2898C291.502 42.0436 291.784 41.6894 291.977 41.2273C292.17 40.7652 292.267 40.2121 292.267 39.5682C292.267 38.9394 292.172 38.3845 291.983 37.9034C291.794 37.4223 291.513 37.0455 291.142 36.7727C290.771 36.5 290.313 36.3636 289.767 36.3636C289.199 36.3636 288.725 36.5076 288.347 36.7955C287.972 37.0833 287.689 37.4697 287.5 37.9545C287.314 38.4394 287.222 38.9773 287.222 39.5682C287.222 40.1742 287.316 40.7102 287.506 41.1761C287.699 41.6383 287.983 42.0019 288.358 42.267C288.737 42.5284 289.206 42.6591 289.767 42.6591ZM298.608 44.2045C298.055 44.2045 297.553 44.1004 297.102 43.892C296.652 43.6799 296.294 43.375 296.028 42.9773C295.763 42.5758 295.631 42.0909 295.631 41.5227C295.631 41.0227 295.729 40.6174 295.926 40.3068C296.123 39.9924 296.386 39.7462 296.716 39.5682C297.045 39.3902 297.409 39.2576 297.807 39.1705C298.208 39.0795 298.612 39.0076 299.017 38.9545C299.547 38.8864 299.977 38.8352 300.307 38.8011C300.64 38.7633 300.883 38.7008 301.034 38.6136C301.189 38.5265 301.267 38.375 301.267 38.1591V38.1136C301.267 37.553 301.114 37.1174 300.807 36.8068C300.504 36.4962 300.044 36.3409 299.426 36.3409C298.786 36.3409 298.284 36.4811 297.92 36.7614C297.557 37.0417 297.301 37.3409 297.153 37.6591L295.881 37.2045C296.108 36.6742 296.411 36.2614 296.79 35.9659C297.172 35.6667 297.589 35.4583 298.04 35.3409C298.494 35.2197 298.941 35.1591 299.381 35.1591C299.661 35.1591 299.983 35.1932 300.347 35.2614C300.714 35.3258 301.068 35.4602 301.409 35.6648C301.754 35.8693 302.04 36.178 302.267 36.5909C302.494 37.0038 302.608 37.5568 302.608 38.25V44H301.267V42.8182H301.199C301.108 43.0076 300.956 43.2102 300.744 43.4261C300.532 43.642 300.25 43.8258 299.898 43.9773C299.545 44.1288 299.116 44.2045 298.608 44.2045ZM298.812 43C299.343 43 299.79 42.8958 300.153 42.6875C300.521 42.4792 300.797 42.2102 300.983 41.8807C301.172 41.5511 301.267 41.2045 301.267 40.8409V39.6136C301.21 39.6818 301.085 39.7443 300.892 39.8011C300.703 39.8542 300.483 39.9015 300.233 39.9432C299.987 39.9811 299.746 40.0152 299.511 40.0455C299.28 40.072 299.093 40.0947 298.949 40.1136C298.6 40.1591 298.275 40.233 297.972 40.3352C297.672 40.4337 297.43 40.5833 297.244 40.7841C297.063 40.9811 296.972 41.25 296.972 41.5909C296.972 42.0568 297.144 42.4091 297.489 42.6477C297.837 42.8826 298.278 43 298.812 43ZM306.396 38.75V44H305.055V35.2727H306.351V36.6364H306.464C306.669 36.1932 306.98 35.8371 307.396 35.5682C307.813 35.2955 308.351 35.1591 309.01 35.1591C309.601 35.1591 310.118 35.2803 310.561 35.5227C311.004 35.7614 311.349 36.125 311.595 36.6136C311.841 37.0985 311.964 37.7121 311.964 38.4545V44H310.624V38.5455C310.624 37.8598 310.446 37.3258 310.089 36.9432C309.733 36.5568 309.245 36.3636 308.624 36.3636C308.196 36.3636 307.813 36.4564 307.476 36.642C307.143 36.8277 306.879 37.0985 306.686 37.4545C306.493 37.8106 306.396 38.2424 306.396 38.75ZM314.415 44V35.2727H315.756V44H314.415ZM315.097 33.8182C314.835 33.8182 314.61 33.7292 314.42 33.5511C314.235 33.3731 314.142 33.1591 314.142 32.9091C314.142 32.6591 314.235 32.4451 314.42 32.267C314.61 32.089 314.835 32 315.097 32C315.358 32 315.581 32.089 315.767 32.267C315.956 32.4451 316.051 32.6591 316.051 32.9091C316.051 33.1591 315.956 33.3731 315.767 33.5511C315.581 33.7292 315.358 33.8182 315.097 33.8182ZM317.962 44V42.9773L322.916 36.6136V36.5227H318.121V35.2727H324.643V36.3409L319.825 42.6591V42.75H324.803V44H317.962ZM329.436 44.2045C328.883 44.2045 328.381 44.1004 327.93 43.892C327.48 43.6799 327.122 43.375 326.857 42.9773C326.591 42.5758 326.459 42.0909 326.459 41.5227C326.459 41.0227 326.557 40.6174 326.754 40.3068C326.951 39.9924 327.214 39.7462 327.544 39.5682C327.874 39.3902 328.237 39.2576 328.635 39.1705C329.036 39.0795 329.44 39.0076 329.845 38.9545C330.375 38.8864 330.805 38.8352 331.135 38.8011C331.468 38.7633 331.711 38.7008 331.862 38.6136C332.018 38.5265 332.095 38.375 332.095 38.1591V38.1136C332.095 37.553 331.942 37.1174 331.635 36.8068C331.332 36.4962 330.872 36.3409 330.254 36.3409C329.614 36.3409 329.112 36.4811 328.749 36.7614C328.385 37.0417 328.129 37.3409 327.982 37.6591L326.709 37.2045C326.936 36.6742 327.239 36.2614 327.618 35.9659C328 35.6667 328.417 35.4583 328.868 35.3409C329.322 35.2197 329.769 35.1591 330.209 35.1591C330.489 35.1591 330.811 35.1932 331.175 35.2614C331.542 35.3258 331.896 35.4602 332.237 35.6648C332.582 35.8693 332.868 36.178 333.095 36.5909C333.322 37.0038 333.436 37.5568 333.436 38.25V44H332.095V42.8182H332.027C331.936 43.0076 331.785 43.2102 331.572 43.4261C331.36 43.642 331.078 43.8258 330.726 43.9773C330.374 44.1288 329.944 44.2045 329.436 44.2045ZM329.641 43C330.171 43 330.618 42.8958 330.982 42.6875C331.349 42.4792 331.625 42.2102 331.811 41.8807C332 41.5511 332.095 41.2045 332.095 40.8409V39.6136C332.038 39.6818 331.913 39.7443 331.72 39.8011C331.531 39.8542 331.311 39.9015 331.061 39.9432C330.815 39.9811 330.574 40.0152 330.339 40.0455C330.108 40.072 329.921 40.0947 329.777 40.1136C329.429 40.1591 329.103 40.233 328.8 40.3352C328.5 40.4337 328.258 40.5833 328.072 40.7841C327.891 40.9811 327.8 41.25 327.8 41.5909C327.8 42.0568 327.972 42.4091 328.317 42.6477C328.665 42.8826 329.107 43 329.641 43ZM339.679 35.2727V36.4091H335.156V35.2727H339.679ZM336.474 33.1818H337.815V41.5C337.815 41.8788 337.87 42.1629 337.98 42.3523C338.094 42.5379 338.238 42.6629 338.412 42.7273C338.59 42.7879 338.777 42.8182 338.974 42.8182C339.122 42.8182 339.243 42.8106 339.338 42.7955C339.433 42.7765 339.509 42.7614 339.565 42.75L339.838 43.9545C339.747 43.9886 339.62 44.0227 339.457 44.0568C339.295 44.0947 339.088 44.1136 338.838 44.1136C338.459 44.1136 338.088 44.0322 337.724 43.8693C337.365 43.7064 337.065 43.4583 336.827 43.125C336.592 42.7917 336.474 42.3712 336.474 41.8636V33.1818ZM341.696 44V35.2727H343.037V44H341.696ZM342.378 33.8182C342.116 33.8182 341.891 33.7292 341.702 33.5511C341.516 33.3731 341.423 33.1591 341.423 32.9091C341.423 32.6591 341.516 32.4451 341.702 32.267C341.891 32.089 342.116 32 342.378 32C342.639 32 342.863 32.089 343.048 32.267C343.238 32.4451 343.332 32.6591 343.332 32.9091C343.332 33.1591 343.238 33.3731 343.048 33.5511C342.863 33.7292 342.639 33.8182 342.378 33.8182ZM349.038 44.1818C348.25 44.1818 347.559 43.9943 346.964 43.6193C346.374 43.2443 345.911 42.7197 345.578 42.0455C345.249 41.3712 345.084 40.5833 345.084 39.6818C345.084 38.7727 345.249 37.9792 345.578 37.3011C345.911 36.6231 346.374 36.0966 346.964 35.7216C347.559 35.3466 348.25 35.1591 349.038 35.1591C349.826 35.1591 350.516 35.3466 351.107 35.7216C351.701 36.0966 352.163 36.6231 352.493 37.3011C352.826 37.9792 352.993 38.7727 352.993 39.6818C352.993 40.5833 352.826 41.3712 352.493 42.0455C352.163 42.7197 351.701 43.2443 351.107 43.6193C350.516 43.9943 349.826 44.1818 349.038 44.1818ZM349.038 42.9773C349.637 42.9773 350.129 42.8239 350.516 42.517C350.902 42.2102 351.188 41.8068 351.374 41.3068C351.559 40.8068 351.652 40.2652 351.652 39.6818C351.652 39.0985 351.559 38.5549 351.374 38.0511C351.188 37.5473 350.902 37.1402 350.516 36.8295C350.129 36.5189 349.637 36.3636 349.038 36.3636C348.44 36.3636 347.947 36.5189 347.561 36.8295C347.175 37.1402 346.889 37.5473 346.703 38.0511C346.518 38.5549 346.425 39.0985 346.425 39.6818C346.425 40.2652 346.518 40.8068 346.703 41.3068C346.889 41.8068 347.175 42.2102 347.561 42.517C347.947 42.8239 348.44 42.9773 349.038 42.9773ZM356.381 38.75V44H355.04V35.2727H356.335V36.6364H356.449C356.653 36.1932 356.964 35.8371 357.381 35.5682C357.797 35.2955 358.335 35.1591 358.994 35.1591C359.585 35.1591 360.102 35.2803 360.545 35.5227C360.989 35.7614 361.333 36.125 361.58 36.6136C361.826 37.0985 361.949 37.7121 361.949 38.4545V44H360.608V38.5455C360.608 37.8598 360.43 37.3258 360.074 36.9432C359.718 36.5568 359.229 36.3636 358.608 36.3636C358.18 36.3636 357.797 36.4564 357.46 36.642C357.127 36.8277 356.864 37.0985 356.67 37.4545C356.477 37.8106 356.381 38.2424 356.381 38.75Z" fill="#F5D786"/>
<path d="M186.949 110H185.472L189.744 98.3636H191.199L195.472 110H193.994L190.517 100.205H190.426L186.949 110ZM187.494 105.455H193.449V106.705H187.494V105.455ZM200.625 113.455C199.977 113.455 199.42 113.371 198.955 113.205C198.489 113.042 198.1 112.826 197.79 112.557C197.483 112.292 197.239 112.008 197.057 111.705L198.125 110.955C198.246 111.114 198.4 111.295 198.585 111.5C198.771 111.708 199.025 111.888 199.347 112.04C199.672 112.195 200.098 112.273 200.625 112.273C201.33 112.273 201.911 112.102 202.369 111.761C202.828 111.42 203.057 110.886 203.057 110.159V108.386H202.943C202.845 108.545 202.705 108.742 202.523 108.977C202.345 109.208 202.087 109.415 201.75 109.597C201.417 109.775 200.966 109.864 200.398 109.864C199.693 109.864 199.061 109.697 198.5 109.364C197.943 109.03 197.502 108.545 197.176 107.909C196.854 107.273 196.693 106.5 196.693 105.591C196.693 104.697 196.85 103.919 197.165 103.256C197.479 102.589 197.917 102.074 198.477 101.71C199.038 101.343 199.686 101.159 200.42 101.159C200.989 101.159 201.439 101.254 201.773 101.443C202.11 101.629 202.367 101.841 202.545 102.08C202.727 102.314 202.867 102.508 202.966 102.659H203.102V101.273H204.398V110.25C204.398 111 204.227 111.61 203.886 112.08C203.549 112.553 203.095 112.9 202.523 113.119C201.955 113.343 201.322 113.455 200.625 113.455ZM200.58 108.659C201.117 108.659 201.572 108.536 201.943 108.29C202.314 108.044 202.597 107.689 202.79 107.227C202.983 106.765 203.08 106.212 203.08 105.568C203.08 104.939 202.985 104.384 202.795 103.903C202.606 103.422 202.326 103.045 201.955 102.773C201.583 102.5 201.125 102.364 200.58 102.364C200.011 102.364 199.538 102.508 199.159 102.795C198.784 103.083 198.502 103.47 198.312 103.955C198.127 104.439 198.034 104.977 198.034 105.568C198.034 106.174 198.129 106.71 198.318 107.176C198.511 107.638 198.795 108.002 199.17 108.267C199.549 108.528 200.019 108.659 200.58 108.659ZM210.511 110.182C209.67 110.182 208.945 109.996 208.335 109.625C207.729 109.25 207.261 108.727 206.932 108.057C206.606 107.383 206.443 106.598 206.443 105.705C206.443 104.811 206.606 104.023 206.932 103.341C207.261 102.655 207.72 102.121 208.307 101.739C208.898 101.352 209.587 101.159 210.375 101.159C210.83 101.159 211.278 101.235 211.722 101.386C212.165 101.538 212.568 101.784 212.932 102.125C213.295 102.462 213.585 102.909 213.801 103.466C214.017 104.023 214.125 104.708 214.125 105.523V106.091H207.398V104.932H212.761C212.761 104.439 212.663 104 212.466 103.614C212.273 103.227 211.996 102.922 211.636 102.699C211.28 102.475 210.86 102.364 210.375 102.364C209.841 102.364 209.379 102.496 208.989 102.761C208.602 103.023 208.305 103.364 208.097 103.784C207.888 104.205 207.784 104.655 207.784 105.136V105.909C207.784 106.568 207.898 107.127 208.125 107.585C208.356 108.04 208.676 108.386 209.085 108.625C209.494 108.86 209.97 108.977 210.511 108.977C210.864 108.977 211.182 108.928 211.466 108.83C211.754 108.727 212.002 108.576 212.21 108.375C212.419 108.17 212.58 107.917 212.693 107.614L213.989 107.977C213.852 108.417 213.623 108.803 213.301 109.136C212.979 109.466 212.581 109.723 212.108 109.909C211.634 110.091 211.102 110.182 210.511 110.182Z" fill="#BA32AD"/>
</g>
<defs>
<clipPath id="clip0_1_2">
<rect width="400" height="120" fill="white"/>
</clipPath>
</defs>
</svg>
